<?xml version="1.0" encoding="UTF-8"?>
<svg width="40px" height="40px" viewBox="0 0 40 40" version="1.1" xmlns="http://www.w3.org/2000/svg" xmlns:xlink="http://www.w3.org/1999/xlink">
    <!-- Generator: sketchtool 40.3 (33839) - http://www.bohemiancoding.com/sketch -->
    <title>D236E8F3-3C00-426A-BA32-1CD75A5F6D98</title>
    <desc>Created with sketchtool.</desc>
    <defs>
        <rect id="path-1" x="0" y="0" width="40" height="40"></rect>
    </defs>
    <g id="Page-1" stroke="none" stroke-width="1" fill="none" fill-rule="evenodd">
        <g id="双十一-视觉稿-所有Hover效果" transform="translate(-1512.000000, -665.000000)">
            <g id="Group-16-Copy-3" transform="translate(1312.000000, 665.000000)">
                <g id="11.11" transform="translate(200.000000, 0.000000)">
                    <mask id="mask-2" fill="white">
                        <use xlink:href="#path-1"></use>
                    </mask>
                    <use id="Mask" fill="#FF0014" xlink:href="#path-1"></use>
                    <g id="Vector-Smart-Object21" mask="url(#mask-2)">
                        <g transform="translate(4.000000, 10.000000)" id="Layer_1">
                            <g>
                                <path d="M28.0389029,1.13402098 C27.4925972,1.87316084 26.8733103,2.71075524 24.1321909,2.71075524 L7.88044197,2.71075524 C5.13932261,2.71075524 4.49313562,1.83648951 3.97372994,1.13402098 C3.59864909,0.627 3.17351069,0.0520839161 2.2072126,0.0520839161 C0.180232208,0.0520839161 0.0123990268,2.56088112 0.0123990268,5.35600699 L0.0123990268,15.6275664 C0.0123990268,17.4281818 1.30184908,18.8931748 2.88684927,18.8931748 L14.1190411,18.8931748 L15.259605,18.8931748 L29.1255497,18.8931748 C30.7105499,18.8931748 31.9999999,17.4281818 31.9999999,15.6275664 L31.9999999,5.35600699 C32.0001169,2.56088112 31.8322837,0.0520839161 29.8054203,0.0520839161 C28.8391222,0.0520839161 28.4139838,0.627 28.0389029,1.13402098 Z M29.1256667,17.766993 L15.2597219,17.766993 L14.119158,17.766993 L2.88696623,17.766993 C1.84850573,17.766993 1.00384285,16.8072937 1.00384285,15.6275664 L1.00384285,5.35600699 C1.00384285,1.4924965 1.5488621,1.178 2.20732956,1.178 C2.7116478,1.178 2.87983186,1.4056014 3.21479648,1.85854545 C3.98565954,2.90115385 4.92248448,3.83693706 7.88055892,3.83693706 L24.1323079,3.83693706 C27.0903823,3.83693706 28.0272072,2.90115385 28.7980703,1.85854545 C29.1330349,1.4056014 29.3013359,1.178 29.8055372,1.178 C30.4640047,1.178 31.0090239,1.4924965 31.0090239,5.35600699 L31.0090239,15.6275664 C31.008907,16.8072937 30.1641272,17.766993 29.1256667,17.766993 Z" id="Shape" fill="#FFFFFF"></path>
                                <g id="Group" transform="translate(4.702676, 6.111888)" fill="#FFFFFF">
                                    <path d="M3.99820925,0.0915454545 L3.99820925,9.28741259 L1.64511922,9.28741259 L1.64511922,4.35711189 C1.64511922,3.64534266 1.62754258,3.21737762 1.5926618,3.07348252 C1.55764477,2.92958741 1.46158637,2.82076923 1.30435036,2.7468951 C1.14711436,2.67288811 0.79653528,2.63608392 0.252885645,2.63608392 L0.019892944,2.63608392 L0.019892944,1.56397902 C1.15774209,1.32521678 2.02158637,0.834405594 2.61183455,0.0915454545 L3.99820925,0.0915454545 L3.99820925,0.0915454545 Z" id="Shape"></path>
                                    <path d="M8.95018978,0.0915454545 L8.95018978,9.28741259 L6.5969635,9.28741259 L6.5969635,4.35711189 C6.5969635,3.64534266 6.57938686,3.21737762 6.54450608,3.07348252 C6.50948905,2.92958741 6.41343066,2.82076923 6.25619465,2.7468951 C6.09895864,2.67288811 5.74837956,2.63608392 5.20472993,2.63608392 L4.97173723,2.63608392 L4.97173723,1.56397902 C6.10958637,1.32521678 6.97343066,0.834405594 7.56367883,0.0915454545 L8.95018978,0.0915454545 L8.95018978,0.0915454545 Z" id="Shape"></path>
                                    <polygon id="Shape" points="12.5215182 7.41292308 12.5215182 9.28741259 10.7450511 9.28741259 10.7450511 7.41305594 12.5215182 7.41305594"></polygon>
                                    <path d="M16.5127786,0.0915454545 L16.5127786,9.28741259 L14.1596886,9.28741259 L14.1596886,4.35711189 C14.1596886,3.64534266 14.1421119,3.21737762 14.1072311,3.07348252 C14.0722141,2.92958741 13.9761557,2.82076923 13.8189197,2.7468951 C13.6616837,2.67288811 13.3111046,2.63608392 12.767455,2.63608392 L12.5344623,2.63608392 L12.5344623,1.56397902 C13.6723114,1.32521678 14.5361557,0.834405594 15.1264039,0.0915454545 L16.5127786,0.0915454545 L16.5127786,0.0915454545 Z" id="Shape"></path>
                                    <path d="M21.4648954,0.0915454545 L21.4648954,9.28741259 L19.1116691,9.28741259 L19.1116691,4.35711189 C19.1116691,3.64534266 19.0940925,3.21737762 19.0592117,3.07348252 C19.0241946,2.92958741 18.9281363,2.82076923 18.7709002,2.7468951 C18.6136642,2.67288811 18.2630852,2.63608392 17.7194355,2.63608392 L17.4864428,2.63608392 L17.4864428,1.56397902 C18.624292,1.32521678 19.4881363,0.834405594 20.0783844,0.0915454545 L21.4648954,0.0915454545 L21.4648954,0.0915454545 Z" id="Shape"></path>
                                </g>
                            </g>
                        </g>
                    </g>
                </g>
            </g>
        </g>
    </g>
</svg>