<?xml version="1.0" encoding="UTF-8"?>
<svg width="23px" height="22px" viewBox="0 0 23 22" version="1.1" xmlns="http://www.w3.org/2000/svg" xmlns:xlink="http://www.w3.org/1999/xlink">
    <!-- Generator: sketchtool 41 (35326) - http://www.bohemiancoding.com/sketch -->
    <title>3FA651E6-104D-4ED0-AB21-7695429A6E26</title>
    <desc>Created with sketchtool.</desc>
    <defs></defs>
    <g id="Page-1" stroke="none" stroke-width="1" fill="none" fill-rule="evenodd">
        <g id="P5_productlist_buy-for-me" transform="translate(-86.000000, -781.000000)" fill="#C0C0C5">
            <g id="Group-7" transform="translate(0.000000, 770.000000)">
                <path d="M106.704314,16.7348907 L93.6664779,16.7348907 C92.4307238,16.7348907 92.1229271,17.4250546 92.0492072,17.8363568 L91.9216966,18.5631847 C90.5853504,26.1915105 89.822294,30.4321409 89.6534487,31.1673899 C89.5055014,31.7506584 89.2634436,31.962643 89.0871248,31.962643 L86.5100421,31.962643 C86.2281258,31.962643 86,32.1948713 86,32.4813332 C86,32.7677951 86.2281257,33 86.5100421,33 L89.0871248,33 C89.3581077,33 90.2715795,32.8857859 90.6441233,31.4148187 C90.9076097,30.2683144 92.4267564,21.5952659 92.925842,18.7450265 L93.0523607,18.0224679 C93.0648165,17.9538315 93.0971785,17.7722243 93.666501,17.7722243 L106.704314,17.7722243 C106.986207,17.7722243 107.214333,17.5400194 107.214333,17.2535575 C107.214333,16.9671426 106.986184,16.7348907 106.704314,16.7348907 L106.704314,16.7348907 Z M92.5345891,20.9329928 L92.3531417,21.9703498 L105.216998,21.9703498 C106.124519,21.9703498 106.308311,22.6901404 106.315277,22.7207758 C106.370567,22.9294529 107.598825,27.5920586 107.93753,28.7525201 C107.977366,28.8887842 108.009751,29.0754348 107.938015,29.1878896 C107.863811,29.3033704 107.683986,29.3585892 107.6018,29.3743056 L91.02244,29.3743059 L90.8542341,30.4088709 L107.639698,30.4116626 C107.767209,30.4007783 108.423676,30.3156749 108.784802,29.7663258 C108.946681,29.5199057 109.10058,29.0929105 108.915818,28.4577308 C108.580596,27.3101944 107.316447,22.5115826 107.30353,22.4632134 C107.17798,21.9409811 106.576273,20.9329928 105.216998,20.9329928 L92.5345891,20.9329928 Z M94.7194316,11 C93.5519307,11 92.6020834,11.9656946 92.6020834,13.1527333 C92.6020834,14.339772 93.5519307,15.3054666 94.7194316,15.3054666 C95.8864251,15.3054666 96.835788,14.339772 96.835788,13.1527333 C96.835788,11.9656946 95.8864251,11 94.7194316,11 L94.7194316,11 Z M94.7194316,14.2680862 C94.1142641,14.2680862 93.6221676,13.7676458 93.6221676,13.1527333 C93.6221676,12.5377973 94.1142641,12.0373335 94.7194316,12.0373335 C95.3241147,12.0373335 95.8157038,12.5377973 95.8157038,13.1527333 C95.8157038,13.7676458 95.3241147,14.2680862 94.7194316,14.2680862 L94.7194316,14.2680862 Z M104.222864,11 C103.055824,11 102.106023,11.9656946 102.106023,13.1527333 C102.106023,14.339772 103.055847,15.3054666 104.222864,15.3054666 C105.389857,15.3054666 106.339705,14.339772 106.339705,13.1527333 C106.339705,11.9656946 105.389834,11 104.222864,11 L104.222864,11 Z M104.222864,14.2680862 C103.618181,14.2680862 103.126061,13.7676458 103.126061,13.1527333 C103.126061,12.5377973 103.618181,12.0373335 104.222864,12.0373335 C104.827524,12.0373335 105.31962,12.5377973 105.31962,13.1527333 C105.31962,13.7676458 104.827524,14.2680862 104.222864,14.2680862 L104.222864,14.2680862 Z" id="Shape" transform="translate(97.500000, 22.000000) scale(1, -1) translate(-97.500000, -22.000000) "></path>
            </g>
        </g>
    </g>
</svg>