<svg width="118" height="111" viewBox="0 0 118 111" xmlns="http://www.w3.org/2000/svg">
    <g fill="none" fill-rule="evenodd">
        <path d="M59.5 0C28.248 0 0 20.07 0 47.438c0 15.537 9.298 29.485 22.188 38.49V111l24.718-15.008c3.532.53 7.063.883 10.594.883 31.252 0 60.5-21.07 60.5-48.438C118 21.07 90.752 0 59.5 0z" fill="#259AFC"/>
        <text font-family="Microsoft YaHei, Open Sans, sans-serif, Hiragino Sans GB, Arial, Lantinghei SC, STHeiti, WenQuanYi Micro Hei, SimSun" font-size="18" fill="#FFF">
            <tspan x="39" y="34">lowest </tspan> <tspan x="39" y="55">shipping </tspan> <tspan x="39" y="76">fee</tspan>
        </text>
        <g transform="translate(9 36)">
            <path d="M.389 16.875l10.111 9.75m0-16.5v15.016" stroke="#FFF" stroke-width="3" stroke-linecap="round"/>
            <ellipse fill="#FFF" cx="10.5" cy="7.125" rx="1.167" ry="1.125"/>
            <ellipse fill-opacity=".8" fill="#FFF" cx="10.5" cy="4.125" rx="1.167" ry="1.125"/>
            <ellipse fill-opacity=".5" fill="#FFF" cx="10.5" cy="1.125" rx="1.167" ry="1.125"/>
            <path d="M20.611 16.875L10.5 26.625" stroke="#FFF" stroke-width="3" stroke-linecap="round"/>
        </g>
    </g>
</svg>
