<svg width="260" height="291" viewBox="0 0 260 291" xmlns="http://www.w3.org/2000/svg">
    <g fill="none" fill-rule="evenodd" opacity=".499">
        <path d="M259.269 145.482c0 80.251-66.25 145.308-147.968 145.308-81.726 0-147.973-65.057-147.973-145.308C-36.672 65.23 29.575.172 111.3.172c81.717 0 147.968 65.057 147.968 145.31" fill="#ECF6FE"/>
        <path d="M62.875 282.631c1.967-2.066.485-8.892 3.498-7.763 3.274 1.228 6.955-3.688 4.912-4.917-2.049-1.231-3.326-4.506.59-3.278 3.911 1.227 7.187 4.374 7.187-.271 0-4.647-.406-4.647 2.461-6.286 2.863-1.637.41-6.962 2.458-7.371 2.046-.413 4.912-1.233 8.6-2.46 3.681-1.23 9.007-13.932 7.37-16.799-1.636-2.866 7.368-4.063 6.142-13.708-1.232-9.645-17.608-12.102-23.34-13.742-5.733-1.639-6.144.41-3.69-4.093 2.46-4.51-4.504-9.427-9.827-10.657-5.324-1.228-10.235-5.325-8.189-8.192 1.023-1.435-1.334-1.23-4.304-1.023-2.969.205-6.55.41-7.983-1.023-2.866-2.87-2.866-4.922-8.598 0-5.739 4.913-4.913 10.65-8.19 4.503-3.281-6.147-5.325-3.892-8.192-3.892-2.868 0-1.023-6.964-1.231-9.218-.203-2.25-4.098-3.278-6.347-3.483-2.255-.208 4.71-7.787 0-8.808-4.706-1.023-9.415 4.508-9.826 6.143-.411 1.64-7.992.208-6.147-3.684 1.847-3.892-5.116-19.3 9.623-18.767 14.745.531 15.155 8.522 17.407 8.522 2.251 0 2.458-9.42 3.687-13.316 1.232-3.889 6.142-7.784 7.574-7.986 1.435-.208-2.866-10.858.411-9.833 3.275 1.018 7.984-2.66 10.444-4.304 2.458-1.638 5.322-7.99 6.14-10.448 0 0 .888 2.675 3.071 2.458 5.042-.499 12.081-4.71 11.876-6.347-.08-.65-1.288-.624-2.69-.6-2.133.04-4.721.08-4.473-2.27.408-3.893-6.143-6.762-1.64-7.58 4.506-.82 8.395-.206 11.263 0 2.864.205 3.07 3.282 3.07 4.1 0 .817 2.457 2.047 5.941 1.43 3.482-.613-2.458-9.012-4.711-9.012s3.889-3.482 2.253-6.966c-1.64-3.48-9.37-18.131-10.445-15.365 0 0-2.455 5.328-5.323 2.462-2.864-2.869-1.637-7.784-7.372-7.172-5.731.615-7.575-2.256-8.188 14.137.613 6.551-4.3 5.325-5.322 6.963-1.028 1.64-.818 12.496-4.305 9.628-3.478-2.866-3.271-8.396-2.866-10.653.413-2.253-10.032-3.686-11.874-5.938-1.84-2.26 1.638-11.678 5.529-13.317 3.888-1.638 5.114-8.4 9.01-8.4 3.887 0 5.933-.204 7.164-4.713 1.232-4.507-1.839-4.712-4.095-3.48-2.25 1.228-4.097 1.228-6.14.41-2.05-.819-6.762 1.23-7.785 2.868-1.019 1.635-4.914 3.071-7.574 2.458-2.66-.615-3.277.818-4.914 2.663-1.639 1.845-13.887.82-15.03-.41-.167-.174-1.343-.376-3.238-.59-19.997 23.96-32.335 54.315-33.38 87.46 2.95.473 5.31.702 5.983.398 1.11-.505 1.524 3.757 2.222 8.019.719 4.395 1.737 8.79 4.128 7.956 4.71-1.638-2.661-10.035 1.227-11.26 3.892-1.233 5.528 3.68 6.558 9.622 1.02 5.943.61 15.777 6.959 16.593 2.628.342 5.221.26 7.49.179 3.208-.115 5.763-.232 6.842.85 1.843 1.842 9.011 0 13.514 9.83 3.08 6.718 3.385 5.593 4.183 4.469.369-.522.845-1.043 1.753-.783 2.866.82 6.555 1.168 6.555 4.099 0 11.27-10.444 11.675-5.734 19.872 0 0 10.444 18.226 19.865 23.149 5.819 3.035 4.287 25.705 2.273 42.582a148.66 148.66 0 0 0 15.73 6.355m178.837-169.663c-3.278.216-3.686 1.83-6.28 0-2.593-1.833-5.183-3.336-6.138-2.24-.957 1.09-.957 3.75-2.19 3.104-1.227-.648-2.045-.921-2.045-.921-2.321.273-5.463-.41-3.957-3.136 1.502-2.737 3.683-4.512 2.592-5.878-1.09-1.363-.275-3.002 3.003-1.773 3.277 1.227 4.776 2.728 5.732.957.954-1.78 2.866-3.006 3.822.136.957 3.14 1.094 5.457 2.866 6.007 1.778.551 5.87 3.527 2.595 3.744zm14.605 33.543c-1.382-1.158.348-4.836 2.232-7.268-2.077-44.803-24.81-84.317-59.076-109.573-7.212 4.608-5.982 9.872-6.769 12.555-.819 2.782-10.648 11.962-12.834 14.447-2.18 2.487 0 3.524 0 6.823 0 3.3 1.094 2.165 3.009 3.802 1.908 1.64 3.277-.82 5.617-2.186 2.345-1.367 2.028 2.46 2.295 4.916.275 2.459 1.913 4.371 3.554 3.356 1.634-1.015 3.547-.079 2.728-1.444-.815-1.366-.815-4.916 1.09-4.916 1.917 0 2.73-3.276 3.005-5.464.273-2.185-3.552-3.549-3.552-3.549s-.818-2.457.82-2.457c1.644 0 3.278-2.186 2.732-4.53-.543-2.341 2.731-6.67 7.098-8.024 4.371-1.349.822 3.54-1.091 10.368-1.912 6.83.816 4.37 2.185 8.192 1.364 3.823 5.183-1.639 6.823-3.275 1.639-1.64 4.367 6.006 1.639 5.94-2.73-.07-4.097.614-6.003 1.98-1.913 1.367.818 1.912 0 4.097-.824 2.185-2.46 0-5.735 1.092-3.276 1.093 0 6.283-1.094 7.1-1.09.82-4.64 1.095-8.732 1.578-4.101.488-9.559 1.158-12.287 0-2.734-1.147-5.462 4.16-6.01 6.693-.55 2.535-3.825 4.569-7.022 6.208-3.208 1.638-4.171 2.188-6.465 3.551-2.295 1.363 3.115 4.645 5.025 5.462 1.913.82 1.369 6.557 1.369 6.557H158.01l-2.295 9.694 2.148 4.917s8.223.14 8.63.543c.412.416 5.056-4.227 5.056-4.227-1.18-6.653 8.734-12.565 9.282-12.565.541 0 8.325-2.733 8.597-.276.271 2.462 7.779 7.784 8.187 8.47.416.68.143 1.773-.813 3.414-.955 1.637 2.32 2.733 2.185 1.503-.14-1.232 1.77-1.368 3.407-1.503 1.644-.136 1.1-3.414-1.502-5.056-2.596-1.638-7.506-8.193-8.05-10.787-.547-2.596 2.183-3.279 4.503-.135 2.324 3.14 9.883 10.24 9.883 10.24s1.042 5.187 0 6.282c-1.04 1.093 2.404 3.415 2.677 4.783.275 1.365 3.824-.276 5.186-.547 1.367-.276-1.91-4.78-2.453-7.104-.548-2.324 5.318-.406 6.142 0 .815.413-.55 8.74-.413 10.109.137 1.366-.82-.547-4.095 1.502-3.278 2.047.82 3.004 3.276 3.96 2.456.954 3.14-5.875 3.687-5.737.544.136 12.695.136 13.24 0 .546-.138.097 7.894.097 7.894-4.914 1.366-.642 5.49-1.734 5.765l-16.108-.547c-2.188-1.37.818-3.82-5.458-4.1-6.283-.273-.55 1.64-4.044 4.917-3.497 3.28-7.428-1.913-7.97-4.638-.548-2.737-7.644-3.278-7.644-3.278l-1.915-6.285c-1.913-.276-15.968-.821-15.968-.821-1.221 1.91-3.139 3.007-9.692 3.279-6.552.271-8.735 6.003-8.735 6.003l-.275 9.02c-9.284 2.453-13.103 11.742-13.103 11.742s-1.093 4.92-1.673 17.209c-.574 12.29 10.592 23.762 10.592 23.762 1.828 4.096 22.886-4.368 22.886-4.368-.13 3.547 14.879 2.457 11.873 13.655-3.004 11.198 3.006 9.284 3.006 13.659 0 4.369 3.004 15.019-3.554 21.848-3.85 4.015-1.853 18.982.45 30.634 18.837-10.854 35.007-25.677 47.328-43.305 0-.238 0-.472.004-.711.184-13.737 8.061-19.773 13.089-22.233a142.666 142.666 0 0 0 6.94-18.618l-7.2-.666s-6.827-23.762-13.101-33.867c-6.277-10.107.816-7.432.816-7.432s4.913 6.065 6.549 9.07c1.643 3.004 0 9.013 1.643 10.924 1.64 1.913 3.55 1.366 3.276 3.824-.275 2.456 2.183 9.285 3.55 10.653.911.916 4.53-.504 6.81-1.537a142.85 142.85 0 0 0 3.476-29.413c-1.184-.728-2.058-1.289-2.37-1.55z" fill="#93CCF8"/>
    </g>
</svg>
