<svg width="36" height="74" viewBox="0 0 36 74" xmlns="http://www.w3.org/2000/svg" xmlns:xlink="http://www.w3.org/1999/xlink"><defs><path id="a" d="M.145 28.532h69.258V0H.145z"/><path id="c" d="M.055 19.402h19.464V.066H.055v19.336z"/></defs><g fill="none" fill-rule="evenodd"><path d="M29.36 25.696c-.286-1.63 2.662-13.304 3.511-14.085l2.807.7c.44.44-2.839 13.85-3.512 14.085l-2.807-.7" fill="#D2AB6D"/><path d="M29.36 25.696l3.511-14.085S30.658 7.963 15.632.104c-3.461 1.737-6.12 13.163-6.12 13.163s-3.017 11.337-.776 14.496c16.957.115 20.623-2.067 20.623-2.067" fill="#FCE390"/><path d="M29.36 25.696c-.286-1.63 2.662-13.304 3.511-14.085l2.807.7c-1.03 1.468-3.575 12.155-3.512 14.085l-2.807-.7" fill="#E8BF7A"/><path d="M31.191 18.601c.75-3.007 1.385-5.015 1.765-5.975a.477.477 0 0 1 .56-.287l.824.205a.477.477 0 0 1 .333.63c-.605 1.605-1.272 4.17-1.584 5.422-.558 2.24-1.14 4.912-1.37 6.578a.477.477 0 0 1-.589.396l-.844-.21a.477.477 0 0 1-.36-.511c.119-1.127.534-3.314 1.265-6.248" fill="#EDCA8D"/><path d="M10.447 13.5S12.987 2.59 16.333.472a163.1 163.1 0 0 0-.701-.368c-3.461 1.737-6.12 13.163-6.12 13.163s-3.017 11.337-.776 14.496l.791.003c-1.96-3.44.92-14.266.92-14.266" fill="#E8BF7A"/><path d="M17.12.891c-3.228 2.464-5.649 12.865-5.649 12.865s-2.745 10.32-1.051 14.01c.284 0 .562-.002.838-.003-1.484-3.875 1.149-13.774 1.149-13.774s2.323-9.977 5.452-12.7L17.12.89" fill="#E8BF7A"/><path d="M16.75.822l.012.009-.012-.009m.04.028l.005.003c-.002 0-.003-.002-.005-.003" fill="#FBF4EC"/><path d="M13.998 3.408c.71-1.323 1.497-2.405 2.335-2.936a163.1 163.1 0 0 0 .44.233l.005.003.013.007.011.006.004.003.014.007.005.003a142.187 142.187 0 0 1 6.382 3.592c-2.268-1.291-4.521-1.882-6.457-1.744.356-.519.726-.96 1.109-1.294L17.12.891c-.556.424-1.088 1.083-1.587 1.884a5.72 5.72 0 0 0-1.536.633" fill="#F5D688"/><path d="M11.699 6.197C12.75 3.489 14.114.866 15.632.104l.7.368c-.837.53-1.625 1.613-2.334 2.936-1.004.603-1.8 1.53-2.3 2.789m3.836-3.422c.5-.8 1.031-1.46 1.587-1.884l.738.397c-.383.334-.753.775-1.11 1.294-.42.03-.827.094-1.215.193M8.135 20.404" fill="#E1B875"/><path d="M8.844 24.059c.282.47.637.898 1.058 1.282.064.942.223 1.775.512 2.412H9.52c-.488-.866-.672-2.192-.676-3.694" fill="#F5D688"/><path d="M8.127 20.523c-.15 1.344.116 2.534.717 3.536.004 1.502.188 2.828.676 3.694-.257 0-.517-.002-.78-.004-.983-1.385-.955-4.342-.613-7.226" fill="#E1B875"/><path d="M10.884 26.083c1.646 1.032 3.914 1.57 6.526 1.495-1.79.093-3.831.155-6.157.171-.18-.475-.3-1.04-.369-1.666" fill="#F5D688"/><path d="M9.902 25.341c.296.27.624.518.982.742.07.626.189 1.19.369 1.666l-.84.004c-.288-.637-.447-1.47-.511-2.412" fill="#E1B875"/><path d="M12.852 14.434c.053-.215.085-.336.087-.342l.011-.047c.002-.006.03-.127.084-.34.24-.966.901-3.477 1.84-5.94.418-1.12 1.133-1.873 2.13-2.25 1.63-.615 3.875-.208 6.162 1.117 2.846 1.745 4.834 3.182 6.146 4.253 1.031.842 1.48 2.231 1.15 3.557l-1.875 7.522c-.33 1.323-1.376 2.34-2.679 2.599-1.84.364-4.619.734-8.519.931-.13.007-.26.007-.389-.002-1.547-.113-3.163-.568-4.24-1.494-.84-.721-1.255-1.846-1.129-2.974.315-2.824.999-5.7 1.22-6.59" fill="#FCE9A4"/><path fill="#AB754B" d="M11.656 6.308v-.004.004"/><g transform="rotate(104 16.223 19.126)"><mask id="b" fill="#fff"><use xlink:href="#a"/></mask><path d="M.145 16.06l.04-.13-.04.13" fill="#AB754B" mask="url(#b)"/><path d="M69.403 8.533C65.953 7.488 66.953.6 66.953.6s-.183 0-3.245-.6c-.408 3.22-1.774 4.731-4.037 4.733C57.408 4.731 56.042 3.22 55.634 0c-3.062.6-3.246.6-3.246.6s1 6.888-2.449 7.933c.796 5.577.429 10.833 0 18.899 1.224 1.13 6.028 1.1 9.732 1.1 3.704 0 8.508.03 9.732-1.1-.429-8.066-.796-13.322 0-18.899" fill="#7EAF91" mask="url(#b)"/></g><path d="M-.802 60.241l.273-1.096c.46-1.84.912-3.612 1.408-5.08l.004-.013c.21-.618.923-.945 1.601-.738 4.72 1.446 8.5 2.556 12.332 3.225a3.52 3.52 0 0 1 2.06 1.178c.751.876 1.803 1.617 3.147 2.215.05.021.07.07.06.112a.09.09 0 0 1-.048.059h-.002c-1.58.802-2.654 2.176-3.104 3.975-.454 1.828-.16 3.5.874 4.97h.001a.09.09 0 0 1 .016.076c-.01.042-.052.075-.106.07-1.468-.102-2.744.057-3.818.479a3.519 3.519 0 0 1-2.372.073C7.826 68.538 3.966 67.743-.88 66.803c-.697-.135-1.173-.758-1.067-1.402l.002-.014c.251-1.529.684-3.307 1.142-5.146" fill="#85B496"/><path d="M.007 49.83c7.386 2.392 12.275 4.086 17.665 4.525v.01c-2.893-.15-5.869-.165-8.888-1.02-2.682-.757-5.302-2.389-8.777-3.514" fill="#73A185"/><path d="M25.214 59.664v.014-.014m-.06 2.315l.093.014-.093-.014" fill="#FAFCFC"/><path d="M25.214 59.213v.437a.04.04 0 0 1 0 .007v.007a61243.636 61243.636 0 0 0 0 .022v.038c.003.496.012 1.218.033 2.27l-.092-.014c.017-2.139.047-2.65.059-2.766" fill="#83B399"/><path d="M25.404 59.227c.034-.48.046-.528.046-.528s-6.926-.696-7.105-4.296a29.03 29.03 0 0 1-.667-.077c.202 4.224 7.61 4.89 7.726 4.9" fill="#A7D7DD"/><path d="M25.402 59.226l.004.001-.007.044.002-.035.001-.01" fill="#FAFCFC"/><path d="M25.404 59.227l-.001.01v-.01" fill="#83B399"/><path d="M-4.744 68.89c7.652 1.322 12.771 2.094 17.722 4.29-4.951-2.196-10.07-2.968-17.722-4.29" fill="#E7EBE4"/><g transform="rotate(104 -12.285 34.048)"><mask id="d" fill="#fff"><use xlink:href="#c"/></mask><path d="M19.816 18.302c-.251-3.644-1.201-6.58-1.288-9.366-.098-3.137.607-6.027 1.162-8.87l.01.002c-.878 5.335-.418 10.49.116 18.234" fill="#73A185" mask="url(#d)"/><path d="M19.519 18.302l-.03-.558c-1.269 1.102-6.023 1.074-9.698 1.074h-.009c-3.674 0-8.429.028-9.697-1.074l-.03.558c1.224 1.13 6.028 1.1 9.732 1.1 3.704 0 8.508.03 9.732-1.1" fill="#A7D7DD" mask="url(#d)"/></g><path d="M23.205 69.796l.088.031-.088-.03m.083.04l.005-.01a.123.123 0 0 0-.005.01" fill="#FAFCFC"/><path d="M21.959 72.266c.045-.108.258-.574 1.246-2.47l.088.031-.005.01a121.277 121.277 0 0 0-1.329 2.429" fill="#83B399"/><path d="M22.134 72.343c-.196.44-.208.488-.208.488s-6.442-2.637-8.29.458c-.2-.082-.409-.164-.625-.246 2.162-3.634 9.015-.746 9.123-.7" fill="#A7D7DD"/><path d="M22.129 72.354l.018-.04-.014.042-.004-.002" fill="#FAFCFC"/><path d="M23.033 70.386l.26-.559c-.209-1.27-.463-1.944.082-4.14.55-2.195 1.159-2.97 1.872-3.694.01-.22.021-.424.032-.616-3.54-.386-5.58.721-6.307 3.208v.004l-.002.004c-.526 2.537.756 4.473 4.063 5.793" fill="#6C8F77"/><path d="M23.033 70.386l.26-.559c-3.025-1.175-4.16-2.866-3.615-5.062.549-2.195 2.346-3.155 5.569-2.772.01-.22.021-.424.032-.616-3.54-.386-5.58.721-6.307 3.208v.004l-.002.004c-.526 2.537.756 4.473 4.063 5.793" fill="#A7D7DD"/></g></svg>