<svg width="27" height="18" viewBox="0 0 27 18" xmlns="http://www.w3.org/2000/svg"><g fill="none" fill-rule="evenodd"><path fill="#FED4AD" d="M.245 17.418h26.16V2.238H.244z"/><path fill="#FDB883" d="M2.153 1.92H5.06V.833H2.153z"/><path fill="#FDB883" d="M2.773 2.86H4.44V1.775H2.773zm14.531.282h6.74V.996h-6.74z"/><path d="M17.957 11.003c0-2.595-2.114-4.7-4.722-4.7-2.61 0-4.723 2.105-4.723 4.7s2.114 4.699 4.723 4.699c2.608 0 4.722-2.104 4.722-4.7" fill="#EFDEBC"/><path d="M17.141 11.003c0-2.146-1.748-3.886-3.906-3.886-2.158 0-3.907 1.74-3.907 3.886 0 2.147 1.749 3.886 3.907 3.886s3.906-1.739 3.906-3.886" fill="#FDB883"/><path d="M14.37 11.003c0-.624-.508-1.13-1.135-1.13s-1.136.506-1.136 1.13c0 .624.509 1.13 1.136 1.13.627 0 1.135-.506 1.135-1.13" fill="#FFF"/><path fill="#FFFDED" d="M2.789 5.49h2.27V4.318H2.79z"/><path fill="#FDB883" d="M18.189 6.262h4.905V3.768h-4.905z"/><path d="M14.974 9.227a.348.348 0 1 0-.696 0 .348.348 0 0 0 .696 0" fill="#FFF"/></g></svg>