<svg width="29" height="24" viewBox="0 0 29 24" xmlns="http://www.w3.org/2000/svg"><g fill="none" fill-rule="evenodd"><path fill="#0E7B85" d="M8.201 22.214l.008-.071.441.046-.007.07-.442-.045m1.438.153l.006-.071.443.046-.007.07-.442-.045"/><path d="M26.274 23.974L.7 21.255a.373.373 0 0 1-.33-.407L2.106 3.246c.02-.203.2-.35.403-.329l25.573 2.72c.203.02.351.203.331.406l-1.736 17.602c-.02.203-.2.35-.403.329" fill="#93CCF8"/><path d="M6.454 3.337s-1.03 3.756-4.75 3.982l.347-3.517c.05-.51.5-.88 1.006-.827l3.397.362zm21.079 2.241l-3.406-.362s.278 3.887 3.885 4.89l.347-3.51a.933.933 0 0 0-.826-1.018M1.252 21.314l3.412.362s-.281-3.868-3.896-4.87L.424 20.3c-.05.506.32.96.828 1.015" fill="#ECF6FE"/><path d="M8.851 7.5a.288.288 0 1 1-.573-.058.288.288 0 0 1 .573.058" fill="#603913"/><path fill="#2299FC" d="M8.75 22.11l-2.177-.23L8.382 3.541l2.177.231L8.75 22.111"/><path d="M8.719 11.276a1.106 1.106 0 0 1-.981-1.207l.644-6.527 2.177.231-.644 6.527a1.086 1.086 0 0 1-1.196.976" fill="#59B0F3"/><path d="M9.529 5.984a.289.289 0 1 1-.574-.059.289.289 0 0 1 .574.06m.155-1.573a.288.288 0 1 1-.573-.058.288.288 0 0 1 .573.058M20.51 23.361l-2.177-.231L20.14 4.792l2.178.231-1.809 18.338" fill="#2299FC"/><path d="M20.479 12.526a1.106 1.106 0 0 1-.981-1.207l.643-6.527 2.178.231-.644 6.528a1.086 1.086 0 0 1-1.196.975" fill="#59B0F3"/><path d="M21.289 7.234a.288.288 0 1 1-.574-.058.288.288 0 0 1 .574.058m.155-1.571a.288.288 0 1 1-.574-.06.288.288 0 0 1 .574.06" fill="#2299FC"/><path d="M17.66 12.872c-.034.353-1.459.49-3.182.307-1.723-.183-3.091-.618-3.057-.97.035-.353 1.46-.49 3.183-.307 1.723.183 3.092.618 3.057.97" fill="#ECF6FE"/><path fill="#7ABFF5" d="M13.042 4.037l-.958-.102.19-1.92.957.1-.19 1.922m5.489.583l-.959-.101.19-1.921.958.101-.19 1.922"/><path d="M18.72 2.7l-6.447-.686c-.267-.521-.226-1.024.149-1.506l6.446.685c.177.487.147.987-.149 1.506" fill="#59B0F3"/></g></svg>