<svg width="43" height="40" viewBox="0 0 43 40" xmlns="http://www.w3.org/2000/svg">
    <g fill="none" fill-rule="evenodd">
        <path d="M13.426.988c2.704-.84 4.773-1.017 7.148.35 2.374 1.365 6.636 4.503 8.542 5.942 1.907 1.44 6.478 4.927 8.35 5.832 1.871.906 6.347 3.225 4.136 7.512-.815 1.582-3.606 6.565-9.901 1.915-3.35-2.473-11.581-6.75-14.711-7.696-3.65-1.102-4.492-1.382-6.88-3.19-6.607-5 .613-9.826 3.316-10.665M1.154 26.616c.991 2.651 2.115 4.396 4.65 5.44 2.533 1.041 7.621 2.493 9.925 3.121 2.305.627 7.86 2.11 9.722 3.037 1.861.926 6.434 3.047 8.473-1.325.753-1.611 2.987-6.868-4.543-9.003-4.006-1.136-12.424-5.031-15.087-6.928-3.105-2.212-3.84-2.708-6.732-3.49-7.997-2.17-7.398 6.495-6.408 9.148" fill="#EEC187"/>
        <path d="M21.338 34.585l-2.369 1.104s-8.222-3.833-13.304-9.686c-.823-.947-1.452-2.352-.842-3.301.333-.517.847-1.638 5.474-.618 4.48.986 12.559 3.887 12.559 3.887l.613 2.843s-2.007-.692-3.663-1.317c-1.657-.626-3.875-1.4-5.782-2.098-13.753-5.04-2.674 3.562 2.445 6.51 2.05 1.18 4.869 2.676 4.869 2.676M32.09 12.06l-.577-2.548s-7.545-4.361-15.283-4.8c-1.254-.071-3.409.45-3.643 1.554-.878 4.119 13.356 12.125 13.356 12.125l2.666-1.172S18.516 11.07 16.797 9.445C14.244 7.03 15.751 6.83 17.86 7.083c2.485.3 6.634 1.736 9.134 2.763 2.187.9 5.095 2.215 5.095 2.215" fill="#C13B2B"/>
        <path d="M13.413 8.294a1.8 1.8 0 0 0 2.457-.664 1.798 1.798 0 1 0-3.117-1.793 1.8 1.8 0 0 0 .66 2.457M5.429 25.128c.86.496 1.96.198 2.455-.664a1.798 1.798 0 1 0-3.117-1.793 1.8 1.8 0 0 0 .662 2.457" fill="#FFFDED"/>
    </g>
</svg>
