<svg width="21" height="20" viewBox="0 0 21 20" xmlns="http://www.w3.org/2000/svg">
    <g fill="none" fill-rule="evenodd">
        <path d="M18.428 6.265L8.922 2.77l.298-.816 9.506 3.496-.298.816M7.368 2.198l-1.501-.553a1.295 1.295 0 0 0-.667-.06 1.387 1.387 0 0 1 1.616-.516l.85.312-.298.817" fill="#076D72"/>
        <path fill="#076D72" d="M8.922 2.77l-1.554-.572.297-.817 1.555.572-.298.816m10.981 4.288a1.293 1.293 0 0 0-.617-.476l-.858-.316.298-.816 1.554.571-.377 1.037"/>
        <path d="M16.264 18.674a1.298 1.298 0 0 1-1.667.777L1.178 14.516a1.307 1.307 0 0 1-.773-1.674L4.2 2.422a1.298 1.298 0 0 1 1.667-.777l13.419 4.936c.673.247 1.02.997.773 1.674l-3.795 10.419" fill="#FFC631"/>
        <path d="M15.864 17.87a1.297 1.297 0 0 1-1.666.777l-12.131-4.46a1.307 1.307 0 0 1-.774-1.675l3.324-9.126a1.297 1.297 0 0 1 1.667-.777l12.131 4.462c.674.248 1.02.997.773 1.674l-3.324 9.125" fill="#AA4900"/>
        <path fill="#FFF" d="M5.436 4.078l-3.254 8.934 4.483 1.649 3.254-8.935-1.106-.407-3.377-1.241"/>
        <path fill="#B9E5FA" d="M5.436 4.078l-3.254 8.934 1.106.407 3.255-8.935-.273-.1-.834-.306"/>
        <path fill="#FFF" d="M14.403 7.375L9.919 5.726l-3.254 8.935 4.483 1.649 3.255-8.935"/>
        <path fill="#B9E5FA" d="M13.296 6.968l-3.255 8.935 1.107.407 3.255-8.935-.274-.1-.833-.307m-4.006.429L7.524 8.971l-.757-4.404 1.895.697.626 2.133m.039.014l.336 2.347 3.408-2.873-1.895-.696L9.327 7.41"/>
        <path fill="#0089CF" d="M9.247 7.617L6.704 11.18l.514 2.008 1.682-1.2.347-4.371"/>
        <path d="M20.349 9.104a1.384 1.384 0 0 1-1.778.83L4.258 4.668a1.394 1.394 0 0 1-.825-1.786l.608-1.67A1.384 1.384 0 0 1 5.82.382l14.314 5.264a1.394 1.394 0 0 1 .824 1.786l-.608 1.671" fill="#FFC631"/>
        <path fill="#FAA519" d="M6.66 5.555l-1.554-.572L6.668.696l1.554.571-1.561 4.288M17.72 9.623l-1.553-.572 1.561-4.288 1.555.572-1.562 4.288m-4.116-3.946a.567.567 0 0 1-.728.34l-1.753-.645a.571.571 0 0 1 .39-1.072l1.753.645a.571.571 0 0 1 .338.732"/>
        <path d="M12.945 5.434a.302.302 0 0 1-.387.18l-.933-.342a.304.304 0 0 1 .208-.57l.932.343a.304.304 0 0 1 .18.389" fill="#FFF"/>
        <path d="M.334 13.758a4.214 4.214 0 0 1 0-.555v.555" fill="#B28A22"/>
    </g>
</svg>
