<svg width="58" height="39" viewBox="0 0 58 39" xmlns="http://www.w3.org/2000/svg">
    <g fill="none" fill-rule="evenodd">
        <path d="M33.89 9.654l-3.904 1.82L28.9 9.145a1.123 1.123 0 0 1 .55-1.49l1.859-.867a1.123 1.123 0 0 1 1.494.537l1.086 2.33" fill="#FCB783"/>
        <path d="M36.338 22.87a2.468 2.468 0 0 1-1.208 3.275 2.468 2.468 0 0 1-3.286-1.179 2.468 2.468 0 0 1 1.21-3.274 2.468 2.468 0 0 1 3.284 1.179" fill="#FAD66D"/>
        <path d="M54.54 6.137l2.986 6.404L30.915 24.95c-1.32.615-2.88.055-3.488-1.249l-1.529-3.279c-1.647-3.533-.585-7.747 2.55-10.12l10.505-7.948A10.324 10.324 0 0 1 46.998.396a10.192 10.192 0 0 1 3.777 1.45 10.094 10.094 0 0 1 3.765 4.291" fill="#93CCF8"/>
        <path d="M54.54 6.137l2.986 6.404-12.045 5.616a8.852 8.852 0 0 1-2.976-3.537c-2.087-4.476-.118-9.813 4.4-11.92a9.055 9.055 0 0 1 3.87-.853 10.094 10.094 0 0 1 3.765 4.29" fill="#ECF6FE"/>
        <path d="M23.992 22.477l.686 1.471c-2.54 1.185-4.73 2.888-7.846-.168-4.204-4.11-3.11-10.911-5.02-15.617C9.86 3.355 5.11 2.818 2.881 5.656c-3.912 4.926 5.865 20.103 9.658 25.023l-1.525.711C7.09 26.245-3.088 10.6 1.593 4.655c3-3.821 9.31-3.082 11.74 2.891 2.002 4.903.932 11.43 4.655 15.071 2.201 2.16 3.282 1.13 6.004-.14" fill="#F7C23E"/>
        <path d="M25.556 24.61l1.885-.88-1.525-3.27-1.885.88a.79.79 0 0 0-.384 1.048l.858 1.842a.79.79 0 0 0 1.051.38" fill="#FAD66D"/>
        <path fill="#FBB783" d="M13.42 29.837l-3.49 1.628-2.81 4.053 11.21-5.227-4.91-.454"/>
        <path d="M14.77 31.951l-4.368 2.037-.244-.522a.67.67 0 0 1 .328-.89l3.149-1.467a.67.67 0 0 1 .891.32l.244.522" fill="#FFF"/>
        <path d="M19.538 32.882l-11.21 5.227a.94.94 0 0 1-1.25-.449l-.417-.896a.94.94 0 0 1 .46-1.246l11.21-5.227a.94.94 0 0 1 1.249.449l.418.896a.94.94 0 0 1-.46 1.246" fill="#FAD66D"/>
        <path fill="#E4E2DD" d="M8.533 38.548l1.399-.652-.205-.439-1.398.652zm1.962-.915l1.399-.652-.205-.439-1.398.652zm1.963-.915l1.398-.652-.204-.439-1.399.652zm1.962-.915l1.398-.652-.204-.439-1.399.652zm1.962-.915l1.399-.652-.205-.439-1.398.652zm1.962-.915l1.399-.652-.205-.44-1.398.653z"/>
        <path d="M57.127 7.802c1.645 3.527.093 7.732-3.466 9.391-3.559 1.66-7.777.146-9.422-3.381-1.644-3.527-.092-7.731 3.466-9.39 3.56-1.66 7.777-.147 9.422 3.38" fill="#FCB783"/>
        <path d="M54.513 9.021c.977 2.097.055 4.595-2.06 5.581-2.115.987-4.622.087-5.6-2.01-.977-2.095-.055-4.594 2.06-5.58 2.116-.987 4.622-.087 5.6 2.01" fill="#FEFEFF"/>
    </g>
</svg>
