<svg width="46" height="48" viewBox="0 0 46 48" xmlns="http://www.w3.org/2000/svg" xmlns:xlink="http://www.w3.org/1999/xlink">
    <defs>
        <path id="a" d="M28.813 36.54V.175H.442V36.54h28.371z"/>
    </defs>
    <g fill="none" fill-rule="evenodd">
        <path d="M35.202 2.168l-.694-.199v-.001l-2.564-.736v.002l-.495-.142c-.641-.184-1.906-.683-2.417 1.883-.585 2.934-1.233 10.271-1.516 13.699l-.87 3.035 2.565.735.586-2.043c1.227-2.364 5.27-10.222 6.457-13.355.927-2.448-.41-2.694-1.052-2.878" fill="#445E73"/>
        <path d="M26.236 40.544c2.517.81 5.5 1.59 7.182 1.397 1.592-7.615 1.323-13.345 4.186-18.725.766-3.11 3.174-10.079 5.093-13.147a441.807 441.807 0 0 0-5.6-5.201l-10.231 17.07-3.749 12.695a4.784 4.784 0 0 0 3.119 5.91" fill="#49647F"/>
        <path d="M26.577 21.854s7.5-5.58 11.086-10.117a.333.333 0 0 0-.083-.487 31.673 31.673 0 0 1-1.52-1.047.142.142 0 0 1 .081-.256l1.454-.025a.44.44 0 0 0 .431-.422l.137-3.474s-1.33-2.604-1.932-3.358c.98 1.58-9.654 19.186-9.654 19.186" fill="#4E6C87"/>
        <path d="M18.975 38.461c-2.564-.646-5.507-1.566-6.831-2.62 2.685-7.301 5.95-12.019 6.373-18.099.998-3.042 2.648-10.229 2.647-13.847a452.944 452.944 0 0 1 7.505-1.444l-.368 19.898-3.549 12.753a4.784 4.784 0 0 1-5.777 3.36" fill="#49647F"/>
        <path d="M23.176 37.527l.107-.095a4.77 4.77 0 0 0 1.469-2.33l3.549-12.753.014-.789c.005-.23.01-.505.018-.82l.107-.07.27 1.087c.146.59-.016 1.027-.18 1.613l-3.3 11.86c-.217.758-1.09 1.71-1.783 2.148a2.35 2.35 0 0 1-.263.145l-.002.001h-.002l-.004.003m5.163-17.035v-.002l.048-.037-.048.039" fill="#425B74"/>
        <path d="M28.337 20.592l.007-.311.063.255-.07.056" fill="#46627A"/>
        <path d="M23.283 37.432l.037-.035c.36-.32.674-.695.927-1.119a.358.358 0 0 1-.01.011c.201-.33.363-.688.47-1.073l3.594-12.867-3.549 12.753a4.77 4.77 0 0 1-1.47 2.33m5.019-15.083c0-.007.004-.29.014-.789l-.014.789" fill="#425B74"/>
        <path d="M27.828 41.152a35.746 35.746 0 0 1-1.633-.512 3.31 3.31 0 0 1 .012.003c.527.179 1.076.353 1.63.512l-.01-.003" fill="#DBDEDC"/>
        <path d="M27.869 41.042a54.137 54.137 0 0 1-1.633-.498 4.79 4.79 0 0 1-1.165-.557c-1.219-.81-1.752-2.004-1.895-2.46l.004-.002h.002c0-.002.001-.002.002-.002.083-.038.172-.087.263-.145a4.952 4.952 0 0 0 2.817 2.288c.544.175 1.11.349 1.679.512 2.102.603 4.262 1.068 5.627.946-.053.269-.108.54-.165.813-1.325.152-3.46-.3-5.536-.895" fill="#425B74"/>
        <path d="M23.151 37.625l.003-.001h-.003m.006-.002" fill="#3C546A"/>
        <path d="M17.323 38.018l-.003-.001h.003m1.543.417c.004 0 .007.002.01.003l-.01-.003m.109.027l.013.004-.013-.004m.018.005l.01.002-.01-.002m.014.003l.01.003-.01-.003m.014.004l.01.002a.071.071 0 0 1-.01-.002m.014.003l.014.003c-.005 0-.01-.002-.014-.003m.014.003l.013.004-.013-.004m.017.005l.01.002-.01-.002m.015.003l.009.002-.01-.002m.015.003l.01.002-.01-.002m.014.003l.013.003a.15.15 0 0 1-.013-.003m.015.004l.012.002-.012-.002m.017.003l.009.002-.01-.002m.015.003l.008.002-.008-.002m.014.003l.008.002a.053.053 0 0 1-.008-.002m.014.003l.013.003-.013-.003m.017.004c.003 0 .006 0 .009.002l-.009-.002m.016.003a.03.03 0 0 0 .006 0h-.006m.013.003h.007a.028.028 0 0 0-.007 0m.014.002l.006.001-.006-.001m.014.003h.002-.002m.047.008l.004.001h-.004m.014.002h.001-.001m.048.008h.002-.002m-7.172-2.663l-.03-.023.03.023m-.034-.026l-.006-.006.006.006m.002-.061v-.003.003" fill="#DBDEDC"/>
        <path d="M17.323 38.018l-.003-.001c-2.046-.587-4.067-1.32-5.126-2.137l-.03-.023-.004-.003-.006-.006-.01-.007a.361.361 0 0 1 .012-.033l.006-.015v-.003c.09-.245.182-.486.273-.726 1.093.826 3.17 1.576 5.274 2.18a55.8 55.8 0 0 0 1.695.455 4.916 4.916 0 0 0 4.833-1.41c-.254.416-.57.786-.917 1.108a4.773 4.773 0 0 1-3.94 1.148h-.001l-.011-.002h-.002l-.047-.008h-.001l-.01-.002h-.004l-.009-.002-.004-.001a.07.07 0 0 1-.01-.002.01.01 0 0 1-.003 0l-.02-.004h-.001l-.008-.002-.006-.001-.007-.001a.03.03 0 0 0-.007-.001l-.007-.002-.006-.001-.007-.001-.009-.002-.004-.001-.013-.003-.006-.001a.053.053 0 0 1-.008-.002l-.006-.001-.008-.002-.005-.001-.01-.002h-.004l-.012-.003-.002-.001-.013-.003h-.005c-.003-.002-.006-.002-.01-.003h-.004a.017.017 0 0 0-.01-.003l-.004-.001-.01-.002-.004-.001-.013-.004c-.005 0-.01-.002-.014-.003l-.004-.001a.071.071 0 0 1-.01-.002l-.005-.001-.009-.003h-.005c-.003-.002-.006-.002-.01-.003l-.004-.001-.013-.004-.098-.024-.011-.003-.043-.011a55.455 55.455 0 0 1-1.5-.405" fill="#425B74"/>
        <path d="M23.32 37.397c.39-.31.74-.67 1.015-1.08l.012-.01a4.432 4.432 0 0 1-1.027 1.09" fill="#3C546A"/>
        <path d="M28.3 22.349s-3.403-8.708-4.04-14.455a.333.333 0 0 1 .329-.37c.662-.005 1.397-.05 1.844-.082.135-.009.18-.185.066-.26l-1.22-.791a.44.44 0 0 1-.141-.587l1.725-3.018S29.37 1.282 30.28.962c-1.669.82-1.98 21.387-1.98 21.387" fill="#4E6C87"/>
        <path d="M36.377 10.432a39.475 39.475 0 0 1-.316-.228.142.142 0 0 1 .081-.256l1.454-.025a.44.44 0 0 0 .431-.423l.136-3.47c.152.289.249.478.249.478l-.136 3.474a.44.44 0 0 1-.431.423l-1.454.025-.014.002M28.44 20.67l-.053-.216c2.45-1.946 6.798-5.58 9.277-8.717l.003-.006a.338.338 0 0 0 .042-.072l.002-.004.118.077a.336.336 0 0 1 .083.487c-2.584 3.563-6.982 6.787-9.472 8.45" fill="#425B74"/>
        <path d="M37.656 11.768l.062-.106a.501.501 0 0 1-.062.106" fill="#46627A"/>
        <path d="M28.324 20.884l.009-.37.07-.056.08.32-.16.106" fill="#3C546A"/>
        <path d="M28.328 20.864l.009-.37a.012.012 0 0 1 .003-.002l-.009.37c-.001 0-.002 0-.003.002" fill="#46627A"/>
        <path d="M27.574 17.39a.2.2 0 0 1-.137-.136c-.856-2.582-1.839-5.92-2.245-8.678a.434.434 0 0 1 .411-.496c.36-.015.703-.036.973-.055a.72.72 0 0 0 .635-.472.7.7 0 0 0-.28-.816l-.672-.436a.434.434 0 0 1-.14-.58l1.103-1.93c.104-.18.253-.332.434-.438.245-.144.578-.336.933-.535a.223.223 0 0 1 .328.238 27.109 27.109 0 0 0-.27 1.718c-.22 1.703-.411 4.018-.568 6.877a255.848 255.848 0 0 0-.235 5.544c-.005.155-.151.229-.27.194m2.258.701c-.12-.034-.205-.173-.127-.308.834-1.437 1.797-3.12 2.738-4.826 1.383-2.508 2.448-4.572 3.164-6.134.281-.613.508-1.143.682-1.6a.222.222 0 0 1 .403-.027c.195.356.376.695.508.948.097.185.144.393.135.602l-.087 2.22a.434.434 0 0 1-.426.418l-.8.014a.7.7 0 0 0-.67.544.72.72 0 0 0 .288.736c.218.159.498.358.796.563a.434.434 0 0 1 .086.638c-1.807 2.124-4.409 4.433-6.503 6.17a.2.2 0 0 1-.187.042" fill="#53708A"/>
        <path d="M29.17 6.505l.007-.313c.182-2.504.475-4.46.939-5.054a.734.734 0 0 1 .136-.116c-.556.403-.888 2.617-1.082 5.483" fill="#3E5669"/>
        <path d="M29.202 6.199c.052-2.525.357-4.462.927-5.057-.471.592-.758 2.55-.927 5.057" fill="#46627A"/>
        <path fill="#3E5669" d="M34.505 1.968l.005.002v-.002l-.004-.001zm-2.967-.85l-.005-.002-.267-.078.272.08m4.682 1.656c-.218-.35-.552-.473-.83-.553l-.008-.002.01.003c.276.079.608.202.826.546l.001.006m.032-.091l-.003-.005.002.003.001.002m.029.051a.121.121 0 0 1-.012-.015.48.48 0 0 0-.021-.04l.008.01a.61.61 0 0 1 .024.045"/>
        <path d="M34.533 7.63c1.296-2.424 2.11-4.35 1.788-4.907a.1.1 0 0 0 .01.01c.386.657-.397 2.56-1.798 4.897" fill="#46627A"/>
        <path d="M30.234.998l.003-.003.044-.015-.047.018" fill="#3E5669"/>
        <path d="M30.068 1.1l.085-.04.107-.042.04-.014-.003.003a5.824 5.824 0 0 0-.23.092" fill="#46627A"/>
        <path d="M36.442 2.936l-.057-.08-.069-.092-.052-.068c.064.072.124.152.178.24" fill="#3E5669"/>
        <path d="M30.27.98l.02-.008-.004.003-.016.005" fill="#DBDEDC"/>
        <path d="M30.268.98l.003-.001.016-.005-.02.006" fill="#3E5669"/>
        <path fill="#DBDEDC" d="M30.287.971L30.3.967l-.004.003-.008.001m5.983 1.733l-.02-.021-.005-.01.025.031"/>
        <path d="M36.271 2.703l-.021-.023.02.02.001.003" fill="#3E5669"/>
        <path fill="#DBDEDC" d="M30.284.971h.002l.003-.002-.005.002m1.661.264l-.005-.002v-.002l.005.002v.002"/>
        <path d="M31.945 1.235l-.005-.002.005.002v-.002.002" fill="#3E5669"/>
        <path d="M35.203 2.169l-.005-.002.196.055-.182-.05-.009-.003" fill="#DBDEDC"/>
        <path d="M35.203 2.169l-.005-.002.005.002.009.002-.009-.002m.01.002l.181.051.077.022-.259-.073" fill="#3E5669"/>
        <path d="M30.262 1.065l.004-.004c.33-.158.644-.117.904-.05-.262-.067-.577-.108-.908.054" fill="#DBDEDC"/>
        <path d="M30.262 1.066c.331-.163.646-.122.908-.055l.086.024.01.003-.008-.002c-.277-.08-.626-.152-.996.03m-.048-.025l.088-.06.011-.003-.099.063M28.398 18.78c.098-3.354.299-8.424.677-12.303-.148 2.729-.076 6.075.246 9.117 1.878-2.44 3.74-5.292 5.073-7.71-1.736 3.506-4.286 7.97-5.996 10.897" fill="#3E5669"/>
        <path d="M28.397 18.806v-.025c1.711-2.926 4.26-7.391 5.997-10.898l.14-.253c-1.742 3.55-4.384 8.178-6.137 11.176" fill="#46627A"/>
        <path d="M30.24.992a.062.062 0 0 1 .007-.005l.028-.009-.035.014" fill="#DBDEDC"/>
        <path d="M30.063 1.102a1.7 1.7 0 0 1 .243-.097l-.046.017-.106.043-.09.037" fill="#46627A"/>
        <path d="M36.438 2.935a6.668 6.668 0 0 0-.177-.24l.057.07.068.092.052.078" fill="#3E5669"/>
        <path fill="#DBDEDC" d="M30.263.983l.04-.014-.01.006-.03.008"/>
        <path fill="#3E5669" d="M36.266 2.701l-.013-.013-.003-.007.016.02"/>
        <path d="M36.249 2.678c-.002 0-.003-.003-.005-.004l-.001-.002.006.006" fill="#DBDEDC"/>
        <path d="M36.25 2.68l-.005-.005-.001-.002.004.005.003.002" fill="#3E5669"/>
        <path d="M26.042 7.468l-.009-.009-1.22-.792a.44.44 0 0 1-.142-.586l1.726-3.018s.182-.11.465-.275l-1.724 3.016a.439.439 0 0 0 .142.587l1.219.792a.14.14 0 0 1 .059.158.139.139 0 0 1-.125.101 49.51 49.51 0 0 1-.39.026" fill="#425B74"/>
        <path d="M25.125 5.828a.277.277 0 0 1 .013-.024l1.724-3.016-1.724 3.016a.277.277 0 0 0-.013.024" fill="#46627A"/>
        <path d="M28.3 22.349c-.03-.058-4.067-7.824-4.505-14.179a.337.337 0 0 1 .327-.369c.047 0 .094 0 .142-.002a.344.344 0 0 0-.003.095c.013.123.028.248.044.374.734 5.723 3.973 14.023 3.996 14.08" fill="#425B74"/>
        <path d="M28.3 22.349c-.022-.058-3.261-8.358-3.995-14.08.734 5.73 3.982 14.043 3.996 14.08M24.26 7.894a.344.344 0 0 1 .003-.095l-.003.095" fill="#46627A"/>
        <path d="M27.06 23.543a.646.646 0 1 1 .357-1.241.646.646 0 0 1-.358 1.241m-1.329 4.635a.646.646 0 1 1 .358-1.241.646.646 0 0 1-.358 1.241m-1.353 4.719a.646.646 0 1 1 .357-1.242.646.646 0 0 1-.357 1.242" fill="#425B74"/>
        <path d="M27.765 22.868a.646.646 0 1 1-1.242-.355.646.646 0 0 1 1.242.355m-1.329 4.635a.646.646 0 1 1-1.242-.355.646.646 0 0 1 1.242.355m-1.353 4.719a.646.646 0 1 1-1.242-.355.646.646 0 0 1 1.242.355" fill="#4E6C87"/>
        <path d="M4.554 36.96c-1.906-.86-3.21-1.667-4.174-3.27a.468.468 0 0 1-.005-.47C6.751 21.952 17.655 5.13 21.163 3.894c3.076 1.707-2.647 13.847-2.647 13.847S10.538 28.202 5.14 36.781a.467.467 0 0 1-.587.177" fill="#49647F"/>
        <path d="M4.554 36.96c-1.906-.86-3.21-1.667-4.174-3.27a.468.468 0 0 1-.005-.47C6.751 21.952 17.655 5.13 21.163 3.894c3.076 1.707-2.647 13.847-2.647 13.847S10.538 28.202 5.14 36.781a.467.467 0 0 1-.587.177" fill="#49647F"/>
        <path d="M4.617 36.982a.47.47 0 0 1-.063-.023c-1.89-.853-3.19-1.651-4.15-3.23.96 1.578 2.26 2.377 4.15 3.23a.47.47 0 0 0 .587-.178c4.314-6.854 10.275-14.912 12.496-17.873-2.774 3.752-8.93 12.207-12.496 17.873a.467.467 0 0 1-.524.201M.403 33.728" fill="#DBDEDC"/>
        <path d="M4.617 36.982a.47.47 0 0 1-.063-.023c-1.89-.853-3.19-1.652-4.15-3.23a18.183 18.183 0 0 1-.023-.038l-.04-.09c.785.788 1.77 1.493 2.815 1.831l.06.02c.77.22 1.545-.098 2.103-.684.65-.681 9.163-12.181 12.318-15.86-2.22 2.96-8.182 11.019-12.496 17.873a.468.468 0 0 1-.524.201m13.9-19.24s1.706-3.618 2.755-7.183c-.509 1.971-1.36 4.367-2.755 7.183m3.446-12.647c-.13-.552-.386-.97-.8-1.2l.639-.128s.123.445.16 1.328" fill="#425B74"/>
        <path d="M18.517 17.742c3.668-9.697 2.647-13.847 2.647-13.847.413.23.668.648.799 1.2.047 1.119-.042 2.943-.691 5.464-1.049 3.565-2.755 7.183-2.755 7.183" fill="#425B74"/>
        <path d="M3.035 28.644C8.083 20.157 14.545 10.331 18.55 6.03a29.842 29.842 0 0 1-3.946 9.874c-2.324 3.73-5.183 8.44-8.262 11.616a3.826 3.826 0 0 1-3.307 1.124" fill="#4F6983"/>
        <path d="M20.001 29.504l-5.146.418a.267.267 0 0 1-.259-.39l1.092-2.122a.775.775 0 0 1 .568-.412l5.055-.8a.242.242 0 0 1 .267.318l-.819 2.397a.877.877 0 0 1-.758.591" fill="#4E6C87"/>
        <path d="M14.45 30.355a.254.254 0 0 1-.039-.015l.225-.505a.265.265 0 0 0 .219.087l1.654-.135-.204.435-1.76.142a.27.27 0 0 1-.094-.009" fill="#425B74"/>
        <path d="M14.819 29.95a.394.394 0 0 1-.183-.114v-.001a.39.39 0 0 0 .183.115" fill="#46627A"/>
        <path d="M17.986 34.986c-.57-.164-1.385-.472-2.077-.747a1.32 1.32 0 0 1-.696-1.806c.281-.578.671-1.324 1.092-2.211l3.387-.275a.875.875 0 0 0 .758-.59l.01-.028a.876.876 0 0 0 .3-.416l.818-2.397a.243.243 0 0 0-.267-.318l-3.585.568c.085-.25.167-.503.245-.762 1.102-3.625 1.616-6.523 1.835-7.405a2.93 2.93 0 0 1 .202-.56l2.462-5.115a.418.418 0 0 1 .502-.225.413.413 0 0 1 .303.367l.985 10.047a8.488 8.488 0 0 1-.161 3.644l-1.658 6.218c-.513 1.568-2.114 2.516-3.728 2.189a9.502 9.502 0 0 1-.727-.178" fill="#4F6983"/>
        <path d="M16.509 29.787c.411-.892.84-1.908 1.217-3.021l3.585-.568a.243.243 0 0 1 .267.318l-.819 2.397a.876.876 0 0 1-.3.416h.001a.88.88 0 0 1-.459.175l-3.492.283" fill="#53708A"/>
        <path d="M16.305 30.222l.204-.435L20 29.504a.879.879 0 0 0 .459-.175l-.01.027a.875.875 0 0 1-.758.59l-3.387.276" fill="#486078"/>
        <g transform="rotate(16 -5.406 96.894)">
            <mask id="b" fill="#fff">
                <use xlink:href="#a"/>
            </mask>
            <path d="M23.755 36.536c2.068-.301 3.544-.716 4.911-1.991a.466.466 0 0 0 .134-.45C25.778 21.505 19.932 2.33 16.902.174c-3.428.793-1.273 14.04-1.273 14.04s4.786 12.255 7.61 21.989a.467.467 0 0 0 .516.333" fill="#49647F" mask="url(#b)"/>
            <path d="M23.755 36.536c2.068-.301 3.544-.716 4.911-1.991a.466.466 0 0 0 .134-.45C25.778 21.505 19.932 2.33 16.902.174c-3.428.793-1.273 14.04-1.273 14.04s4.786 12.255 7.61 21.989a.467.467 0 0 0 .516.333" fill="#49647F" mask="url(#b)"/>
        </g>
        <path d="M39.195 46.898a.467.467 0 0 1-.336-.448c-.022-6.694-.762-17.127-1.127-21.78.315 3.688 1.1 13.68 1.127 21.78a.467.467 0 0 0 .403.462c1.412.191 2.574.256 3.698.009-1.124.247-2.287.182-3.699-.01a.467.467 0 0 1-.066-.013m3.765.023l.058-.013-.058.013m.06-.013l.036-.01-.036.01m1.474-.538" fill="#DBDEDC"/>
        <path d="M39.196 46.897a.467.467 0 0 1-.337-.447c-.027-8.1-.812-18.092-1.127-21.78.726 4.792 1.852 19.056 2.042 19.977.163.794.652 1.474 1.421 1.695l.061.016c1.066.267 2.275.19 3.358-.061l-.082.055a1.95 1.95 0 0 0-.038.019h-.002a6.674 6.674 0 0 1-.934.387h-.001a6.367 6.367 0 0 1-.304.09l-.01.004a5.774 5.774 0 0 1-.187.047l-.036.009h-.002l-.058.013c-1.124.247-2.286.182-3.698-.01a.477.477 0 0 1-.066-.014m-1.592-23.681c.309-3.128.857-5.611 1.47-7.552-1 3.578-1.47 7.552-1.47 7.552m3.78-12.553c.5-.728.84-1.04.84-1.04l.473.446c-.472-.024-.91.196-1.313.594" fill="#425B74"/>
        <path d="M37.604 23.216s.47-3.974 1.47-7.552c.785-2.482 1.676-4.077 2.31-5 .403-.4.84-.619 1.313-.595 0 0-3.065 2.979-5.093 13.147" fill="#425B74"/>
        <path d="M44.956 40.665a3.824 3.824 0 0 1-2.209-2.706c-.928-4.324-.857-9.834-.85-14.23a29.84 29.84 0 0 1 1.886-10.464c1.117 5.77 1.39 17.528 1.173 27.4" fill="#4F6983"/>
        <path d="M30.11 32.408l4.144 3.081a.267.267 0 0 0 .426-.192l.199-2.38a.776.776 0 0 0-.264-.65l-3.863-3.357a.242.242 0 0 0-.395.128l-.576 2.467c-.08.34.05.695.33.903" fill="#4E6C87"/>
        <path d="M34.367 36.07a.26.26 0 0 1-.085-.041l-1.417-1.054c.018-.155.037-.314.058-.476l1.331.99a.267.267 0 0 0 .231.043l-.076.547a.26.26 0 0 1-.042-.008" fill="#425B74"/>
        <path d="M34.38 35.564a.397.397 0 0 1-.001 0" fill="#46627A"/>
        <path d="M28.915 38.124a9.283 9.283 0 0 1-.711-.234c-1.542-.577-2.398-2.23-2.002-3.831l1.89-6.153a8.502 8.502 0 0 1 1.793-3.175l6.16-7.999a.414.414 0 0 1 .452-.15.417.417 0 0 1 .306.456l-.622 5.644a2.868 2.868 0 0 1-.126.581c-.281.864-1.38 3.594-2.368 7.252-.07.261-.135.52-.196.776l-2.74-2.38a.24.24 0 0 0-.394.127l-.576 2.467a.878.878 0 0 0 .034.511l-.007.029c-.079.34.05.694.33.903l2.727 2.027c-.113.975-.178 1.815-.245 2.454a1.32 1.32 0 0 1-1.547 1.163c-.734-.134-1.589-.305-2.158-.468m4.008-3.625l-2.812-2.09-.013-.01.013.01 2.812 2.09m-2.825-2.101l-.003-.002.003.002m-.004-.003l-.002-.002.002.002m-.004-.003l-.001-.001.001.001m-.003-.003h-.001" fill="#4F6983"/>
        <path d="M32.923 34.499l-2.812-2.09-.013-.01v-.001l-.003-.002h-.001c0-.002-.002-.002-.002-.003h-.002l-.001-.002-.002-.002h-.001l-.003-.003a.878.878 0 0 1-.301-.88l.575-2.468a.243.243 0 0 1 .395-.128l2.74 2.38a30.859 30.859 0 0 0-.57 3.209" fill="#53708A"/>
        <path d="M32.865 34.975l-2.726-2.027a.878.878 0 0 1-.33-.903l.006-.029c.054.143.145.27.268.37l.003.002v.001l.003.002.001.001.002.001.002.002.004.003.013.01 2.812 2.09c-.021.163-.04.322-.058.477" fill="#486078"/>
        <path d="M30.235 32.584v-.001m-.004-.003l-.002-.001.002.001m-.005-.004l-.002-.002.002.002m-.005-.004s-.002 0-.003-.002l.003.002m-.004-.003l-.004-.003.004.003m-.004-.003" fill="#4C677F"/>
    </g>
</svg>
