<svg width="28" height="25" viewBox="0 0 28 25" xmlns="http://www.w3.org/2000/svg">
    <g fill="none" fill-rule="evenodd">
        <path d="M1.67 14.596C3.634 8.77 5.261 4.803 6.835 2.762c4.828 2.748 9.515 4.035 9.515 4.035L12.694 18.05l-.716 1.664s-7.66-1.32-10.308-5.117" fill="#AED5E7"/>
        <path d="M9.487 18.633c-1.688-.72-3.993-1.785-6.173-3.067.864-2.445 1.671-4.484 2.439-6.053.26-.53.837-.79 1.352-.622.036.012.071.025.106.04a67.22 67.22 0 0 0 4.075 1.672c.558.208.843.85.647 1.456l-1.693 5.21c-.157.482-.324.961-.5 1.437a27.974 27.974 0 0 1-.253-.073" fill="#B6D9E8"/>
        <path d="M17.53 3.296l-.079-.026C7.52.046 7.501.715 7.501.715l-.666 2.047s2.65 1.808 9.513 4.034l.002.001c6.86 2.233 10.067 2.328 10.067 2.328l.666-2.048s.377-.551-9.553-3.781" fill="#85B3C2"/>
        <path d="M11.647 5.113a44.765 44.765 0 0 1-4.812-2.35c-.672.87-1.353 2.093-2.067 3.66 2.704 1.333 5.274 1.868 6.879-1.31" fill="#A6CCE2"/>
        <path d="M4.761 6.446l.015-.032-.015.032m.018-.038l.002-.005a.015.015 0 0 0-.002.005" fill="#9EC3D9"/>
        <path d="M6.507 7.15a13.327 13.327 0 0 1-1.739-.726l.008-.016.001-.003.001-.003c.047-.102.093-.202.14-.3a12.9 12.9 0 0 0 1.537.629c1.919.623 3.668.47 4.913-1.624l.234.094c-1.254 2.403-3.08 2.604-5.095 1.95" fill="#98BDD3"/>
        <path d="M14.042 14.323c-.002 0-.154-.056-.36-.177-.081-.049-.19-.007-.24.093-.05.1-.025.221.057.27.23.136.401.198.408.2l.004.002c.089.029.188-.032.225-.137.037-.107-.005-.219-.094-.25m-1.176-1.986l.053-.164c.023-.073-.037-.158-.136-.19-.1-.032-.199 0-.222.074l-.053.163a1.476 1.476 0 0 0-.074.532c.003.066.062.127.14.152l.05.011c.102.011.181-.044.177-.123a1.274 1.274 0 0 1 .065-.455m.362 1.576a1.812 1.812 0 0 1-.398-.592.15.15 0 0 0-.208-.08.182.182 0 0 0-.085.227c.101.251.259.486.466.697l.06.037c.056.018.12.002.166-.049a.178.178 0 0 0 0-.24m-.005-3.148c-.122-.04-.24-.013-.263.06l-.205.632c-.024.072.056.163.177.203.122.04.24.013.263-.06l.205-.632c.024-.073-.055-.163-.177-.203m.577-1.028c.024-.073-.055-.163-.177-.203-.122-.04-.24-.013-.263.06l-.205.632c-.024.072.055.163.177.203.122.04.24.012.263-.06l.205-.632m.4-1.231c.024-.073-.055-.163-.177-.203-.122-.04-.24-.013-.263.06l-.205.632c-.024.072.055.163.177.203.122.04.24.012.263-.06l.205-.632m.4-1.231c.024-.073-.055-.164-.177-.203-.122-.04-.24-.013-.263.06l-.205.632c-.024.072.055.163.177.203.122.04.24.012.263-.06l.205-.632m-.263-.688c-.03.09.046.195.168.234.121.04.243-.001.273-.091l.106-.327-.439-.149-.108.333" fill="#CDEAF3"/>
        <path d="M16.11 6.815C8.037 4.16 6.834 2.762 6.834 2.762L7.5.715s1.108 1.478 9.246 4.158c.225.074.35.313.277.534l-.37 1.141a.428.428 0 0 1-.544.267" fill="#AED5E7"/>
        <path d="M13.99 5.616l-.007-.002c-3.94-1.346-5.706-2.391-6.448-2.942-.18-.134-.25-.387-.173-.623.098-.303.395-.463.652-.38a.44.44 0 0 1 .117.058c.992.677 2.833 1.65 6.217 2.81.26.088.395.396.3.688l-.004.012c-.096.296-.39.465-.654.38" fill="#B6D9E8"/>
        <path d="M4.695 7.256l.022.01c.089.028.19-.023.235-.122.05-.108.014-.233-.08-.28l-.235-.12-.169.397.227.115m6.656-.454l-.047-.027a.134.134 0 0 1-.012-.19 5.33 5.33 0 0 0 .394-.504.135.135 0 1 1 .222.153c-.132.19-.271.368-.414.53a.135.135 0 0 1-.143.038zm-1.004.834a.134.134 0 0 1-.026-.244 3.64 3.64 0 0 0 .517-.364.135.135 0 0 1 .173.207 3.922 3.922 0 0 1-.554.39.135.135 0 0 1-.11.011zm-1.229.436a.135.135 0 0 1 .02-.26c.21-.035.416-.087.611-.156a.135.135 0 1 1 .09.254c-.21.074-.43.13-.657.167l-.064-.005zm-1.31.014a.135.135 0 0 1 .059-.261c.22.026.434.04.638.038a.135.135 0 1 1 .002.27 5.317 5.317 0 0 1-.672-.041l-.026-.006zM5.907 7.59L5.9 7.588a14.009 14.009 0 0 1-.615-.248.135.135 0 1 1 .107-.247c.206.088.409.17.603.243a.135.135 0 0 1-.089.254zm.621.213a.135.135 0 0 1 .082-.256c.213.066.424.122.624.167a.135.135 0 1 1-.059.263 8.662 8.662 0 0 1-.645-.173h-.002zm5.477-2.197c-.056.1-.02.226.08.281l.038.017a.208.208 0 0 0 .246-.096c.046-.081.09-.167.135-.253l-.393-.15c-.035.068-.07.136-.106.2" fill="#CDEAF3"/>
        <path d="M26.344 9.117C20.83 8.5 16.289 6.79 16.289 6.79l-3.656 11.252-.399 1.767s6.948 3.422 11.324 1.927c1.837-5.87 2.855-10.038 2.786-12.62" fill="#AED5E7"/>
        <path d="M14.805 20.368l-.113-.04c.138-.493.286-.983.444-1.469l1.693-5.21c.197-.605.805-.957 1.378-.797 1.225.341 2.68.71 4.28 1.043.037.008.074.018.11.03.514.167.83.715.727 1.298-.3 1.717-.844 3.836-1.58 6.316-2.575-.245-5.13-.754-6.94-1.17" fill="#B6D9E8"/>
        <path d="M21.142 8.199c1.539.362 3.347.711 5.275.926.032 1.1-.136 2.49-.48 4.177-2.97-.512-5.365-1.59-4.795-5.103" fill="#A6CCE2"/>
        <path d="M25.932 13.325l.007-.037-.007.037m.008-.04c0-.002 0-.005.002-.007l-.002.008" fill="#E9EDEB"/>
        <path d="M24.103 12.868c-2.016-.655-3.376-1.892-2.975-4.577l.243.061c-.225 2.43 1.1 3.583 3.021 4.207a12.7 12.7 0 0 0 1.614.394c-.02.108-.042.215-.064.325l-.001.004v.001l-.004.019a13.289 13.289 0 0 1-1.834-.434" fill="#98BDD3"/>
        <path d="M15.974 6.772c8.566 2.783 10.443 2.353 10.443 2.353l.666-2.048s-1.845.556-10.477-2.248l-.632 1.943" fill="#AED5E7"/>
        <path d="M16.367 5.758a.644.644 0 1 1-1.224-.4.644.644 0 0 1 1.224.4" fill="#CDEAF3"/>
        <path d="M18.854 7.197c-.264-.086-.403-.396-.306-.692l.003-.012c.096-.292.385-.462.648-.38 3.419 1.05 5.48 1.345 6.681 1.381a.454.454 0 0 1 .129.022c.256.083.402.388.304.69-.077.236-.282.4-.506.402-.925.01-2.968-.182-6.946-1.41l-.007-.001" fill="#B6D9E8"/>
        <path d="M16.784 4.887l-.034-.012.29.095-.256-.083" fill="#7AA5B5"/>
        <path d="M16.756 4.878a.761.761 0 0 0-.043-.015l.073.023.033.013-.063-.02" fill="#9EC3D9"/>
        <path d="M16.497 6.94l-.402-.131c.265.077.534-.03.604-.246l.37-1.14c.07-.214-.077-.455-.331-.552l.04.013.16.053.042.013.127.04c.276.091.44.344.37.564l-.372 1.141c-.07.216-.339.322-.608.246" fill="#9EC3D9"/>
        <path d="M25.631 14.058l-.024-.005c-.088-.029-.14-.13-.118-.236.024-.117.126-.197.228-.18.087.015.174.028.262.042-.032.139-.063.278-.097.42l-.251-.04m-5.242-4.32l.054.005a.134.134 0 0 0 .121-.146 5.33 5.33 0 0 1-.022-.639.135.135 0 0 0-.132-.138.134.134 0 0 0-.138.132c-.005.23.003.456.024.67.005.055.043.1.093.116zm.322 1.264a.134.134 0 0 0 .164-.182 3.677 3.677 0 0 1-.204-.597.135.135 0 0 0-.262.064c.056.224.13.44.22.642a.136.136 0 0 0 .082.073zm.738 1.076a.135.135 0 0 0 .137-.222 3.535 3.535 0 0 1-.403-.486.135.135 0 0 0-.188-.035.134.134 0 0 0-.034.187c.126.183.272.36.433.522l.055.034zm1.05.78a.135.135 0 0 0 .108-.245 5.105 5.105 0 0 1-.54-.344.135.135 0 1 0-.16.216c.175.128.366.25.569.363l.024.01zm1.832.718l.006.002c.203.056.42.11.643.16a.135.135 0 1 0 .06-.262c-.22-.05-.432-.103-.632-.158a.135.135 0 0 0-.077.258zm-.628-.193a.135.135 0 0 0 .085-.255 8.23 8.23 0 0 1-.603-.232.135.135 0 1 0-.107.247c.195.084.404.164.623.24h.002zm-2.984-4.947a.207.207 0 0 1-.231.18l-.04-.008a.208.208 0 0 1-.143-.222c.011-.093.026-.189.04-.284l.405.11c-.01.075-.022.15-.031.224" fill="#CDEAF3"/>
        <path d="M14.66 12.35l1.434-5.539.33.107-1.765 5.432" fill="#9EC3D9"/>
        <path d="M13.985 14.283l.514-1.985 1.765-5.432.263.085.004.001.01.003.03.01-2.586 7.318" fill="#9EC3D9"/>
        <path d="M16.093 6.814l.002-.005.41.137-.183-.059-.229-.073m.42.135l.021.005-.02-.005" fill="#9EC3D9"/>
        <path d="M16.403 6.91H16.4l.013.004-.01-.003" fill="#90B5C9"/>
        <path d="M16.504 6.946a124.7 124.7 0 0 1-.41-.137l.441.143v.002l-.022-.005-.009-.003" fill="#90B5C9"/>
        <path d="M10.203 22.312c-1.702-.57-6.722-2.381-9.343-4.716a.916.916 0 0 1-.278-.9 8.667 8.667 0 0 1 .749-1.921.354.354 0 0 1 .506-.128c4.414 2.914 10.165 4.993 10.165 4.993l-.98 2.305a.66.66 0 0 1-.819.367" fill="#CDEAF3"/>
        <path d="M9.896 20.85a1.153 1.153 0 0 1-.053-.02c-1.456-.559-5.76-2.272-8.14-3.872-.23-.154-.348-.347-.314-.5.068-.308.251-.636.434-.856.05-.061.178-.07.305-.028a.564.564 0 0 1 .1.043C5.39 17.377 9.22 19 10.57 19.557a.47.47 0 0 1 .228.67l-.318.546c-.076.13-.324.16-.585.076" fill="#D6EFF5"/>
        <path d="M10.209 22.314c.346.112.715-.042.851-.357l.963-2.228-.963 2.228c-.136.315-.505.47-.851.357" fill="#E9F4F8"/>
        <path d="M11.952 19.786l.06-.143-.022-.007.023.007-.061.143" fill="#AED5E7"/>
        <path d="M6.336 20.821c-1.923-.844-4.053-1.957-5.476-3.225 1.423 1.268 3.553 2.381 5.476 3.225M.584 16.686l.001-.003v.003m.002-.01v-.003.003m.003-.012v-.002.002m.002-.011" fill="#E9F4F8"/>
        <path d="M10.209 22.314l-.006-.002a47.16 47.16 0 0 1-3.867-1.49c-1.923-.845-4.053-1.958-5.476-3.226a.925.925 0 0 1-.278-.9l.002-.01.001-.003.002-.007v-.003l.003-.01v-.001l.002-.009a7.23 7.23 0 0 1 .202-.66 5.968 5.968 0 0 0-.075.281.917.917 0 0 0 .277.9c2.622 2.336 7.641 4.146 9.344 4.717l.006.001a.66.66 0 0 0 .812-.369l.807-1.897.025.01.012.004-.98 2.305a.66.66 0 0 1-.813.369" fill="#C4E4EF"/>
        <path d="M12.14 22.942c1.714.539 6.839 2.024 10.332 1.676a.916.916 0 0 0 .754-.565 8.655 8.655 0 0 0 .523-1.994.354.354 0 0 0-.335-.4c-5.283-.238-11.157-1.937-11.157-1.937l-.562 2.442a.66.66 0 0 0 .446.778" fill="#CDEAF3"/>
        <path d="M13.249 21.938c-.26-.084-.444-.255-.429-.405l.065-.628a.47.47 0 0 1 .579-.409c1.418.344 5.47 1.283 9.064 1.717a.566.566 0 0 1 .107.024c.127.041.225.123.23.202a2.19 2.19 0 0 1-.152.947c-.063.145-.272.23-.548.22-2.866-.104-7.355-1.248-8.861-1.651a1.146 1.146 0 0 1-.055-.017" fill="#D6EFF5"/>
        <path d="M12.135 22.94a.66.66 0 0 1-.44-.776l.541-2.354-.54 2.354a.66.66 0 0 0 .439.776m3.639.986c2.13.485 4.685.893 6.698.692-2.013.2-4.567-.207-6.698-.692" fill="#E9F4F8"/>
        <path d="M12.216 19.897l.04-.174.023.006-.022-.006-.04.174" fill="#AED5E7"/>
        <path d="M12.135 22.94a.66.66 0 0 1-.44-.776l.541-2.354.02-.088.012.004.026.007-.462 2.01a.66.66 0 0 0 .44.775l.006.002c1.712.54 6.838 2.025 10.33 1.677a.917.917 0 0 0 .755-.566c.036-.087.07-.178.104-.271a7.376 7.376 0 0 1-.241.693.916.916 0 0 1-.754.565c-2.013.2-4.567-.207-6.698-.692a47.633 47.633 0 0 1-3.633-.984l-.006-.002" fill="#C4E4EF"/>
    </g>
</svg>
