<svg width="24" height="16" viewBox="0 0 24 16" xmlns="http://www.w3.org/2000/svg">
    <g fill="none" fill-rule="evenodd">
        <path fill="#293A64" d="M15.66 11.158l5.563-1.002.015.136-5.564 1.002-.014-.136m.17-4.898l5.48 1.387.025-.135-5.48-1.388-.024.135m-.071 1.277l5.563.808.014-.137-5.563-.808-.014.137m-.083 2.361l5.606-.418.005.138-5.606.418-.005-.138m.023-1.538l5.606.213-.014.384-5.605-.214.014-.383"/>
        <path d="M.024 8.188c-.195 3.167.797 5.455 2.445 6.7l.462-13.213C1.2 2.802.05 5.015.024 8.188zm2.909-6.541l-.461 13.212c1.077.813 2.434 1.181 3.923 1.057 4.891-.41 10.994-5.063 11.007-5.426l.12-3.444c.012-.362-5.75-5.43-10.601-6.18-1.477-.228-2.857.045-3.988.78z" fill="#7ABFF5"/>
        <path d="M5.67 15.937L6.2.795c.237.01.477.034.72.072.433.066.873.168 1.315.297l-.508 14.547c-.45.097-.896.168-1.332.205-.245.02-.487.027-.724.021" fill="#93CCF8"/>
        <path d="M7.04 15.839L7.558.989c.67.15 1.35.374 2.026.648l-.478 13.696a13.14 13.14 0 0 1-2.066.506" fill="#93CCF8"/>
        <path d="M8.002 15.647l.503-14.4c.676.213 1.355.489 2.02.804l-.451 12.935c-.686.268-1.382.495-2.072.661" fill="#2299FC"/>
        <path fill="#59AFF2" d="M20.426 10.685l.126-3.621 2.96.54-.096 2.748-2.99.333"/>
        <path fill="#2299FC" d="M21.038 10.616l.12-3.441.593.108-.114 3.267-.599.066"/>
    </g>
</svg>
