<svg width="52" height="45" viewBox="0 0 52 45" xmlns="http://www.w3.org/2000/svg"><g fill="none" fill-rule="evenodd"><path d="M18.86 29.924l-.014 1.05a.64.64 0 0 0-.573 1.137.64.64 0 0 0 .561.07c-.003.358-.004.708-.004 1.049a1.659 1.659 0 0 1-1.738-1.002 1.666 1.666 0 0 1 1.768-2.304m-.088-4.541l.168.396-.014.662a.64.64 0 1 0-.026 1.227l-.02 1.042a1.661 1.661 0 0 1-1.686-1.007 1.667 1.667 0 0 1 1.578-2.32" fill="#7ABFF5"/><path d="M18.949 25.368l-.01.41-.18-.425a2 2 0 0 1 .19.015m-1.627-3.495l.93 2.189a1.642 1.642 0 0 1-.32-.152 1.582 1.582 0 0 1-.635-.732 1.618 1.618 0 0 1 .025-1.305" fill="#7ABFF5"/><path d="M19.043 20.871c-.005.335-.012.683-.02 1.043a.642.642 0 1 0-.025 1.23l-.023 1.042a1.66 1.66 0 0 1-.758-.11l-.929-2.189a1.666 1.666 0 0 1 1.755-1.016" fill="#7ABFF5"/><path d="M38.717 2.668c-.305.133-.619.27-.939.412l-.003-.009a.64.64 0 0 0-1.179.502l.012.027c-.308.139-.62.28-.934.42a1.668 1.668 0 0 1 .12-1.616 1.667 1.667 0 0 1 2.923.264M34.59 4.511l-.933.425a.642.642 0 0 0-1.17.523l.004.01-.932.427-.016-.035a1.668 1.668 0 1 1 3.046-1.35m-4.111 1.881l-.932.426a.642.642 0 0 0-1.169.527l.003.005c-.324.148-.636.29-.934.424l-.011-.027a1.668 1.668 0 0 1 .14-1.57 1.668 1.668 0 0 1 2.903.215" fill="#2299FC"/><path d="M10.427 5.724l2.026 4.773C6.82 6.257 2.948 2.707 2.245 1.05 2.108.728 2.09.478 2.202.309l8.225 5.415M18.94 25.78l5.063 11.927-.233.975.626.7-1.278 1.947c-1.56-.6-3.326-1.275-3.984-2.825a4.296 4.296 0 0 1-.035-.086c-.208-.528-.273-2.563-.27-5.187.001-.34.002-.691.005-1.05a213.524 213.524 0 0 1 .026-2.256 441.478 441.478 0 0 1 .04-2.256l.026-1.227.014-.662" fill="#93CCF8"/><path d="M45.359 28.724l-.504 3.691-.46 2.664s-1.103.986-1.816.978a2.182 2.182 0 0 1-1.795-1.023 2.434 2.434 0 0 1-.159-.311c-.146-.344-.223-.72-.305-1.087-.452-2.097-1.62-5.888-1.941-6.922-2.863-1.363-6.438-3.33-10.375-5.72-1.333 5.57-2.67 11.136-4.001 16.712L18.94 25.779l.008-.382.027-1.21.023-1.043.026-1.23.02-1.043c.02-1.22.03-2.245.02-2.951-.014-.838.003-1.742.227-2.54a178.224 178.224 0 0 1-6.838-4.883l-2.026-4.773 34.932 23M8.909 2.145l1.517 3.577L2.204.308c.454-.692 2.96.054 6.705 1.837" fill="#93CCF8"/><path d="M48.11 3.287l-1.275 1.942-.894-.294c-4.854 3.632-9.697 7.266-14.545 10.897 3.751 2.672 6.972 5.18 9.36 7.268 1.072-.11 5.015-.542 7.114-.953.485-.093.977-.198 1.466-.128a2.17 2.17 0 0 1 1.655 1.257c.279.658-.182 2.041-.182 2.041l-2.26 1.478-3.189 1.929L10.426 5.722 8.91 2.145c3.684 1.755 8.57 4.515 13.887 7.901.643-.522 1.465-.895 2.24-1.215a92.736 92.736 0 0 0 2.41-1.057 606.018 606.018 0 0 0 2.1-.956l.932-.426 1.08-.496a2122.841 2122.841 0 0 1 3.031-1.385c.364-.165.725-.329 1.085-.49l.934-.42a330.894 330.894 0 0 1 2.11-.933C41.25 1.564 43.263.76 43.851.74c1.725-.056 3.073 1.322 4.258 2.546" fill="#93CCF8"/><path d="M16.634 34.338a.64.64 0 1 0 1.072.706.64.64 0 0 0-1.072-.706zm1.929 1.27a1.667 1.667 0 1 1-2.784-1.834 1.667 1.667 0 0 1 2.784 1.834zm-1.827-5.795a.64.64 0 1 0 .888-.182.642.642 0 0 0-.888.182zm1.93 1.27a1.667 1.667 0 1 1-.479-2.31c.768.505.982 1.542.478 2.31zm-1.828-5.795a.643.643 0 0 0 1.072.706.64.64 0 1 0-1.072-.706zm1.928 1.27a1.667 1.667 0 1 1-2.784-1.834 1.667 1.667 0 0 1 2.784 1.834z" fill="#2299FC"/><path d="M35.378 6.974a.642.642 0 1 0 .704-1.074.642.642 0 0 0-.704 1.074zm-.562.857a1.672 1.672 0 0 1-.478-2.31 1.668 1.668 0 1 1 .478 2.31zM31.27 8.86a.64.64 0 1 0 .704-1.07.64.64 0 0 0-.704 1.07zm-.563.857a1.671 1.671 0 0 1-.479-2.31 1.668 1.668 0 1 1 .479 2.31zm-3.547 1.029a.641.641 0 1 0 .705-1.072.641.641 0 0 0-.705 1.072zm-.563.857a1.671 1.671 0 0 1-.478-2.31 1.669 1.669 0 0 1 2.309-.477c.767.506.98 1.543.476 2.31a1.665 1.665 0 0 1-2.307.477z" fill="#FFF"/><path d="M.748 3.424l43.156 28.417-.504 3.69-.46 2.663s-1.103.987-1.815.98a2.183 2.183 0 0 1-1.796-1.024c-.257-.42-.357-.916-.463-1.399-.452-2.096-1.62-5.887-1.942-6.921-2.863-1.363-6.438-3.33-10.375-5.72-1.41 5.894-2.825 11.785-4.234 17.686l.626.701-1.278 1.946c-1.589-.61-3.39-1.298-4.019-2.91-.616-1.566.027-16.403-.035-20.497-.014-.838.003-1.742.227-2.54C7.327 11.342-.154 4.796.748 3.424" fill="#F2F2F2"/><path d="M46.655 6.402L45.38 8.344l-.894-.293c-4.854 3.632-9.697 7.265-14.544 10.897 3.75 2.672 6.972 5.18 9.358 7.268 1.073-.11 5.016-.542 7.115-.954.485-.092.978-.197 1.466-.127a2.17 2.17 0 0 1 1.65 1.246c.29.652-.177 2.052-.177 2.052l-2.26 1.477-3.189 1.93L.75 3.424c.902-1.373 9.87 2.91 20.592 9.738.644-.522 1.466-.896 2.24-1.215 3.78-1.565 17.133-8.032 18.816-8.09 1.725-.056 3.073 1.322 4.258 2.545" fill="#59B0F3"/></g></svg>