<svg width="43" height="42" viewBox="0 0 43 42" xmlns="http://www.w3.org/2000/svg" xmlns:xlink="http://www.w3.org/1999/xlink">
    <defs>
        <path id="a" d="M.025.196v34.82h31.367V.195H.025z"/>
    </defs>
    <g fill="none" fill-rule="evenodd">
        <path d="M36.129 10.482L25.484 5.058 27.718.673S33.173 4.254 38.19 6.01c.405 1.164-2.061 4.473-2.061 4.473" fill="#D6E9CB"/>
        <g transform="rotate(27 18.639 27.69)">
            <mask id="b" fill="#fff">
                <use xlink:href="#a"/>
            </mask>
            <path d="M23.885 1.265c-2.562.89-1.663 1.233-3.278 2.02-1.615-.787-.715-1.13-3.278-2.02-2.638.277-7.507 11.89-7.507 11.89s.173 13.123.19 20.386c0 1.26 9.465 1.454 10.542 1.472v.002h.106v-.002c1.077-.018 10.541-.211 10.541-1.472.018-7.263.191-20.387.191-20.387S26.523 1.542 23.885 1.265" fill="#CBE3C1" mask="url(#b)"/>
            <path d="M0 29.254c0 1.15 3.547 1.992 4.441 1.327 1.727-1.474 3.894-11.792 5.405-15.637 1.362-6.707 7.407-13.692 7.407-13.692S18.483.117 16.813.2C14.614.31 10.2 1.625 7.977 3.618 5.252 6.062-.004 22.928 0 29.254" fill="#D6E9CB" mask="url(#b)"/>
        </g>
        <path d="M3.641 23.564a6.194 6.194 0 0 1-1.697-1.33l.02.013a6.204 6.204 0 0 0 1.679 1.31c.396.203.765.31 1.033.263 2.207-.53 8.818-8.733 11.911-11.475l-.002.006C13.49 15.094 6.88 23.297 4.673 23.827c-.268.045-.636-.061-1.032-.263" fill="#E7EBE2"/>
        <path d="M16.568 12.385l.009-.019.012-.01.017-.014-.027.034a.024.024 0 0 0-.01.01" fill="#B6D9B0"/>
        <path d="M3.643 23.558a6.204 6.204 0 0 1-1.68-1.311c.126.085.251.16.376.223 3.857 1.965 7.658-5.89 14.252-10.128l-.004.003C13.494 15.087 6.883 23.29 4.677 23.82c-.27.046-.638-.06-1.034-.262" fill="#C0DDB8"/>
        <path d="M2.934 24.6c-1.76-.65-2.293-2.022-2.293-2.022L1.44 21.5c.666 1.291 2.452 2.183 2.452 2.183l-.957.916" fill="#97C696"/>
        <path d="M25.429 1.304c-.968-.32 1.033-2.12 3.675.29 1.743 1.588 2.342 5.245 2.342 5.245s-3.402-3.92-6.017-5.535" fill="#B6D9AF"/>
        <path d="M26.258 38.71l-.004-.003c-2.125-.191-8.318-3.18-9.272-3.644-.936-.499-6.993-3.752-8.398-5.359l-.003-.002-.939 1.843a.815.815 0 0 0 .131.928c1.58 1.676 6.667 4.353 7.836 4.956l.133.068.133.068c1.175.59 6.33 3.133 8.616 3.426a.815.815 0 0 0 .828-.44l.939-1.842" fill="#97C696"/>
        <path d="M12.451 33.126a29.699 29.699 0 0 1-.004-.003l.004.003m-1.845-1.335l-.009-.007.009.007m-.011-.009l-.009-.006.009.006m-.035-.028l-.01-.006.01.007m-.01-.009l-.01-.008.01.008m-.012-.008l-.022-.018.022.018m-.022-.018l-.011-.01.01.01m-.01-.01l-.01-.007.01.007m-.012-.01a.118.118 0 0 1-.022-.017l.022.018m-.023-.018l-.01-.008.01.008m-.011-.01l-.01-.007.01.007m-.011-.009l-.021-.016.02.016m-.024-.02l-.007-.004.007.004m-.01-.008l-.006-.004.006.004m-.025-.021l-.006-.003.006.003m-.01-.007l-.006-.005.006.005m-.01-.008l-.006-.005.006.005m-.01-.009l-.01-.007.01.007m-.011-.008l-.01-.008.01.008m-.013-.01l-.006-.006.006.005m-.01-.01l-.006-.003.005.004m-.01-.009l-.02-.015.02.015m-.023-.018l-.006-.005a.027.027 0 0 1 .006.005m-.011-.01l-.004-.003.004.004m-.024-.02l-.004-.004.004.004m-.01-.009l-.004-.003.003.003m-.01-.008l-.002-.003.003.003m-.01-.008l-.003-.003.003.003m-.012-.01l-.006-.006.006.006m-.01-.009l-.006-.005.005.005m-.02-.017l-.004-.004.004.004m-.014-.012a.015.015 0 0 1-.004-.004l.004.004m-.01-.009l-.003-.003c0 .002.002.002.003.003m-.01-.007c0-.002-.001-.002-.003-.003.002 0 .003.001.004.003m-.035-.03l-.001-.001.001.001m-.008-.007l-.003-.002.003.002m-.01-.008l-.002-.002.002.002m-.024-.02l-.002-.003.002.002m-.008-.007l-.004-.003.004.003m-.01-.008l-.002-.002.002.002m-.024-.021l-.002-.002.002.002m-.009-.008l-.002-.002.002.002m-.033-.028l-.002-.002.002.002m-.009-.007l-.002-.002c.001 0 .002 0 .002.002m-.032-.029l-.002-.002.002.001m-.008-.006l-.003-.003.003.003m-.01-.009l-.002-.002.003.002m-.033-.028h-.001.001m-.031-.028c-.002 0-.002-.002-.002-.002l.002.002m-.01-.008v-.001.001m-.038-.036l-.002-.002.002.002m-.008-.008l-.003-.001.003.001m-.023-.02l-.002-.002.002.002m-.008-.007l-.003-.002s.002 0 .003.002m-.009-.008l-.002-.002.002.002m-.031-.028l-.002-.002s.002 0 .002.002m-.008-.008l-.002-.001h.002m-.023-.02l-.001-.001v.001m-.007-.007l-.002-.002.002.002m-.008-.008l-.002-.002.002.002m-.02-.02c-.002 0-.003-.001-.004-.003l.003.004m-.008-.009c-.001 0-.003 0-.003-.002l.003.002m-.01-.007c0-.001 0-.002-.002-.002l.003.002m-.009-.008l-.001-.001.001.001m-.014-.013v-.002.002m-.007-.007l-.002-.002s.002 0 .002.002m-.008-.008l-.002-.002.002.002m-.023-.021v-.001m-.006-.006l-.003-.002.003.002m-.031-.028l-.002-.001h.002m-.008-.006l-.001-.002.001.002m-.008-.008l-.001-.001.001.001m-.007-.008h-.001m-.02-.02l-.002-.002.001.002m-.036-.036h-.001.001m-.007-.007l-.002-.001.002.001m-.028-.028l-.002-.001.002.001m-.035-.034l-.002-.002.002.002m-.008-.008l-.002-.002.002.002m-.007-.008h-.001m-.02-.02v-.001.002m-.007-.008v-.001m-.007-.007h-.001.001m-.02-.02l-.001-.001.001.002m-.006-.008l-.003-.002.003.002m-.028-.028v-.001.001m-.006-.007l-.002-.002.002.002m-.007-.007l-.003-.002c.002 0 .002 0 .003.002m-.019-.02l-.002-.002.002.002m-.007-.007l-.003-.003.003.003m-.007-.008l-.003-.002.003.002m-.018-.018l-.003-.004.003.003m-.008-.008l-.002-.002.002.002m-.006-.007c-.002-.001-.002-.003-.004-.003.002 0 .002.002.004.003m-.019-.02l-.002-.002.002.002m-.006-.007l-.004-.003.004.003m-.015-.015c-.001-.003-.003-.004-.005-.006.002.002.004.003.005.006m-.01-.012l-.003-.003.003.003m-.007-.007l-.003-.003.003.003m-.007-.008a.008.008 0 0 0-.003-.003l.003.003m-.007-.008l-.006-.007.006.007m-.01-.01a.01.01 0 0 0-.003-.004l.003.003m-.007-.007l-.003-.004.003.004m-.007-.009l-.003-.003.003.003m-.006-.007l-.006-.006.006.006m-.01-.01l-.004-.005.004.005m-.008-.01l-.002-.002.002.003m-.007-.008l-.002-.002.002.002m-.017-.02l-.002-.001.002.002m-.006-.007l-.003-.003a.01.01 0 0 0 .003.003m-.006-.008l-.003-.003c0 .002.002.002.003.003m-.007-.007l-.002-.003.002.003m-.01-.012l-.002-.002.002.002m-.007-.008l-.001-.001.001.001m-.006-.007l-.002-.002.002.002m-.006-.007l-.003-.003.003.003m-.01-.012l-.002-.002.002.002m-.006-.007a.01.01 0 0 1-.003-.003l.003.003m-.006-.007l-.003-.003a.01.01 0 0 1 .003.003m-.007-.008L9 30.298l.003.004m-.009-.011l-.003-.003.003.003m-.006-.007l-.003-.004.003.004m-.007-.008l-.002-.004.002.004m-.006-.008l-.002-.002.002.002m-.01-.01l-.001-.004.002.003m-.006-.007l-.003-.004.003.004m-.006-.008l-.003-.003.003.003m-.015-.018c0-.002-.002-.002-.003-.003l.003.003m-.006-.008l-.003-.003.003.003m-.006-.007l-.003-.003.003.003m-.014-.019l-.003-.004c0 .002.001.003.003.004m-.007-.008l-.002-.003.002.003m-.005-.007l-.003-.004.003.004m-.013-.016l-.005-.005.005.006m-.013-.017l-.003-.004.003.004m-.006-.008l-.004-.004.004.004m-.006-.007l-.005-.007.005.007m-.008-.01a.028.028 0 0 1-.003-.005l.003.005m-.005-.008c-.001-.001-.003-.003-.003-.005 0 .002.002.004.003.005m-.006-.008a.028.028 0 0 1-.004-.005l.004.005m-.006-.008l-.005-.006.005.006m-.008-.01l-.003-.004a.048.048 0 0 1 .003.004m-.005-.007l-.003-.004.003.004m-.006-.008l-.003-.005a.028.028 0 0 0 .003.005m-.012-.017l-.004-.005a.015.015 0 0 1 .004.005m-.012-.015l-.003-.006.003.006m-.005-.008a.134.134 0 0 0-.005-.007l.005.007m-.012-.017l-.004-.005.004.005m-.011-.015l-.005-.007.005.007m-.006-.01l-.004-.005c0 .002.002.004.004.006m-.006-.008l-.003-.006.003.006m-.005-.008l-.004-.005.004.005m-.005-.008l-.005-.007.005.007m-.007-.01l-.003-.004c0 .002.002.003.003.005m-.01-.015l-.004-.006c0 .002.002.004.004.006m-.005-.008l-.005-.007a.075.075 0 0 0 .005.007m-.006-.009l-.004-.006c0 .002.002.005.004.006m-.005-.008l-.004-.005.004.005m-.006-.008c0-.002-.003-.003-.003-.005 0 .002.002.003.003.005m-.005-.007l-.005-.007a.134.134 0 0 0 .005.007m-.005-.009c-.002-.001-.003-.004-.004-.006.001.002.002.005.004.006m-.005-.008a.018.018 0 0 1-.004-.005c0 .002.002.003.004.005m-.006-.007c0-.003-.002-.004-.003-.006l.003.006m-.004-.008l-.005-.007.005.007m-.005-.009c-.002-.001-.003-.003-.004-.006.001.003.002.005.004.006m-.006-.008l-.003-.005.003.005m-.005-.007l-.003-.006.003.006m-.004-.008l-.004-.007.004.007m-.005-.008l-.004-.006.004.006m-.006-.008l-.002-.005.002.005m-.004-.008l-.004-.005.004.005m-.004-.007l-.005-.007.005.007m-.005-.008l-.004-.007.004.007m-.005-.01l-.003-.004.003.005m-.005-.007l-.003-.006.003.006m-.004-.008l-.004-.007.004.007m-.005-.008l-.003-.006.003.006m-.005-.008l-.002-.005.002.005m-.004-.008l-.002-.005.002.005m-.004-.007l-.004-.007.004.007m-.009-.017l-.003-.004c0 .002.002.003.003.005m-.004-.008c0-.002-.002-.003-.003-.005 0 .002.002.003.003.005m-.004-.007l-.004-.007.004.007" fill="#E7EBE2"/>
        <path d="M16.88 35.594l-.047-.024-.048-.024.001-.001c-.809-.43-6.962-3.725-8.435-5.393l.23-.45.003.002.005.005.001.002.004.004.001.002.004.004.001.001a.042.042 0 0 0 .004.005l.006.006.001.002.004.004.001.001.004.004.001.002.005.005.005.006.002.001.003.004.002.002.004.004.002.002a.08.08 0 0 0 .005.006l.005.005v.001l.005.004.002.003.003.003.002.002.005.005.006.006.001.002.004.004.002.002.004.004.002.002.004.004v.002c.003.001.004.003.006.005l.002.001.004.005.002.002a.023.023 0 0 0 .004.003l.001.002a.05.05 0 0 0 .005.005v.001l.007.006v.001l.005.004.002.002.004.004.002.002.005.005.006.007.002.001.004.005.002.002c.002 0 .003.002.004.003l.002.002.004.004.002.002.006.006.001.002c.002 0 .003.002.005.004l.002.002.004.004.002.001.004.005.002.002.006.006h.001a.036.036 0 0 1 .005.005l.002.002.004.004.002.002a.02.02 0 0 1 .004.004l.002.002a.18.18 0 0 1 .006.006l.002.002.005.004.002.002a.023.023 0 0 1 .004.004l.002.002.004.004.003.002.006.006.002.002.004.003.003.003.003.004.003.002.004.003.002.003.006.006.003.002.004.004.003.002.004.004.002.002.004.004.003.002.006.006.002.002a71.224 71.224 0 0 1 .011.01l.003.003a.068.068 0 0 1 .003.003l.004.003.005.005.003.002a.03.03 0 0 1 .005.005l.003.002.003.003.004.003.003.003.003.004c.002 0 .003.002.004.003l.007.005.002.003.004.003.003.003.004.003.002.003.005.003.002.003.007.006.003.003c.002 0 .003.002.004.004l.003.002a.068.068 0 0 1 .007.006l.004.004c.001 0 .002 0 .003.002l.008.007.002.002a.108.108 0 0 0 .004.003l.003.003.004.003.003.003.004.003.003.003.007.006.004.003.003.004.004.002.004.004.002.002a.03.03 0 0 1 .005.004l.003.002.007.007c.002 0 .002.002.003.003.002 0 .003.002.005.003l.002.003c.002 0 .004.002.005.004l.002.001a.034.034 0 0 1 .005.005l.003.001.008.008.003.002.004.004.003.002.004.004.004.002a.03.03 0 0 0 .004.004l.002.002.016.014.003.002.005.004.002.002a.134.134 0 0 0 .009.007l.004.004.007.005.003.003a.021.021 0 0 0 .004.003l.004.003.004.004.004.003.003.003.004.003.007.006c.002 0 .003.003.005.004l.003.002.004.004c.002 0 .002.001.003.002l.005.004.004.003.005.004a.134.134 0 0 1 .014.011l.004.004.003.003.005.003.003.003.016.013.004.003.004.004.003.002.005.004.003.003.012.009.005.004.003.002.005.004.003.003.005.004.003.002.018.014.002.002.006.005.001.001a.326.326 0 0 0 .008.006l.02.016h.001a.048.048 0 0 1 .006.005l.002.002a.048.048 0 0 1 .006.005l.002.001.02.016h.001a.058.058 0 0 0 .007.006.064.064 0 0 1 .01.007l.02.017.007.005.002.001.006.005.002.002.006.004.015.012.008.006a.07.07 0 0 0 .009.007l.029.022.001.001.007.005h.001l.023.018.008.006.007.006.001.001.022.017h.001l.007.006h.002l.006.006.002.001.007.005.001.001.015.011.008.006.007.006.002.001.007.005.023.017.002.002a.067.067 0 0 0 .006.005l.003.001.006.005.001.001.014.01.002.002a.326.326 0 0 1 .008.006l.007.005.003.002.006.004.003.003.02.015.003.001.006.005.002.002.007.005h.001a.569.569 0 0 1 .023.018h.002l.007.006.002.001.03.022.003.002.006.005.003.002.007.005.002.001.022.016.002.002.007.005.002.001.007.006.026.018.008.006.002.001.007.005.002.002.032.023h.001l.032.023.003.002.007.005.003.002.006.005.002.001.024.017h.001a.06.06 0 0 1 .008.006l.002.002.007.005.002.001a.501.501 0 0 0 .035.025l.007.005.002.002a.59.59 0 0 0 .024.016l.002.002a.378.378 0 0 1 .007.004l.003.003.007.004.002.002.023.016.003.002a.062.062 0 0 1 .01.007.501.501 0 0 0 .009.006l.025.018.008.005.003.002.006.005.004.002a.046.046 0 0 0 .006.005.024.024 0 0 0 .005.003l.01.007.005.003.005.004a.036.036 0 0 0 .006.003c0 .002.002.002.004.004l.006.004.005.003.006.005.01.006.003.002a.05.05 0 0 0 .007.005l.003.003.007.004.003.002.007.005.004.003.01.007c.002 0 .003.002.005.003l.006.004.005.004c.002 0 .003.002.005.003l.006.004.004.003.02.014.006.003.005.004.005.004.007.004.003.003.01.006.002.001.009.007a.032.032 0 0 1 .005.003l.006.004.005.003a190.528 190.528 0 0 0 .01.008c.003 0 .005.002.006.003l.011.008.004.002.005.004.006.004.004.003a.046.046 0 0 1 .007.004l.004.004.022.014.002.001.01.007.002.001.01.007.023.016.003.002.01.006a.153.153 0 0 1 .012.008l.023.016h.001l.01.008.002.001.01.006.002.002.01.007h.002a.128.128 0 0 0 .011.008l.003.002.009.006.002.001.01.006.001.002c.598.398 1.254.807 1.91 1.202a98.975 98.975 0 0 0 4.297 2.428v.002l.026.013.034.017.034.018.026.013v-.001l.003.001h.002l.003.002.005.003.42.203.008.004c1.628.781 6.564 3.094 8.676 3.416l-.234.46c-2.374-.362-8.317-3.24-9.117-3.629v.001" fill="#89B787"/>
        <path d="M37.985 39.31c-.523 1.025-4.065.164-4.56-.833-.869-2.098 1.885-12.275 2.283-16.387 1.832-6.594-.382-15.563-.382-15.563s-.582-1.57.87-.736c1.907 1.096 5.243 4.271 6.319 7.056 1.32 3.415-1.655 20.829-4.53 26.464" fill="#D6E9CB"/>
        <path d="M33.82 40.344c1.56 1.043 2.982.667 2.982.667l.403-1.278c-1.436.22-3.208-.701-3.208-.701l-.178 1.312m5.624-31.891c.829.594 1.108-2.081-2.395-2.803-2.308-.476-5.62 1.188-5.62 1.188s5.172.448 8.015 1.615" fill="#B6D9AF"/>
        <path d="M34.124 39.094c-.34-.188-.595-.4-.704-.62-.856-2.067 1.803-11.973 2.263-16.199l.008-.014c-.456 4.216-3.123 14.146-2.266 16.216.109.218.363.43.7.617" fill="#E7EBE2"/>
        <path d="M35.634 22.708c.022-.2.043-.4.061-.592l.011-.042-.001.023.004.067c-.015.163-.033.33-.051.5-.008.014-.017.029-.024.044" fill="#B6D9B0"/>
        <path d="M34.125 39.094c-.337-.187-.591-.399-.7-.617-.857-2.07 1.81-12 2.266-16.216l.016-.159c.44 7.819-3.671 15.5.182 17.462.13.066.267.126.415.178-.945-.1-1.852-.494-2.179-.648" fill="#C0DDB8"/>
        <path d="M33.84 39.937c-.04-.02-.077-.04-.113-.064h.001c.338.133 1.304.41 2.575-.128h.01c-.954.418-1.89.49-2.473.192" fill="#9FCB9F"/>
        <path d="M3.476 17.288c1.601-2.16 3.74-4.645 5.972-7 .39-.407.78-.812 1.17-1.213 3.829-3.904 7.705-7.204 9.447-7.667.256-.068.526-.123.804-.167a29.444 29.444 0 0 1-4.252 5.856c-2.937 3.152-6.573 7.144-10.136 9.618a3.757 3.757 0 0 1-3.005.573m35.925 18.305a3.756 3.756 0 0 1-1.303-2.768c-.092-4.337 1-9.625 1.823-13.854a29.483 29.483 0 0 1 2.238-6.882c.128.251.242.502.338.748.65 1.682.258 6.758-.65 12.15-.096.55-.193 1.105-.294 1.66-.593 3.19-1.345 6.38-2.152 8.946" fill="#E0EFD7"/>
        <path d="M28.65 3.93c-7.77 2.837-12.059 8.412-12.059 8.412s5.013-5.124 12.422-8.066c.193-.076-.167-.417-.362-.346m6.769 3.45c2.273 7.954.283 14.7.283 14.7s1.199-7.067-.776-14.79c-.051-.202.436-.11.493.09" fill="#B6D9AF"/>
        <path fill="#7BA879" d="M17.16 35.16l-.106-.056.042.02.064.034v.001"/>
        <path d="M13.918 34.255l-.004-.002a35.022 35.022 0 0 1-1.5-1.065c-1.042-.788-2.061-1.672-2.77-2.546l.003-.015c1.046 1.301 2.784 2.624 4.271 3.628" fill="#E7EBE2"/>
        <path d="M14.372 33.622l-.054-.03-.028-.016-.01-.007-.01-.005c-1.546-.886-3.39-2.001-4.623-2.937a1.005 1.005 0 0 1 .105-.553l.597-1.172a2.105 2.105 0 0 1 1.176-1.031 23.895 23.895 0 0 0 5.986-3.172.987.987 0 0 1 1.03-.084l5.978 3.045a.98.98 0 0 1 .538.846c.063 2.577.857 5.513 1.275 6.892a2.107 2.107 0 0 1-.14 1.567l-.59 1.159a1.03 1.03 0 0 1-.343.384c-.31-.084-.65-.19-1.01-.314a.951.951 0 0 0 .975-.51l.555-1.09c.232-.454.28-.982.131-1.472-.392-1.296-1.138-4.055-1.198-6.477a.92.92 0 0 0-.505-.794L18.59 24.99a.927.927 0 0 0-.968.08 22.463 22.463 0 0 1-5.625 2.98 1.98 1.98 0 0 0-1.106.968l-.561 1.102a.952.952 0 0 0 .317 1.22c1.148.776 2.533 1.602 3.725 2.283" fill="#B6D9B0"/>
        <path d="M16.202 35.345l-.006-.004.006.004m-.012-.007a57.51 57.51 0 0 1-2.115-1.27 56.617 56.617 0 0 0 2.115 1.271m7.867 3.004a.7.7 0 0 0 .12-.004c.381.08.745.137 1.082.169a2.343 2.343 0 0 1-.037.038 11.253 11.253 0 0 1-1.165-.203" fill="#89B787"/>
        <path d="M14.182 33.782a28.7 28.7 0 0 1-1.485-1.138c0-.002-.003-.003-.004-.004.492.406.993.785 1.468 1.127l.005.003.016.012" fill="#CFD7CA"/>
        <path d="M14.419 33.65a18.129 18.129 0 0 0-.148-.086l.027.016.034.02c.03.017.06.033.087.05" fill="#9FCBA0"/>
        <path d="M16.784 35.484l.002-.004c-.42-.244-2.307-1.36-4.088-2.837a28.158 28.158 0 0 0 1.513 1.159 35.05 35.05 0 0 0 2.063 1.37l.006.003a21.157 21.157 0 0 0 .533.318l-.002.004-.027-.013" fill="#7BA879"/>
        <path d="M24.207 27.851L18.59 24.99a.927.927 0 0 0-.968.08 22.463 22.463 0 0 1-5.625 2.98 1.98 1.98 0 0 0-1.106.968l-.561 1.102a.952.952 0 0 0 .317 1.22c2.385 1.613 5.787 3.434 6.374 3.746l-.001.001.048.024.046.024v-.001c.61.298 4.216 2.043 6.945 3.015a.95.95 0 0 0 1.165-.464l.555-1.09c.232-.454.28-.982.131-1.472-.392-1.296-1.138-4.055-1.198-6.477a.92.92 0 0 0-.505-.794" fill="#CBE3C1"/>
        <path d="M17.506 34.297l-.038-.02-.038-.018v-.002c-.448-.238-2.923-1.562-4.823-2.807a1.212 1.212 0 0 1-.416-1.565l.276-.54a1.6 1.6 0 0 1 .892-.784 18.21 18.21 0 0 0 4.558-2.414.75.75 0 0 1 .784-.065L23.25 28.4a.755.755 0 0 1 .41.655c.05 1.959.653 4.186.97 5.233.12.396.081.823-.107 1.192l-.271.533c-.28.55-.93.8-1.51.583-2.15-.804-4.77-2.073-5.235-2.3v.001m9.99-7.491l-9.87-5.03c-1.298-.66-1.794-2.297-1.114-3.672l2.011-4.067a2.07 2.07 0 0 1 .691-.793l7.782-5.243a1.855 1.855 0 0 1 1.884-.137l2.798 1.426c.568.29.941.863.992 1.522l.743 9.644c.029.376-.05.757-.225 1.096l-2.058 3.98c-.707 1.369-2.33 1.937-3.634 1.274" fill="#D5E9CC"/>
    </g>
</svg>
