<svg width="50" height="48" viewBox="0 0 50 48" xmlns="http://www.w3.org/2000/svg"><g fill="none" fill-rule="evenodd"><path d="M15.866 11.893l1.728-1.122.164.253 2.527-1.642-.67-1.03c-2.139 1.623-4.373 3.104-6.733 4.388l.662 1.02 2.486-1.614-.164-.253zM.356 22.325l3.455-2.244-.455-.7 3.62-1.938.266.41 5.87-3.812-.687-1.056a37.62 37.62 0 0 1-.445.233l-.65-1a50.053 50.053 0 0 1 8.405-5.459l.65 1.001c-.13.103-.263.204-.395.307l.688 1.06 5.998-3.895-.266-.41 3.242-2.518.454.7 3.327-2.16a.593.593 0 0 1 .818.177l15.505 23.875a.593.593 0 0 1-.172.82l-2.565 1.666.18.276c.036.056-.011.153-.107.215l-1.382.898c-.095.062-.203.065-.24.009l-.179-.276L20.982 44.29l.18.276c.036.057-.01.154-.106.216l-1.382.897c-.095.062-.202.065-.24.008l-.179-.275-2.748 1.784a.594.594 0 0 1-.819-.176L.183 23.144a.594.594 0 0 1 .172-.819z" fill="#93CCF8"/><path fill="#FBB783" d="M18.188 20.37l-5.42 7.817-4.79-3.348 5.42-7.816 4.79 3.348"/><path fill="#FAD66D" d="M35.707 13.91l-8.639 3.848-2.39-5.343 8.64-3.848 2.39 5.343"/><path fill="#F68141" d="M16.095 27.898l-5.425 4.76-2.942-3.362 5.425-4.76 2.942 3.362"/><path d="M21.207 18a2.079 2.079 0 0 0-2.56-1.43l-1.988.565a2.064 2.064 0 0 0-1.414 2.56 2.078 2.078 0 0 0 2.56 1.429l1.988-.565A2.063 2.063 0 0 0 21.207 18" fill="#FFFDED"/><path d="M20.252 33.615a2.57 2.57 0 0 0-3.552-.765 2.57 2.57 0 0 0-.747 3.557 2.57 2.57 0 0 0 3.554.765 2.57 2.57 0 0 0 .745-3.557" fill="#FBE9B5"/></g></svg>