<svg width="27" height="27" viewBox="0 0 27 27" xmlns="http://www.w3.org/2000/svg">
    <g fill="none" fill-rule="evenodd">
        <path d="M13.696 21.022a.42.42 0 0 1-.158-.032l-1.686-.7 3.346-.796-1.189 1.384a.414.414 0 0 1-.313.144" fill="#0E7B85"/>
        <path fill="#871B00" d="M12.02 6.271l-1.368-1.1 1.367 1.1"/>
        <path fill="#076D72" d="M9.67 8.046l-.15-.625 1.945-.462.15.624-1.946.463"/>
        <path d="M2.52 25.503c.161-.842.572-1.647 1.254-1.81l1.524-.362a.318.318 0 0 0 .03-.006l3.756-.895.057-.015 9.436-2.247.058-.013 3.755-.894a.237.237 0 0 0 .028-.009l1.527-.363a1.1 1.1 0 0 1 .254-.03c.606 0 1.222.485 1.681 1.08L2.52 25.503m-.072.571c.011-.187.036-.38.073-.571l23.36-5.564c.34.437.594.939.691 1.346L6.469 26.074H2.448" fill="#0E7B85"/>
        <path d="M5.252 23.334a.327.327 0 0 1-.318-.251l-.001-.006a.326.326 0 0 1 .242-.393l3.58-.853a.814.814 0 0 0 .624-.725l.019-.23.675-.162-.051.625a1.227 1.227 0 0 1-.938 1.091l-3.756.895a.318.318 0 0 1-.076.009m13.098-3.145c-.42 0-.819-.216-1.045-.585l-.329-.534.675-.16.122.197a.815.815 0 0 0 .883.366l3.581-.853a.326.326 0 0 1 .393.242l.002.006a.325.325 0 0 1-.242.393l-3.755.894c-.02.005-.039.01-.058.013-.076.014-.152.02-.227.02m-15.548-.08l-.659-2.761a7.26 7.26 0 0 1 .359-4.494h12.56V7.892l.806-1c.202.013.404.034.603.063l.204.164a.538.538 0 0 0 .658.015 7.305 7.305 0 0 1 5.199 5.356l.66 2.761-14.92 3.554-5.47 1.303" fill="#0E7B85"/>
        <path d="M15.062 12.853H2.502a7.298 7.298 0 0 1 5.057-4.304l5.625-1.34.426.343.006.004.621.5a.537.537 0 0 0 .759-.082l.066-.082v4.96" fill="#076D72"/>
        <path d="M17.013 7.35a.454.454 0 0 1-.338-.166l-.204-.229c.292.06.58.143.862.25a.446.446 0 0 1-.32.145" fill="#09565D"/>
        <path d="M14.576 8.175a.537.537 0 0 1-.339-.119l-.621-.5a1.351 1.351 0 0 0 1.889-.212l.363-.451-.806.999-.066.082a.54.54 0 0 1-.42.201" fill="#871B00"/>
        <path d="M14.45 7.848c-.292 0-.588-.096-.834-.292l-.006-.004-.426-.343.54-.128a7.33 7.33 0 0 1 2.144-.188l-.363.45c-.268.332-.66.505-1.054.505" fill="#592502"/>
        <path fill="#0E7B85" d="M2.335 21.14l.467-1.032 5.47-1.303 14.92-3.554.882.71-7.182 1.712-7.375 1.756-7.182 1.711"/>
        <path d="M2.949 22.4a.397.397 0 0 1-.386-.305l-.228-.955 7.182-1.71 7.375-1.757 7.182-1.711.228.955a.397.397 0 0 1-.294.478l-6.357 1.514-.675.161-1.778.424-3.346.797-1.779.423-.675.161L3.04 22.39a.42.42 0 0 1-.092.01" fill="#0E7B85"/>
        <path d="M12.049 19.75a.412.412 0 0 0 .47-.111l4.922-5.731-6.187 1.473-6.186 1.474 3.629 1.506 3.352 1.39M9.144 3.937l-1.177.28-.653-2.737L8.49 1.2l.653 2.737" fill="#869391"/>
        <path d="M7.582-.002a2.672 2.672 0 0 0-1.839 1.526l4.17-.993a2.676 2.676 0 0 0-2.33-.533" fill="#8FA6AA"/>
        <path fill="#869391" d="M10.062 1.155l-4.17.993-.149-.624 4.17-.993.149.624"/>
        <path d="M9.978 5.718l-1.95.465a.718.718 0 0 1-.865-.532l-.114-.477a.718.718 0 0 1 .532-.865l1.95-.465a.719.719 0 0 1 .865.532l.114.478a.717.717 0 0 1-.532.864" fill="#C6CDCE"/>
        <path fill="#869391" d="M10.125 6.344l-1.945.463-.15-.625 1.946-.463.149.625"/>
        <path d="M24.391 18.7l-23.36 5.564c.161-.842.572-1.647 1.254-1.81l20.17-4.804c.685-.163 1.412.37 1.936 1.05" fill="#C6CDCE"/>
        <path d="M25.083 20.046l-24.06 5.731c-.098-.41-.098-.97.009-1.513l23.36-5.564c.34.437.593.939.69 1.346" fill="#FBAC29"/>
        <path d="M8.22 15.877l-.33 3.99a.813.813 0 0 1-.623.725l-3.581.853a.326.326 0 0 0-.242.393l.001.006a.327.327 0 0 0 .394.241l3.755-.894c.516-.123.895-.563.939-1.092l.344-4.168-.658-.054m5.968-1.422l2.097 3.412c.184.3.54.448.883.366l3.58-.853a.327.327 0 0 1 .394.242l.002.007a.326.326 0 0 1-.242.392l-3.755.895a1.229 1.229 0 0 1-1.33-.551l-2.19-3.565.561-.345" fill="#747C7B"/>
        <path d="M21.702 14.012L1.313 18.87l-.66-2.762A7.303 7.303 0 0 1 6.07 7.31l6.165-1.47a7.311 7.311 0 0 1 8.808 5.411l.659 2.761" fill="#FBAC29"/>
        <path fill="#04AEB7" d="M22.586 14.722l-21.74 5.18.467-1.033 20.389-4.857.884.71"/>
        <path d="M22.52 16.156L1.551 21.15a.397.397 0 0 1-.478-.294l-.228-.955 21.74-5.179.227.956a.397.397 0 0 1-.294.478" fill="#FFF"/>
    </g>
</svg>
