<svg width="38" height="39" viewBox="0 0 38 39" xmlns="http://www.w3.org/2000/svg">
    <g fill="none" fill-rule="evenodd">
        <path d="M36.951 24.197a1.604 1.604 0 0 0-2.25.28 1.604 1.604 0 0 0 .273 2.251c.697.545 1.705.42 2.25-.279a1.604 1.604 0 0 0-.273-2.252" fill="#533D3B"/>
        <path d="M36.496 24.78a.865.865 0 1 0-1.064 1.365.865.865 0 0 0 1.064-1.365" fill="#867E7B"/>
        <path d="M28.76 34.681a1.604 1.604 0 0 0-2.251.28 1.604 1.604 0 0 0 .274 2.251c.697.545 1.705.42 2.25-.279a1.604 1.604 0 0 0-.273-2.252" fill="#533D3B"/>
        <path d="M28.305 35.264a.866.866 0 1 0-1.064 1.365.866.866 0 0 0 1.064-1.365" fill="#867E7B"/>
        <path fill="#A0A19D" d="M.772 9.315l6.29 5.939.771-1.18L1.527 8.35l-.755.965m5.831-7.463l6.29 5.938.771-1.18L7.358.887l-.755.965"/>
        <path d="M5.01 18.77s1.478-5.008 6.044-10.199c4.566-5.19 5.738-4.73 7.383-3.786 1.645.944 10.366 7.644 12.999 10.155 2.632 2.512 5.136 6.06 5.16 7.046.024.986-1.876 5.881-1.876 5.881L5.01 18.77" fill="#BA292C"/>
        <path d="M7.436 14.219s3.82-6.343 7.159-5.896c3.338.447 20.481 16.116 20.395 18.55-.087 2.435-7.598 11.467-10.054 11.198-2.455-.27-19.761-15.44-20.262-17.195-.5-1.756 2.762-6.657 2.762-6.657M1.404 9.912l.765-.979S.346 7.489 2.487 4.41c2.14-3.078 4.597-2.104 4.597-2.104l.803-.938-.53-.481S4.85-.694 1.773 3.196s-1 6.12-1 6.12l.632.596" fill="#D8393B"/>
        <path d="M2.046 8.955s-1.285-.933-.502-2.951c.783-2.019 2.094-3.17 3.165-3.67 1.071-.5 2.286-.148 2.286-.148s.788-.791.762-.812c-.027-.02-.538-.491-.538-.491L6.21.636s.427.319-.01.732c-.435.413-2.61.292-4.054 2.576C.703 6.228.627 7.776 1.199 8.407c.57.63.64.686.64.686l.207-.138m5 11.995s-.16-.565 1.592-3.433 4.386-6.384 6.074-6.657c1.688-.273 4.404 2.531 5.086 3.547.68 1.016.462 1.996.462 1.996L7.046 20.951" fill="#BA292C"/>
        <path d="M9.343 16.788s3.464-5.256 5.102-5.417c1.639-.16 5.689 3.61 5.823 4.89.134 1.28-6.763 10.11-8.335 9.943-1.572-.166-4.745-4.238-4.889-5.07-.143-.833 2.3-4.346 2.3-4.346" fill="#DE484A"/>
        <path d="M19.726 32.445s.752-1.156 1.138-1.65c.386-.495 7.04-8.576 7.564-8.593.524-.017 3.525 2.64 4.093 3.51.568.871.173 1.535.173 1.535l-12.968 5.198" fill="#BA292C"/>
        <path d="M19.726 32.445s8.367-10.032 8.761-9.762c.395.27 4.374 3.455 4.24 4.45-.135.994-7.177 9.282-8.45 9.07-1.272-.21-4.636-3.407-4.636-3.407l.085-.351" fill="#DE484A"/>
        <path fill="#BA292C" d="M21.478 30.363l5.318 4.007.47-.479-4.951-4.52-.837.992m4.339-5.021l4.98 4.583-.35.448-5.49-4.057.86-.974"/>
        <path d="M7.425 21.034s.212-1.01 2.829-4.576c2.616-3.568 4.427-4.712 4.427-4.712l1.016.794s-2.786 2.657-4.718 4.986c-1.933 2.33-2.95 4.464-2.95 4.464l-.604-.956" fill="#D8393B"/>
        <path d="M7.908 21.241s.396-1.634 2.663-4.536c2.267-2.901 4.304-4.38 4.304-4.38l.357.278s-2.875 2.246-4.751 4.79c-1.876 2.544-2.34 4.286-2.34 4.286l-.233-.438" fill="#BA292C"/>
        <path d="M14.103 5.475c.008.006-2.804 3.8-2.712 4.553.091.754 1.125 3.64 9.005 10.62 7.88 6.98 13.185 9.267 13.185 9.267l-.66 1.004s-5.95-2.349-14.22-10.061c-8.27-7.713-8.217-10.344-8.084-10.922.134-.578 2.045-3.105 2.045-3.105l1.441-1.356m-6.321 7.513l-1.556 3.237s-.713 3.735 7.908 11.106c8.622 7.37 13.395 9.448 13.395 9.448l-.76.568s-6.126-2.252-13.283-9.161c-7.158-6.91-7.993-9.81-7.894-10.978.1-1.168 2.19-4.22 2.19-4.22" fill="#803234"/>
        <path d="M18.49 9.318a63.14 63.14 0 0 0-1.31-.926c-.39-.271-.802-.538-1.257-.69-.842-.28-1.759-.106-2.606.062-.032.006-.027.056.006.05.803-.143 1.639-.293 2.433-.025.854.288 1.565.946 2.277 1.476a102.236 102.236 0 0 1 4.415 3.471 93.692 93.692 0 0 1 8.216 7.73 123.72 123.72 0 0 1 2.144 2.347c.658.735 1.428 1.477 1.856 2.38.047.099.2.04.16-.064-.314-.822-.976-1.474-1.537-2.132a69.829 69.829 0 0 0-1.912-2.144 92.339 92.339 0 0 0-4.025-4.089 89.156 89.156 0 0 0-8.86-7.446m1.864-2.588c-.43-.32-.862-.634-1.293-.951-.406-.299-.804-.62-1.24-.874-.62-.36-1.51-.564-2.065.025-.019.02.013.052.033.034.705-.628 1.628-.223 2.281.252.737.536 1.449 1.106 2.172 1.658a205.605 205.605 0 0 1 4.314 3.364c2.876 2.32 5.653 4.788 8.126 7.538 1.27 1.413 2.527 2.885 3.164 4.706.046.134.238.051.2-.08-.477-1.665-1.64-3.045-2.76-4.322a55.386 55.386 0 0 0-3.987-4.07c-2.821-2.615-5.862-4.984-8.945-7.28" fill="#9F2629"/>
        <path d="M17.497 10.527c-.864-.607-1.785-1.39-2.854-1.584-.983-.178-1.89.335-2.668.879-.023.015.002.047.025.033.78-.471 1.606-.993 2.56-.828.956.165 1.79.874 2.56 1.419a89.719 89.719 0 0 1 5.11 3.887 83.845 83.845 0 0 1 9.32 8.922c.396.442.785.89 1.17 1.34.36.424.746.843 1.022 1.328.526.924.475 1.986-.046 2.9-.018.032.036.064.058.033.465-.652.597-1.555.396-2.326-.25-.958-1.062-1.718-1.692-2.44a87.82 87.82 0 0 0-4.585-4.888 82.24 82.24 0 0 0-10.376-8.675M5.53 18.777c-.037.297-.084.58-.159.87-.07.272-.14.539-.121.822.036.55.36 1.027.706 1.436.926 1.094 1.995 2.089 3.05 3.057.63.579 1.286 1.135 1.956 1.666.005.004.01-.003.006-.007-1.406-1.213-2.758-2.483-4.014-3.853-.507-.553-1.135-1.133-1.43-1.838-.157-.375-.168-.739-.09-1.135.067-.331.209-.677.136-1.018-.005-.021-.038-.024-.04 0m19.863 18.157c-.695-.204-1.383-.388-2.046-.677a13.601 13.601 0 0 1-1.915-1.03c-1.266-.815-2.42-1.79-3.579-2.747-.682-.563-1.366-1.122-2.094-1.626-.011-.008-.025.01-.014.019 2.358 1.888 4.584 4.063 7.322 5.418.71.351 1.474.691 2.27.828.102.018.156-.156.056-.185m6.882-5.609c-.856.811-1.611 1.72-2.407 2.585-.387.421-.791.82-1.215 1.207-.23.212-.47.417-.714.615-.184.15-.401.38-.7.352-.085-.008-.057.105.017.13.244.083.415.022.583-.09a5.34 5.34 0 0 0 .649-.532c.458-.426.866-.907 1.278-1.374.842-.957 1.745-1.873 2.522-2.882.006-.007-.007-.016-.013-.01" fill="#9F2629"/>
    </g>
</svg>
