<svg width="39" height="55" viewBox="0 0 39 55" xmlns="http://www.w3.org/2000/svg">
    <g fill="none" fill-rule="evenodd">
        <path d="M21.56 22.638l-7.062-3.583s7.008-4.042 3.244-9.24C20.466 6.214 21.165.068 21.165.068l3.149.311c1.698 1.32 2.801 1.763 5.467 2.895l-8.22 19.365" fill="#BFDFEC"/>
        <path d="M21.446 22.59l7.484 2.59s-1.96-7.848 4.393-8.75c.7-4.463 4.635-9.235 4.635-9.235l-2.411-2.048c-2.129-.306-3.215-.791-5.88-1.923l-8.22 19.366" fill="#BFDFEC"/>
        <path d="M33.323 16.43v-.002.002m-3.17-12.745l-.464-.197.463.196c2.257.958 3.339 1.387 5.395 1.463-2.056-.076-3.137-.504-5.394-1.462m-1.041-.442c-2.258-.959-3.317-1.438-4.798-2.865 1.482 1.427 2.541 1.907 4.799 2.865l.462.196-.463-.196m.52.22l-.057-.024.114.049-.057-.024" fill="#ECECEF"/>
        <path d="M29.03 4.722c-2.593-1.125-4.084-2.573-4.716-4.344L21.956.145l2.358.233c1.57 1.22 2.631 1.691 4.889 2.65l.463.196-.635 1.498m.75-1.45l-.057-.024.057.025" fill="#B0CCE1"/>
        <path d="M29.088 4.746l-.057-.024.635-1.498.058.024.057.025.463.196c2.258.959 3.335 1.395 5.303 1.678L37.35 6.68l-1.804-1.533c-1.726.78-3.821.707-6.46-.4" fill="#B0CCE1"/>
        <path d="M28.93 25.18c.774-4.125 2.335-7.086 4.393-8.75.7-4.463 4.635-9.235 4.635-9.235l-2.411-2.048c-1.726.78-3.821.707-6.46-.4-2.629-1.129-4.137-2.585-4.773-4.369L21.165.067s-.7 6.146-3.423 9.749c.233 2.636-.813 5.817-3.244 9.239-3.894 5.204-5.673 6.06-13.768 28.518 1.984 1.626 5.271 3.019 8.283 4.308l.057.025.057.024c3.02 1.27 6.306 2.667 8.853 2.965 10.532-21.423 9.911-23.298 10.95-29.714" fill="#BFDFEC"/>
        <path d="M10.06 49.544l-.199-.085c-1.54-.66-3.212-1.375-4.675-2.122a1.752 1.752 0 0 1-.85-2.164c6.151-16.725 8.206-19.379 11.003-22.992.385-.497.783-1.01 1.216-1.59l.038-.052.15-.213a70.294 70.294 0 0 0 4.703 2.263l.115.05v-.001a69.992 69.992 0 0 0 4.896 1.812l-.05.255-.01.063c-.116.714-.21 1.357-.3 1.98-.656 4.522-1.138 7.843-8.895 23.886a1.752 1.752 0 0 1-2.148.892c-1.553-.534-3.228-1.24-4.772-1.889l-.222-.093m11.726-27.597a70.299 70.299 0 0 1-4.636-2.223c1.844-2.802 2.913-5.578 3.143-8.145.06-.676.27-1.33.597-1.925.842-1.527 1.449-3.2 1.88-4.713a.803.803 0 0 1 1.08-.518.795.795 0 0 1 .239.157c1.027.983 2.35 1.817 3.99 2.52 1.653.694 3.178 1.069 4.602 1.126.1.004.194.026.278.062a.803.803 0 0 1 .378 1.137c-.788 1.362-1.57 2.96-2.085 4.628a4.897 4.897 0 0 1-.97 1.766c-1.686 1.948-2.94 4.646-3.675 7.92a70.297 70.297 0 0 1-4.82-1.792" fill="#CBE7F1"/>
        <path d="M21.56 22.638c.665.277 4.148 1.702 7.37 2.543.045-.24.093-.473.143-.705-3.292-.873-6.807-2.328-7.287-2.529-.477-.205-3.965-1.723-6.88-3.484a26.97 26.97 0 0 1-.408.592c2.844 1.734 6.288 3.249 6.948 3.534l.115.05v-.001" fill="#AEA7C7"/>
        <path d="M4.513 37.46c5.016-12.788 6.787-14.13 9.986-18.405.166.101.333.202.502.3l-.004.006c-3.198 4.274-5.338 5.396-10.484 18.098m10.892-18.7a38.04 38.04 0 0 1-.498-.295c1.725-2.578 2.654-5.006 2.834-7.152-.055 2.22-.658 4.841-2.336 7.447" fill="#B0CCE1"/>
        <path d="M15.04 19.372a43.47 43.47 0 0 1-.54-.316c.143-.197.283-.393.417-.588.177.105.356.209.537.312-.132.198-.27.395-.414.592" fill="#A39CC1"/>
        <path d="M17.767 9.778c.76-.313 5.226-8.314 3.437-9.683L21.121.05c-1.9-.593-10.402 9.22-18.066 17.563a.378.378 0 0 0-.081.373c.578 1.72 2.313 2.717 2.906 3.014.12.06.266.033.37-.067L17.71 9.846l.057-.068" fill="#BFDFEC"/>
        <path fill="#ECECEF" d="M6.764 20.435l10.64-10.292-10.64 10.292"/>
        <path d="M5.874 20.996l-.022-.01c-.614-.312-2.288-1.295-2.867-2.972.334.32.713.567 1.12.739 1.388.59 3.092.32 4.383-.81l8.915-7.8L6.272 20.912a.367.367 0 0 1-.398.084" fill="#B0CCE1"/>
        <path d="M18.288 54.268c-2.58-.341-5.886-1.74-8.937-3.024-3.043-1.303-6.346-2.71-8.384-4.328l-.237.657c1.984 1.626 5.271 3.019 8.283 4.308l.057.025.057.024c3.02 1.27 6.306 2.667 8.853 2.965l.308-.627" fill="#AEA7C7"/>
        <path d="M17.734 9.836l.038-.056.006-.003-.044.059" fill="#ECECEF"/>
        <path d="M17.732 9.84l.044-.058.02-.01a2.1 2.1 0 0 1-.064.069" fill="#B0CCE1"/>
        <path d="M21.12.172c.278-.063.531-.034.852-.044a.6.6 0 0 1-.008.03l-.843.014" fill="#ECECEF"/>
        <path d="M21.583 1.802c.104-.787.013-1.407-.379-1.707l-.04-.021.001-.007.791.078c-.113.58-.238 1.132-.373 1.657" fill="#B0CCE1"/>
        <path d="M17.769 9.777c.297-.442 3.006-4.59 3.396-9.703l.039.02c.392.301.483.92.38 1.708-1.305 5.088-3.462 7.598-3.798 7.966l-.013.007-.004.002" fill="#B0CCE1"/>
        <path d="M4.675 15.842c.99-1.084 1.983-2.178 2.967-3.258-.983 1.08-1.978 2.174-2.967 3.258m2.974-3.266a.067.067 0 0 1 .007-.007l-.007.007" fill="#FFF"/>
        <path d="M4.308 16.34c.118-.162.24-.328.367-.498.989-1.084 1.984-2.179 2.967-3.258l.007-.008.007-.007c4.306-4.728 8.412-9.18 11.02-11.28a25.322 25.322 0 0 1-4.054 6.572c-2.222 2.612-4.973 5.917-7.657 8.018-.819.64-1.82.772-2.657.46" fill="#CBE7F1"/>
        <path d="M22.628 45.149c5.563-12.526 4.882-14.845 5.735-20.115l.002-.006c.188.053.376.103.564.153-.853 5.27-.587 7.476-6.301 19.968m5.885-20.826c.71-3.017 2.176-5.272 3.734-6.854-1.419 1.62-2.52 3.976-3.176 7.007-.185-.05-.371-.1-.558-.153" fill="#B0CCE1"/>
        <path d="M28.374 25.032c.041-.241.088-.477.14-.709.199.058.398.115.597.17a23.4 23.4 0 0 0-.133.708c-.2-.054-.402-.11-.604-.169" fill="#A39CC1"/>
        <path d="M33.333 16.385c-.303-.763 2.35-9.534 4.578-9.199l.09.03c1.745.953.593 13.886-.085 25.195a.38.38 0 0 1-.211.317c-1.64.78-3.562.224-4.188.003a.324.324 0 0 1-.208-.312l.014-15.946.01-.088" fill="#BFDFEC"/>
        <path fill="#ECECEF" d="M33.31 30.76l.012-13.861v.001l-.012 13.86"/>
        <path d="M33.524 32.733a.367.367 0 0 1-.216-.345l.015-15.488.582 11.831c.085 1.714 1.074 3.128 2.463 3.717.406.173.847.274 1.308.292-1.608.748-3.478.227-4.13.002a.339.339 0 0 1-.022-.01" fill="#B0CCE1"/>
        <path d="M33.32 16.45l.01-.07c.002.001.002.003.003.005l-.014.065" fill="#ECECEF"/>
        <path d="M33.32 16.452l.011-.073-.012.07v.003" fill="#D7D7E0"/>
        <path d="M33.32 16.452l.011-.073-.012.073" fill="#A1BBD8"/>
        <path d="M33.321 16.458l.005-.094.007.021-.012.073" fill="#B0CCE1"/>
        <path d="M37.924 7.305l-.576-.616.016-.027c.216.237.412.4.56.643" fill="#ECECEF"/>
        <path d="M36.42 8.099c.283-.461.593-.935.931-1.42l.607.516-.005.005-.042-.014c-.489-.073-.998.29-1.492.913" fill="#B0CCE1"/>
        <path d="M33.332 16.383l-.001-.004-.005-.015c.032-.496.34-3.792 3.093-8.265.494-.622 1.003-.986 1.492-.913l.042.014c-3.407 3.833-4.51 8.663-4.62 9.183" fill="#B0CCE1"/>
        <path d="M38.065 30.016c.127-2.019.263-4.058.387-6.043-.124 1.985-.26 4.024-.388 6.042" fill="#FFF"/>
        <path d="M37.962 30.625c-.806-.386-1.407-1.197-1.515-2.231-.353-3.39.114-7.665.45-11.078a25.34 25.34 0 0 1 1.91-7.483c.275 3.052.007 8.37-.355 14.14-.124 1.985-.26 4.024-.387 6.043a45.08 45.08 0 0 1-.103.609" fill="#CBE7F1"/>
    </g>
</svg>
