<svg width="54" height="48" viewBox="0 0 54 48" xmlns="http://www.w3.org/2000/svg" xmlns:xlink="http://www.w3.org/1999/xlink">
    <defs>
        <path id="a" d="M.032.518v4.589h38.861V.517H.032z"/>
    </defs>
    <g fill="none" fill-rule="evenodd">
        <path d="M31.385 5.111H21.13V1.265s1.976-.55 4.812-.55c4.534 0 5.443.384 5.443.384v4.012" fill="#EBB389"/>
        <path d="M38.066 45.864c-3.478.626-19.114.316-22.794-.217-.307-.045-.526-.233-.524-.449l.021-2.704 23.804.194-.022 2.742c-.002.204-.199.382-.485.434" fill="#F7C89C"/>
        <path d="M38.543 42.688a.113.113 0 0 0 .023-.008c.9-.338-.882-8.627-.602-18.642l.001-.004.001.003c-.282 10.106 1.536 18.457.577 18.65m-23.771.603h-.004l-.022-.007.007-.787.027.003-.008.79" fill="#EAEAE4"/>
        <path d="M27.95 43.886c-.437 0-.873-.004-1.307-.01-3.737-.01-7.524-.233-11.88-.755l.006-.622c4.154.496 7.791.72 11.363.748l.497.003.535.005c.263.002.526.004.79.004 3.32 0 6.73-.173 10.586-.571h.015l-.005.62-.015.006c-3.856.399-7.265.572-10.586.572" fill="#E1B68D"/>
        <g transform="translate(.179 41.858)">
            <mask id="b" fill="#fff">
                <use xlink:href="#a"/>
            </mask>
            <path d="M4.484 5.103C1.738 4.648.457 3.449.077 3.021a.308.308 0 0 1-.051-.327L.976.518c1.835 2.085 4.91 2.314 4.91 2.314L4.792 4.945a.294.294 0 0 1-.309.158" fill="#F7C89C" mask="url(#b)"/>
        </g>
        <path d="M5.842 45.105S2.8 44.878.96 42.822l.193-.44c.461 1.064 2.92 2.37 4.354 2.386h.034c.197 0 .375-.025.523-.079l-.222.416" fill="#E1B68D"/>
        <path d="M41.263 10.137A4.216 4.216 0 0 0 39.01 7.98c-5.082-2.044-8.172-2.602-12.067-2.576-3.877-.089-7.712.695-12.288 2.426a4.195 4.195 0 0 0-2.19 1.91C8.96 16.126.872 37.718 1.155 42.375c.521 1.22 3.682 2.762 4.91 2.313 4.4-5.035 7.329-15.44 9.568-20.841.125 10.114-1.824 18.438-.867 18.646 4.356.522 8.144.746 11.882.756 3.737.05 7.528-.111 11.892-.562.96-.193-.86-8.548-.576-18.66v.003c2.154 5.436 4.921 15.888 9.242 20.994 1.22.469 4.405-1.021 4.944-2.233.341-4.452-8.062-26.505-10.887-32.655" fill="#F7C89C"/>
        <path d="M13.05 8.93a7.7 7.7 0 0 1 .417-.585h.006a9.84 9.84 0 0 0-.424.585M1.158 42.381l-.004-.005c-.045-.502.054-1.202.271-2.057a.034.034 0 0 0 .006.005c-.217.853-.315 1.55-.27 2.052l-.003.005" fill="#F5F5F2"/>
        <path d="M5.507 44.768c-1.433-.017-3.893-1.322-4.354-2.387l.002-.005c.455 1.064 2.916 2.372 4.352 2.392" fill="#D5AD86"/>
        <path d="M5.536 44.768h-.029c-1.436-.02-3.897-1.328-4.352-2.392-.03-.501.036-1.199.184-2.052.098.135.222.272.366.407a4.015 4.015 0 0 0 2.754 1.087c1.3 0 2.594-.62 3.408-1.799 3.259-4.717 5.609-10.904 7.482-15.483C13.147 30.092 10.28 39.86 6.06 44.69c-.149.054-.326.08-.524.08" fill="#ECBE93"/>
        <path d="M12.48 9.92c.13-.233.254-.453.374-.657 0 .022.002.043.003.065a6.163 6.163 0 0 0-.377.593" fill="#FFF"/>
        <path d="M1.818 38.084C3.795 30.02 9.649 14.854 12.48 9.711c.078-.14.164-.275.256-.404.2 4.128-.396 8.258-1.7 12.174-1.528 4.591-3.378 10.368-5.839 14.552a4.126 4.126 0 0 1-3.38 2.051" fill="#F8CCA6"/>
        <path d="M51.556 38.49a4.234 4.234 0 0 1-.083-.005c-2.019-8.07-7.93-23.385-10.21-28.348a4.233 4.233 0 0 0-.19-.365l.017-.278c2.646 4.69 8.557 20.65 10.466 28.997" fill="#FFF"/>
        <path d="M51.473 38.485a4.131 4.131 0 0 1-3.265-2.1c-2.394-4.224-4.155-10.03-5.61-14.646-1.22-3.862-1.755-7.92-1.525-11.967.069.118.132.24.19.365 2.28 4.963 8.191 20.279 10.21 28.348" fill="#F8CCA6"/>
        <path d="M52.238 42.797l-.004-.005c.055-.482-.041-1.168-.261-2.019l.045-.04c.197.857.28 1.558.223 2.059 0 .002-.002.004-.003.005" fill="#F5F5F2"/>
        <path d="M47.21 45.026c-4.144-4.898-6.858-14.711-8.973-20.302 1.802 4.608 4.054 10.834 7.24 15.602a4.139 4.139 0 0 0 3.446 1.856c.96 0 1.923-.338 2.703-1.043a3.02 3.02 0 0 0 .347-.366c.15.85.214 1.537.177 2.019-1.826 2.01-4.81 2.224-4.94 2.233" fill="#ECBE93"/>
        <path d="M48.572 47.32c2.752-.41 4.053-1.588 4.44-2.01a.307.307 0 0 0 .055-.326l-.917-2.192c-1.866 2.055-4.944 2.233-4.944 2.233l1.06 2.131a.295.295 0 0 0 .306.164" fill="#F7C89C"/>
        <path d="M47.422 45.445l-.216-.42s3.078-.178 4.944-2.233l.188.45c-1.87 2.026-4.916 2.203-4.916 2.203" fill="#E1B68D"/>
        <path d="M32.535 29.972h-.02l-2.405-.244a36.605 36.605 0 0 0-6.788-.055l-2.406.204c-1.662-.013-3.027-1.61-3.129-3.655-.123-2.475-.375-5.013-.815-7.524-.425-2.42.738-4.847 2.667-5.549 2.408-.876 4.592-1.3 6.778-1.3.146 0 .293 0 .44.004h.164c2.278 0 4.537.46 7.03 1.414 1.919.733 3.044 3.18 2.582 5.592-.48 2.5-.77 5.03-.932 7.499-.135 2.038-1.51 3.614-3.166 3.614" fill="#F8CCA3"/>
        <path d="M33.155 7.03C30.077 8.863 22.96 8.853 19.925 7a1.107 1.107 0 0 1-.5-1.154l.716-3.706c.122-.634.75-1.02 1.345-.826 3.44 1.128 6.345 1.02 9.75-.158.57-.197 1.182.14 1.344.74l1.056 3.898a1.1 1.1 0 0 1-.481 1.235" fill="#F7C89C"/>
        <path d="M26.565 7.284c-2.157 0-4.188-.355-5.509-.944a.793.793 0 0 1-.445-.877l.429-2.22a.78.78 0 0 1 .967-.608c1.412.39 2.758.582 4.093.582 1.495 0 3.035-.244 4.684-.745a.777.777 0 0 1 .969.547l.657 2.43a.797.797 0 0 1-.45.942c-1.323.565-3.27.893-5.395.893" fill="#F8CCA6"/>
        <path d="M26.564 9.046c-2.556 0-5.113-.466-6.639-1.399a1.107 1.107 0 0 1-.5-1.154l.024-.122c.073.252.233.475.46.618v.001l.005.003.005.003.001.001a6.013 6.013 0 0 0 .676.355c1.544.697 3.756 1.046 5.968 1.046 2.53 0 5.06-.456 6.59-1.369.111-.066.206-.15.283-.247a.17.17 0 0 0 .013-.017l.002-.002.002-.003.001-.001.003-.004v-.001c.077-.102.134-.218.17-.34l.008.028c.13.477-.066.987-.481 1.235-1.531.913-4.06 1.369-6.59 1.369" fill="#E1B68D"/>
        <path d="M26.564 8.398c-2.212 0-4.424-.349-5.968-1.046 1.544.697 3.756 1.046 5.968 1.046M19.92 6.996c-.002 0-.003-.002-.004-.003l.004.003m-.005-.003l-.005-.003.005.003m-.006-.004a1.092 1.092 0 0 1-.459-.618v-.002c.073.253.233.476.46.62m13.541-.226l.002-.003-.002.003m.003-.004l.003-.004-.003.004m.004-.005" fill="#E1B68D"/>
    </g>
</svg>
