<svg width="54" height="53" viewBox="0 0 54 53" xmlns="http://www.w3.org/2000/svg"><path d="M53.115 44.036h-.037v-12.79l-.002-.02V16.402c0-1.934-1.578-3.503-3.527-3.503-1.95 0-3.528 1.57-3.528 3.503V31.21l.001.017v12.808H45.2V26.731l-.002-.016.002-.03V8.225c0-2.411-1.97-4.367-4.398-4.367s-4.4 1.956-4.4 4.368v18.459l.002.03v17.321h-.84V24.908l-.003-.024.002-.025V4.93c0-2.605-2.126-4.716-4.748-4.716-2.623 0-4.75 2.111-4.75 4.715V24.86l.002.017-.002.032v19.128h-1.038V10.072c0-2.302-1.88-4.17-4.198-4.17-2.323 0-4.204 1.868-4.204 4.17v35.312l.008.16v.085c0 2.946-.86 5.017-2.094 2.811L9.15 38.424c-1.17-2.174-3.893-2.996-6.084-1.835a4.448 4.448 0 0 0-1.847 6.039l5.322 9.897S12.14 65.048 16.99 72.529c1.672 2.575 4.744 4.19 8.09 4.19H44.6c9.255 0 8.49-10.99 8.515-32.683" fill="#FFE9D4" fill-rule="evenodd"/></svg>