<svg width="53" height="112" viewBox="0 0 53 112" xmlns="http://www.w3.org/2000/svg">
    <g fill="#FFE9D4" fill-rule="evenodd">
        <path d="M52.933 44.754h-.038v-12.79l-.002-.02V17.12c0-1.934-1.578-3.503-3.527-3.503-1.948 0-3.527 1.57-3.527 3.503v14.808l.002.018-.002.017v12.79h-.821V27.449l-.001-.016V8.943c0-2.411-1.97-4.367-4.398-4.367-2.43 0-4.398 1.956-4.398 4.368v18.459l.001.03v17.321h-.842V5.646c0-2.603-2.126-4.715-4.748-4.715-2.623 0-4.749 2.112-4.749 4.715v19.932l.002.017-.002.03v19.129h-1.037V10.791c0-2.304-1.881-4.172-4.201-4.172-2.321 0-4.202 1.868-4.202 4.172v35.311l.009.16v.085c0 2.946-.862 5.017-2.096 2.811L8.967 39.142c-1.169-2.175-3.893-2.996-6.082-1.834a4.448 4.448 0 0 0-1.848 6.039l5.323 9.896s5.596 12.524 10.448 20.003c1.67 2.576 4.744 4.191 8.09 4.191h19.52c9.255 0 8.491-10.99 8.515-32.683"/>
        <path d="M23.012 206.334h24.045v-132.5H23.012z"/>
    </g>
</svg>
