<svg width="53" height="77" viewBox="0 0 53 77" xmlns="http://www.w3.org/2000/svg"><path d="M52.566 44.605h-.037v-12.79l-.003-.02V16.973c0-1.935-1.578-3.503-3.526-3.503-1.95 0-3.528 1.568-3.528 3.503v27.632h-.822V27.3l-.002-.014.002-.03V8.795c0-2.412-1.969-4.367-4.398-4.367-2.43 0-4.4 1.955-4.4 4.367v18.46l.002.03v17.32h-.84V25.477l-.002-.023.001-.025V5.498c0-2.604-2.126-4.715-4.749-4.715-2.623 0-4.748 2.111-4.748 4.715v19.948l-.001.031v19.128h-1.038V10.642c0-2.304-1.88-4.172-4.199-4.172-2.322 0-4.203 1.868-4.203 4.172v35.312l.008.16v.084c0 2.946-.86 5.017-2.094 2.812L8.6 38.993c-1.17-2.175-3.893-2.996-6.083-1.834A4.446 4.446 0 0 0 .67 43.198l5.323 9.896s5.596 12.523 10.447 20.003c1.672 2.576 4.744 4.192 8.09 4.192h19.52c9.254 0 8.49-10.99 8.516-32.684" fill="#FFE9D4" fill-rule="evenodd"/></svg>