<svg width="54" height="126" viewBox="0 0 54 126" xmlns="http://www.w3.org/2000/svg"><g fill="#FFE9D4" fill-rule="evenodd"><path d="M.71 44.026h.037v-12.79l.003-.02-.001-.014V16.394c0-1.934 1.578-3.503 3.527-3.503 1.95 0 3.527 1.569 3.527 3.503v27.632h.822V26.72l.002-.015-.002-.031V8.215c0-2.41 1.97-4.367 4.398-4.367 2.43 0 4.399 1.956 4.399 4.368v35.809h.84V24.899l.002-.023-.002-.026V4.919c0-2.605 2.127-4.716 4.749-4.716 2.623 0 4.748 2.11 4.748 4.716v19.93l-.002.019.003.03v19.128h1.038V10.063c0-2.303 1.88-4.172 4.2-4.172 2.32 0 4.201 1.869 4.201 4.172v35.312l-.007.16v.085c0 2.946.86 5.017 2.094 2.81l5.39-10.016c1.168-2.175 3.891-2.995 6.082-1.835a4.449 4.449 0 0 1 1.848 6.04l-5.324 9.896s-5.595 12.523-10.447 20.004c-1.671 2.576-4.744 4.19-8.09 4.19H9.225C-.029 76.71.735 65.72.71 44.027"/><path d="M6.585 220.334H30.63V73.108H6.585z"/></g></svg>