<?xml version="1.0" encoding="UTF-8"?>
<svg width="105px" height="152px" viewBox="0 0 105 152" version="1.1" xmlns="http://www.w3.org/2000/svg" xmlns:xlink="http://www.w3.org/1999/xlink">
    <!-- Generator: sketchtool 41.2 (35397) - http://www.bohemiancoding.com/sketch -->
    <title>3341992E-611B-4988-AC58-EDC8EBB8D9F3</title>
    <desc>Created with sketchtool.</desc>
    <defs>
        <polygon id="path-1" points="1.88175555e-20 0.57882587 1.88175555e-20 88.0220319 92.4620832 88.0220319 92.4620832 0.57882587 0 0.57882587"></polygon>
        <polygon id="path-3" points="25.0505927 0.572702201 0.588442284 0.572702201 0.588442284 23.2194905 25.0505927 23.2194905 25.0505927 0.572702201"></polygon>
    </defs>
    <g id="Page-1" stroke="none" stroke-width="1" fill="none" fill-rule="evenodd">
        <g id="02_-primewishlist_空态" transform="translate(-135.000000, -287.000000)">
            <g id="Group-2" transform="translate(124.000000, 287.000000)">
                <g id="ic_no-pending" transform="translate(63.500000, 76.000000) scale(-1, 1) translate(-63.500000, -76.000000) translate(11.000000, 0.000000)">
                    <path d="M43.6319262,0.782159507 C43.6319262,0.782159507 49.190748,11.5737339 49.190748,21.814874 L49.190748,21.814874 C49.190748,21.814874 57.3946443,21.576886 67.8437297,23.3492705 L67.8437297,23.3492705 C67.8437297,23.3492705 69.6897278,12.2904815 63.3526571,3.99291037 L63.3526571,3.99291037 C63.3526571,3.99291037 56.0297581,0.70213429 46.2513136,0.70213429 L46.2513136,0.70213429 C45.3960034,0.70213429 44.5219486,0.727185663 43.6319262,0.782159507" id="Fill-1"></path>
                    <g id="Group-13" transform="translate(10.413679, 82.931871)">
                        <path d="M52.5511033,13.8705272 C39.4257024,13.8705272 25.6588189,6.38782154 24.9111167,5.97516977 C23.9593065,5.4504827 23.6121839,4.25219207 24.1356448,3.29745644 C24.6591057,2.34341669 25.8539018,1.99408922 26.808489,2.51808042 C27.0278705,2.63985792 48.9889309,14.5636152 62.0955872,7.91108414 C63.0654478,7.41910302 64.2505245,7.80879103 64.7413559,8.78092345 C65.2321873,9.75235999 64.8427157,10.9395167 63.8735493,11.4314978 C60.4071827,13.1899649 56.5076071,13.8705272 52.5511033,13.8705272" id="Fill-5" fill="#603813"></path>
                        <polygon id="Fill-7" fill="#E1E1E1" points="2.3078101 37.5525635 2.3078101 44.2092697 5.14449624 42.2670925 7.33553428 52.1157611 9.43354346 42.6846154 11.6474916 44.8334664 11.6474916 36.7884966"></polygon>
                        <path d="M7.3369922,37.9168522 C3.89145296,37.9168522 1.02630277,35.4458127 0.398705054,32.1759127 C0.316089868,32.6108324 0.268186945,33.0596695 0.268186945,33.5203364 C0.268186945,37.4332215 3.43325109,40.6050036 7.3369922,40.6050036 C11.2407333,40.6050036 14.4057974,37.4332215 14.4057974,33.5203364 C14.4057974,33.0596695 14.356506,32.6108324 14.2738908,32.1759127 C13.6476816,35.4458127 10.7811429,37.9168522 7.3369922,37.9168522" id="Fill-9" fill="#999999"></path>
                        <path d="M14.3567143,10.1295223 C14.3567143,6.24238441 11.213866,0.106189983 7.33581198,0.106189983 C3.45914644,0.106189983 0.315603896,6.24238441 0.315603896,10.1295223 L0.315603896,32.6813242 L7.33720047,38.9483424 L14.3567143,32.6722778 L14.3567143,10.1295223 Z" id="Fill-11" fill="#9B9B9B"></path>
                    </g>
                    <g id="Group-28" transform="translate(10.413679, 80.844257)">
                        <path d="M7.3369922,38.3490579 C3.89145296,38.3490579 1.02630277,35.8780184 0.398705054,32.6081185 C0.316089868,33.0430382 0.268186945,33.4911794 0.268186945,33.9525421 C0.268186945,37.8640355 3.43325109,41.0358176 7.3369922,41.0358176 C11.2407333,41.0358176 14.4057974,37.8640355 14.4057974,33.9525421 C14.4057974,33.4911794 14.356506,33.0430382 14.2738908,32.6081185 C13.6476816,35.8780184 10.7811429,38.3490579 7.3369922,38.3490579" id="Fill-16" fill="#9EA0A3"></path>
                        <path d="M3.11861914,35.0035168 C2.72289934,35.0035168 2.39452133,34.6889829 2.38133067,34.2895527 C2.3771652,34.1803009 2.00157851,23.3553246 2.00157851,18.0263411 C2.00157851,12.5860181 3.67609808,7.67664505 3.74621686,7.47136297 C3.87951195,7.08515432 4.30091882,6.88195985 4.68483645,7.01347956 C5.07014257,7.14778275 5.27425068,7.56878497 5.14164983,7.95499363 C5.12568219,8.00300875 3.47823818,12.8427947 3.47823818,18.0263411 C3.47823818,23.3295774 3.85243638,34.1288064 3.85590761,34.2380582 C3.871181,34.6458389 3.55252243,34.9889035 3.14430621,35.0028209 C3.13597527,35.0028209 3.12695008,35.0035168 3.11861914,35.0035168" id="Fill-18" fill="#FFFFFF"></path>
                        <polygon id="Fill-20" fill="#FFFFFF" points="3.34647043 4.51091707 4.52460464 6.85391623 6.48931873 5.11980459 5.39657669 7.50246842 7.97430935 7.96174358 5.43337169 8.59081137 6.68370741 10.8962335 4.60721983 9.2992085 3.58806778 11.71597 3.54016486 9.09253468 1.02074881 9.80093181 3.03753129 8.12736098 0.913835038 6.59435618 3.47560005 7.13156894"></polygon>
                        <path d="M43.7048914,39.5600134 C43.7048914,39.5600134 45.4217599,38.5906645 47.2455422,39.129269 L47.2455422,59.0256254 C47.2455422,59.0256254 52.1156727,58.665164 52.1156727,62.0088263 C52.1156727,63.1570142 43.8131936,63.9043802 43.8985858,61.9461979 C44.0061938,59.4737666 44.4560647,59.4563699 44.4560647,59.4563699 L43.7048914,39.5600134 Z" id="Fill-22" fill="#666666"></path>
                        <path d="M29.0132037,46.7008375 C29.0132037,46.7008375 30.7286838,45.7314885 32.5538546,46.270093 L32.5538546,66.1664495 C32.5538546,66.1664495 37.4225966,65.8059881 37.4225966,69.1496504 C37.4225966,70.2978382 29.121506,71.0452042 29.2055097,69.0870219 C29.3131177,66.6145907 29.7629886,66.5971939 29.7629886,66.5971939 L29.0132037,46.7008375 Z" id="Fill-24" fill="#666666"></path>
                        <path d="M16.6157884,0.407711081 C16.6157884,0.407711081 6.88941228,31.9717441 19.3046003,42.0389163 C32.7743469,52.9606187 63.150354,52.0831248 58.0781981,31.1798424 C53.005348,10.2779517 43.664278,7.30101364 51.0336915,1.42716275 L16.6157884,0.407711081 Z" id="Fill-26" fill="#C0C0C5"></path>
                    </g>
                    <path d="M24.1968772,94.8268892 C24.1968772,94.8268892 53.1462104,99.5170628 63.1558386,94.8609869 C63.1558386,94.8609869 65.2267722,100.406387 65.3482651,101.096691 C65.4586501,101.713233 52.7366057,104.637285 45.734448,103.646364 C38.7322903,102.655443 23.6421753,100.342366 23.7115998,99.3368321 L24.1968772,94.8268892 Z" id="Fill-34" fill="#666666"></path>
                    <path d="M23.6002428,108.204739 C23.6002428,108.204739 37.1519103,112.367442 47.7294312,112.070305 C58.3083404,111.772472 67.390457,107.460157 67.390457,107.460157 C67.390457,107.460157 68.6609258,111.620077 68.8601742,113.429342 C68.8601742,113.429342 59.4948056,118.115341 47.7294312,118.413174 C35.9640567,118.709615 24.9116721,115.303324 24.9116721,115.303324 C24.9116721,115.303324 23.6953544,111.970796 23.6002428,108.204739" id="Fill-36" fill="#666666"></path>
                    <polygon id="Fill-38" fill="#A6A8AB" points="52.0113971 98.0425808 56.9079089 95.2076005 61.8065035 98.0425808 61.8065035 103.710454 56.9079089 106.545434 52.0113971 103.710454"></polygon>
                    <path d="M53.1843244,100.876378 C53.1843244,98.814511 54.8519016,97.1444195 56.9089503,97.1444195 C58.965999,97.1444195 60.6335761,98.814511 60.6335761,100.876378 C60.6335761,102.938245 58.965999,104.609728 56.9089503,104.609728 C54.8519016,104.609728 53.1843244,102.938245 53.1843244,100.876378" id="Fill-40" fill="#E6E7E8"></path>
                    <path id="Fill-42" fill="#0081C8"></path>
                    <path id="Fill-44" fill="#0081C8"></path>
                    <path d="M56.4263804,103.322784 C56.4263804,103.271289 56.4236034,103.188481 56.4194379,103.13629 L56.4076358,103.00477 C56.4034703,102.956059 56.3722293,102.893431 56.3395997,102.866292 L56.2097759,102.759824 C56.184783,102.739643 56.156319,102.709721 56.1549305,102.689541 C56.1549305,102.68119 56.156319,102.677015 56.159096,102.674232 C56.1618729,102.66936 56.1549305,102.633871 56.1292434,102.590031 L56.0577362,102.466862 C56.0348261,102.424414 55.9994196,102.368744 55.9785922,102.341605 C55.9584591,102.314466 55.941103,102.26158 55.941103,102.22609 L55.941103,102.024983 C55.941103,101.992278 55.9584591,101.928257 55.9785922,101.88233 L56.0292721,101.77447 C56.0480167,101.729934 56.0646786,101.657563 56.0646786,101.613028 C56.0646786,101.568492 56.0577362,101.510039 56.0494052,101.487771 C56.0438513,101.46759 56.0334376,101.45924 56.0334376,101.45924 C56.0181642,101.466199 56.006362,101.480116 55.9994196,101.490554 C55.9897001,101.504472 55.964013,101.505863 55.9438799,101.491946 C55.9244411,101.481508 55.8911173,101.456457 55.867513,101.437668 C55.8432144,101.420271 55.8105848,101.395916 55.7918402,101.384782 C55.7730956,101.370864 55.7536567,101.343725 55.7494913,101.320762 C55.7467143,101.303365 55.7307466,101.262308 55.714779,101.233778 C55.6995056,101.203855 55.6599336,101.173933 55.6314696,101.166974 C55.5981458,101.159319 55.5516314,101.134964 55.5273328,101.114088 C55.5044227,101.093907 55.4745701,101.066769 55.4606852,101.055635 C55.4488831,101.046588 55.420419,101.041021 55.4023686,101.045196 C55.3794585,101.050068 55.3350268,101.042413 55.3037858,101.028496 C55.2725448,101.013882 55.2170051,100.98396 55.1788217,100.960996 C55.1420267,100.935945 55.0934295,100.896976 55.0719079,100.871229 C55.0476093,100.843394 55.0351129,100.798858 55.0406668,100.768936 C55.0462208,100.743188 55.0406668,100.68891 55.0295589,100.650637 C55.0191452,100.610277 54.9941524,100.562262 54.9767963,100.543473 C54.9608286,100.526076 54.9413898,100.499633 54.9365301,100.486412 C54.9337531,100.478061 54.9170912,100.439788 54.8955696,100.399428 C54.874048,100.358371 54.8546091,100.30966 54.8504436,100.288088 C54.8483609,100.267212 54.8414185,100.236594 54.8358645,100.215718 C54.831699,100.198321 54.8198969,100.18162 54.8129544,100.178141 C54.8101774,100.178141 54.8018465,100.187187 54.7990695,100.208759 C54.794904,100.232419 54.800458,100.265125 54.8087889,100.28113 C54.8198969,100.299918 54.834476,100.34515 54.8414185,100.380639 C54.8483609,100.414041 54.8615516,100.460664 54.8726595,100.483628 C54.8844617,100.5052 54.905289,100.550432 54.9198682,100.586617 L54.9497207,100.586617 L54.9441668,100.600535 C54.9281991,100.631849 54.8969581,100.649246 54.8782135,100.638808 C54.8587746,100.629065 54.834476,100.603318 54.8205911,100.582442 C54.8101774,100.562262 54.800458,100.532339 54.806012,100.514942 C54.8074004,100.507984 54.8018465,100.486412 54.7900443,100.466231 C54.7775479,100.445355 54.7546378,100.421 54.7379759,100.411258 C54.7233968,100.402211 54.7122888,100.389686 54.7109003,100.380639 C54.7109003,100.375072 54.7109003,100.369505 54.7150658,100.366722 C54.7206198,100.358371 54.7338104,100.352804 54.7449184,100.352109 C54.7463069,100.34515 54.7435299,100.319403 54.7331162,100.279738 C54.7178428,100.232419 54.7046521,100.167007 54.7032637,100.132909 C54.7004867,100.09742 54.6893787,100.071672 54.6810478,100.067497 C54.6692456,100.061234 54.6470298,100.034095 54.6324506,100.007652 C54.6185657,99.9819049 54.6039866,99.9178848 54.6012096,99.8649985 L54.5998211,99.84621 C54.5970441,99.7947155 54.5956556,99.7306953 54.5984326,99.7049481 C54.6012096,99.6764174 54.6123175,99.6395362 54.6255082,99.6207476 C54.6366161,99.602655 54.6539722,99.5650779 54.6650802,99.5379389 C54.6761881,99.5080165 54.7053464,99.450955 54.7317277,99.4085069 L54.7351989,99.4001564 C54.7601918,99.3611876 54.7789364,99.3055179 54.7789364,99.2797706 C54.7775479,99.2512399 54.7747709,99.1927867 54.7733824,99.1503385 C54.7733824,99.1148491 54.769217,99.0661381 54.7629687,99.0292569 C54.3353137,99.526805 54.0777487,100.173965 54.0777487,100.880275 C54.0777487,102.284544 55.092041,103.449432 56.4263804,103.67907 L56.4263804,103.322784 Z" id="Fill-46" fill="#999999"></path>
                    <path d="M59.7050925,100.633101 L59.6821824,100.668591 C59.666909,100.691555 59.6551068,100.731219 59.6551068,100.756967 L59.6537183,100.794544 C59.6537183,100.820987 59.6606608,100.85578 59.669686,100.871089 C59.6807939,100.888486 59.6835709,100.925367 59.6766284,100.952506 L59.6710745,100.978254 C59.6655205,101.004001 59.6578838,101.035315 59.6537183,101.047841 C59.6481644,101.059671 59.6294198,101.079155 59.6085924,101.088201 C59.5898478,101.097944 59.5613837,101.118124 59.5461103,101.134825 C59.5315312,101.149438 59.5245887,101.177969 59.5301427,101.196061 C59.5370851,101.216242 59.5370851,101.251731 59.5287542,101.273303 C59.5218117,101.296267 59.5030671,101.316447 59.4870995,101.316447 C59.4759916,101.317839 59.4607182,101.335932 59.4572469,101.358895 C59.4530815,101.384643 59.4378081,101.414565 59.4246174,101.427091 C59.4107325,101.437529 59.3947649,101.459101 59.3864339,101.47441 C59.378103,101.489023 59.3538044,101.514075 59.3322828,101.528688 C59.3093727,101.543997 59.2781317,101.555827 59.2628583,101.555827 C59.2496676,101.555827 59.2184266,101.560002 59.1927395,101.565569 C59.1684409,101.571136 59.1330344,101.576007 59.117761,101.576007 C59.0990164,101.576007 59.083743,101.562786 59.083743,101.546085 C59.083743,101.532863 59.0774948,101.505724 59.0691638,101.484152 C59.0594444,101.463276 59.0434768,101.428482 59.0309803,101.404823 C59.0205667,101.381859 59.0066818,101.341499 59.0052933,101.31436 L59.0011278,101.27887 C58.9969623,101.251731 58.9837717,101.212066 58.9684983,101.189103 L58.9511421,101.161964 C58.936563,101.137608 58.9226781,101.102119 58.9226781,101.081939 C58.9226781,101.062454 58.9254551,101.032532 58.9296205,101.016527 C58.9323975,100.999826 58.9428112,100.974078 58.9511421,100.962249 C58.9594731,100.948331 58.9684983,100.928151 58.9712752,100.915625 C58.9754407,100.903795 58.9740522,100.87944 58.9684983,100.861347 C58.9664155,100.848126 58.9622501,100.823074 58.9698868,100.816811 C58.9698868,100.814028 58.9684983,100.798719 58.9608616,100.775755 C58.9525306,100.754183 58.9379515,100.725652 58.9268435,100.710343 C58.9157356,100.69573 58.894214,100.665807 58.8810234,100.647019 C58.862973,100.623359 58.8588075,100.58439 58.8671385,100.557251 C58.8768579,100.5322 58.8817176,100.501582 58.8810234,100.489056 C58.8782464,100.475139 58.8713039,100.463309 58.86575,100.459134 C58.860196,100.45635 58.8414514,100.452175 58.8227068,100.452175 C58.8004909,100.452175 58.7761923,100.440345 58.7650844,100.426428 C58.7574477,100.414598 58.7366203,100.40068 58.7220412,100.395113 C58.7192642,100.395113 58.7150987,100.393722 58.7095448,100.393722 C58.6949656,100.393722 58.6748325,100.399289 58.6595591,100.407639 C58.639426,100.419469 58.6151274,100.434778 58.6067965,100.441737 C58.6012425,100.445216 58.5908288,100.448 58.5769439,100.448 C58.568613,100.448 58.5609763,100.448 58.5540338,100.445216 C58.5457029,100.44452 58.5359835,100.443129 58.5241813,100.443129 C58.5075194,100.443129 58.4901633,100.44452 58.4776669,100.448 C58.4714187,100.449391 58.4644762,100.450783 58.4547568,100.450783 C58.4346237,100.450783 58.4144905,100.44452 58.4019941,100.434778 C58.3860265,100.420861 58.3603394,100.40068 58.345066,100.388155 C58.3290984,100.376325 58.308271,100.353361 58.3006343,100.33666 C58.2923034,100.320655 58.2784185,100.299083 58.2693933,100.286557 C58.2596739,100.274032 58.2471774,100.26081 58.2437062,100.255243 C58.2395407,100.251068 58.2325983,100.248285 58.2325983,100.248285 C58.2159364,100.248285 58.2096882,100.215579 58.2082997,100.212795 C58.2041342,100.195398 58.1971918,100.175218 58.1930263,100.166868 C58.1860839,100.157125 58.1902493,100.139729 58.1985803,100.125811 C58.2069112,100.116765 58.2159364,100.088234 58.2173249,100.063879 C58.2201019,100.038827 58.2173249,100.008209 58.2138537,99.9970749 C58.2082997,99.9831575 58.1999688,99.9755029 58.1999688,99.9755029 C58.1999688,99.9755029 58.1930263,99.9741112 58.1916378,99.9713277 C58.1874723,99.964369 58.1971918,99.9497557 58.2041342,99.9414052 C58.2138537,99.926096 58.2298213,99.8975653 58.2409292,99.8787768 C58.2513429,99.8599882 58.274253,99.8258905 58.2881379,99.8029268 L58.2923034,99.7987516 C58.3068825,99.7757878 58.3381236,99.7458653 58.3603394,99.7319479 C58.379084,99.7201181 58.3936632,99.6950667 58.3922747,99.6776699 C58.3908862,99.6560979 58.4061596,99.623392 58.4276812,99.6052993 L58.4401776,99.5948612 C58.4589222,99.5781603 58.4700302,99.5510213 58.4644762,99.5350163 C58.4589222,99.5169236 58.4457316,99.5050938 58.4387891,99.5050938 C58.4332352,99.5050938 58.4276812,99.5023103 58.4235157,99.4981351 C58.4179618,99.4911764 58.4144905,99.4807383 58.415879,99.4696044 L58.415879,99.3909709 L58.415879,99.3728782 C58.415879,99.347131 58.4221272,99.3158168 58.4318467,99.3081622 C58.4429546,99.3012035 58.4714187,99.2970282 58.4929403,99.2970282 C58.5158504,99.2970282 58.5484799,99.2998117 58.565836,99.3053787 L58.574167,99.3067704 C58.5852749,99.3067704 58.5943001,99.2998117 58.597077,99.2914613 C58.6012425,99.2782397 58.5984655,99.255276 58.5943001,99.2399668 C58.5894404,99.2267452 58.5769439,99.2142195 58.565836,99.2142195 C58.5512569,99.2142195 58.5387604,99.2016939 58.5359835,99.1870806 C58.534595,99.1787301 58.5359835,99.1703796 58.5415374,99.1655085 C58.5443144,99.1599416 58.5512569,99.1571581 58.5581993,99.1571581 C58.5672245,99.1571581 58.5824979,99.1501994 58.5894404,99.1432407 C58.597077,99.1328026 58.6165159,99.1286274 58.6283181,99.1328026 C58.636649,99.1369778 58.647757,99.1314108 58.6512282,99.1216686 C58.6567821,99.1098388 58.6748325,99.0945297 58.6880232,99.0875709 C58.7032966,99.082004 58.7150987,99.0729576 58.7178757,99.0673907 C58.7220412,99.0590402 58.7345376,99.0458187 58.7435628,99.0374682 C58.7546707,99.027726 58.7761923,99.0214632 58.7928542,99.0214632 C58.8004909,99.0214632 58.8060449,99.0186797 58.8115988,99.0145044 C58.8143758,99.0103292 58.8157643,99.006154 58.8157643,99.000587 C58.8143758,98.9873655 58.8129873,98.9657934 58.8115988,98.9532678 C58.8115988,98.9449173 58.8143758,98.9365668 58.8185413,98.9316957 C58.8227068,98.9261288 58.8275665,98.924737 58.8275665,98.924737 C58.8456169,98.924737 58.8588075,98.9330875 58.86575,98.9449173 C58.8699154,98.9546595 58.8768579,98.957443 58.8810234,98.9560512 C58.8831061,98.9546595 58.8858831,98.9449173 58.8831061,98.935871 C58.8810234,98.924737 58.8740809,98.9080361 58.8699154,98.897598 C58.86575,98.8906393 58.854642,98.8878558 58.8470053,98.8920311 C58.8358974,98.8989898 58.8129873,98.9045568 58.7928542,98.9045568 C58.7734153,98.9045568 58.7491168,98.8850724 58.7380088,98.8635003 C58.7275952,98.8405366 58.7331491,98.8092224 58.7491168,98.7939132 C58.7602247,98.7834751 58.7775808,98.7723412 58.7949369,98.762599 C58.602631,98.5928063 58.3888035,98.4459775 58.1555371,98.3318546 C58.1319327,98.3443802 58.1062456,98.3555142 58.0861125,98.3589935 C58.059037,98.367344 58.0118283,98.3958747 57.9840585,98.421622 C57.9555944,98.4473692 57.9194937,98.4953843 57.9014433,98.5266986 C57.8826987,98.5594045 57.8514576,98.605332 57.8313245,98.6296875 C57.8174396,98.643605 57.804249,98.6512595 57.7889756,98.6512595 C57.7785619,98.6512595 57.767454,98.6463884 57.7619,98.6352545 C57.7514863,98.6199453 57.7348244,98.610899 57.7237165,98.6178577 C57.7077489,98.6255123 57.6848388,98.6178577 57.6765078,98.5997651 C57.6681769,98.5851518 57.6508208,98.5601004 57.6383243,98.5468788 C57.6237452,98.5315697 57.6140258,98.5016472 57.6168027,98.4814669 C57.6195797,98.4640701 57.6334646,98.4383229 57.6438783,98.4230137 C57.6535977,98.4125756 57.6563747,98.40005 57.6535977,98.3958747 C57.6508208,98.388916 57.6348531,98.3743027 57.6168027,98.3631688 C57.5966696,98.351339 57.5800077,98.3242 57.5800077,98.2991486 C57.5800077,98.2747931 57.5966696,98.2462624 57.6168027,98.2344325 C57.6251337,98.2302573 57.6334646,98.2288656 57.6411013,98.2288656 C57.6563747,98.2288656 57.6709539,98.2358243 57.6806733,98.2476541 C57.6848388,98.2532211 57.6876158,98.2560046 57.6890042,98.2573963 C57.6890042,98.2399995 57.6931697,98.2163399 57.6994179,98.2031183 C57.7021949,98.1947679 57.7049719,98.1759793 57.7077489,98.1564949 C57.512666,98.0994335 57.3106406,98.0632482 57.1016728,98.0493307 C57.1100037,98.0562895 57.1190289,98.0618564 57.1273598,98.0660317 C57.1516584,98.0764697 57.1870649,98.09665 57.207198,98.1105674 C57.2308024,98.1265725 57.249547,98.1551032 57.249547,98.1773711 L57.249547,98.2316491 C57.249547,98.237216 57.2613492,98.2560046 57.2877305,98.2720096 C57.3106406,98.2873188 57.3349392,98.3088908 57.3391046,98.3242 C57.3432701,98.3388133 57.3349392,98.3576018 57.3196658,98.3687357 C57.3078636,98.3756945 57.2849535,98.3875243 57.2696801,98.394483 C57.2537125,98.4014417 57.2252484,98.3916995 57.2058095,98.3715192 C57.1981728,98.361777 57.1870649,98.3555142 57.178734,98.3555142 C57.178734,98.3555142 57.1745685,98.3555142 57.1738743,98.3569059 C57.1683203,98.3631688 57.1683203,98.3861325 57.1801225,98.4125756 C57.1940074,98.4424981 57.1912304,98.4772917 57.175957,98.4939926 C57.1627663,98.5086059 57.1356908,98.5127811 57.1204174,98.5044307 C57.1176404,98.5030389 57.1162519,98.5030389 57.1162519,98.5030389 C57.1162519,98.5030389 57.1141692,98.5099976 57.1190289,98.5266986 C57.1218059,98.5399201 57.1218059,98.5496623 57.1176404,98.5580128 C57.1127807,98.5670591 57.0988958,98.5684508 57.0857051,98.5580128 C57.0662662,98.5440953 57.0350252,98.5315697 57.0162806,98.5308738 C56.9961475,98.529482 56.9690719,98.5127811 56.955187,98.4926009 C56.9454676,98.4758999 56.9253345,98.4612866 56.9142265,98.4598949 L56.8600754,98.4598949 C56.8413308,98.4626784 56.8184207,98.4598949 56.8059243,98.4557197 C56.8003703,98.4529362 56.7968991,98.4473692 56.7955106,98.4411064 C56.7927336,98.4299724 56.7982876,98.4174467 56.8073128,98.4056169 C56.8225862,98.3875243 56.8524387,98.372911 56.8767373,98.3715192 C56.8968704,98.3701275 56.923946,98.3589935 56.9350539,98.345772 C56.9406079,98.340205 56.9419963,98.334638 56.9419963,98.3332463 C56.9419963,98.3332463 56.9406079,98.3318546 56.9378309,98.3318546 C56.9308884,98.3304628 56.923946,98.3255917 56.9197805,98.3172413 C56.9135323,98.3061073 56.9121438,98.2873188 56.915615,98.269922 C56.9170035,98.2560046 56.915615,98.2448706 56.9121438,98.237216 C56.9107553,98.2344325 56.9065898,98.2316491 56.9024244,98.2302573 C56.8836797,98.2288656 56.8656294,98.2135564 56.8642409,98.1975514 C56.8642409,98.1919844 56.8572984,98.1919844 56.8572984,98.1919844 C56.8538272,98.1919844 56.8482732,98.1933761 56.8441078,98.1947679 C56.8302229,98.2031183 56.8114782,98.2177316 56.8059243,98.2302573 C56.7989818,98.2406954 56.7857912,98.2720096 56.7788487,98.2956692 C56.7719063,98.3200247 56.7531616,98.345772 56.7358055,98.345772 C56.7246976,98.345772 56.7017875,98.3541224 56.6892911,98.3631688 C56.6865141,98.3645605 56.6851256,98.367344 56.6837371,98.3715192 C56.6837371,98.3826532 56.6906796,98.3986582 56.7017875,98.4125756 C56.7177551,98.4313642 56.7260861,98.4501527 56.7219206,98.4640701 C56.7205321,98.4724206 56.7163666,98.4772917 56.7087299,98.4786834 C56.6906796,98.4828587 56.663604,98.4828587 56.6504133,98.4786834 C56.6365284,98.4758999 56.6163953,98.4772917 56.6080644,98.4828587 C56.595568,98.4898174 56.5740464,98.4953843 56.5594672,98.4939926 C56.5511363,98.4926009 56.5428053,98.4870339 56.5386398,98.4786834 C56.5351686,98.4710288 56.5351686,98.4598949 56.5379456,98.4473692 C56.5414168,98.4341477 56.5428053,98.4125756 56.5386398,98.4014417 L56.5365571,98.40005 C56.5282262,98.40005 56.5115643,98.4056169 56.4928197,98.421622 C56.4643556,98.4438899 56.4213124,98.4772917 56.3963196,98.4967761 C56.3706325,98.5169564 56.3206468,98.5454871 56.2866288,98.5601004 C56.2539993,98.5754096 56.2054021,98.6150742 56.179715,98.6470843 C56.1609704,98.6721357 56.1526395,98.6950994 56.154028,98.7069293 C56.154028,98.7124962 56.156805,98.7152797 56.156805,98.7152797 C56.1727726,98.7278054 56.1929057,98.7479857 56.2026251,98.7619031 C56.2109561,98.7723412 56.2380317,98.7918256 56.2637187,98.8036554 C56.2894058,98.8161811 56.3234238,98.8363614 56.3393915,98.8495829 C56.3518879,98.8607169 56.3817404,98.8746343 56.4018735,98.8788095 C56.411593,98.8795054 56.4199239,98.8864641 56.4247836,98.897598 C56.4303376,98.9136031 56.4289491,98.9379586 56.4213124,98.9616182 C56.406039,98.9964118 56.3990966,99.0374682 56.4018735,99.0527774 C56.403262,99.0659989 56.4171469,99.0799164 56.4289491,99.082004 C56.4442225,99.0847875 56.4643556,99.0701742 56.476852,99.0527774 C56.4900427,99.033293 56.5039276,98.9964118 56.5067046,98.9720563 C56.5101758,98.9435256 56.5296147,98.9136031 56.5497478,98.9045568 C56.5671039,98.897598 56.5983449,98.876026 56.6191723,98.8565416 C56.6379169,98.8391448 56.6504133,98.8008719 56.6462479,98.7723412 C56.6393054,98.73546 56.6518018,98.6950994 56.6733234,98.6797903 C56.6906796,98.6665687 56.7073414,98.6470843 56.7115069,98.6366462 C56.7163666,98.6255123 56.7246976,98.5928063 56.7302515,98.5684508 C56.737194,98.5385284 56.7545501,98.5141729 56.7719063,98.5141729 L56.8267516,98.5141729 C56.8441078,98.5141729 56.8739603,98.5253068 56.8954819,98.5371366 C56.915615,98.5482706 56.9419963,98.5670591 56.95241,98.578193 C56.9662949,98.5914146 56.9725431,98.6296875 56.9725431,98.6582183 C56.9711546,98.6825738 56.9850396,98.7034499 57.0003129,98.7048416 L57.0023957,98.7048416 C57.0204461,98.7048416 57.0558526,98.6895325 57.0787627,98.6693522 C57.0870936,98.6623935 57.0933418,98.65961 57.1016728,98.65961 C57.1245828,98.65961 57.1440217,98.6853572 57.1488814,98.7278054 L57.1530469,98.7577279 C57.1613778,98.8064389 57.1870649,98.8621086 57.209975,98.8795054 C57.2370506,98.9003815 57.2669031,98.9393503 57.2793995,98.9678811 C57.2898132,98.9978035 57.2898132,99.0430352 57.2793995,99.0715659 C57.2669031,99.0987049 57.2606549,99.1300191 57.2613492,99.1418489 C57.2613492,99.1529829 57.2738456,99.1759466 57.2898132,99.1926475 C57.3078636,99.2086526 57.3238312,99.2413585 57.3293852,99.2671058 C57.3349392,99.2942448 57.3266082,99.325559 57.3120291,99.3394764 C57.2967557,99.352698 57.2752341,99.3624402 57.2613492,99.3596567 C57.249547,99.3596567 57.2294139,99.3596567 57.2141405,99.3624402 C57.1967844,99.3666154 57.175957,99.3540897 57.1669318,99.3380847 C57.1599894,99.325559 57.1426332,99.3123374 57.1273598,99.3095539 C57.1162519,99.3067704 57.1086152,99.29842 57.1044497,99.2886778 C57.1016728,99.2796315 57.1030612,99.2671058 57.1100037,99.2559718 C57.1190289,99.2399668 57.1398562,99.2003021 57.1558239,99.168292 C57.1641548,99.1515911 57.1641548,99.1432407 57.1641548,99.1418489 C57.1641548,99.1418489 57.1599894,99.1432407 57.1558239,99.1460241 C57.1329138,99.1599416 57.0933418,99.1703796 57.0648778,99.1703796 C57.0419677,99.1703796 57.0246115,99.1829053 57.0246115,99.1940393 C57.0246115,99.2114361 57.0162806,99.217003 57.0079496,99.217003 C57.0010072,99.217003 56.9933705,99.2114361 56.9822626,99.2003021 C56.9690719,99.1842971 56.9350539,99.1703796 56.9093668,99.1703796 C56.8885395,99.1703796 56.8809028,99.1759466 56.8795143,99.1801218 L56.8809028,99.1815136 C56.8885395,99.1968228 56.9065898,99.2211783 56.915615,99.2371833 C56.9308884,99.2559718 56.9378309,99.287286 56.9336654,99.3067704 C56.9336654,99.3109457 56.9336654,99.3137292 56.9350539,99.3172085 C56.9392194,99.3227755 56.9468561,99.325559 56.955187,99.325559 L57.0204461,99.325559 C57.0308597,99.325559 57.0391907,99.3311259 57.0447446,99.3394764 C57.0516871,99.3499145 57.0530756,99.3638319 57.0502986,99.379837 C57.0433562,99.4055842 57.0246115,99.4327232 57.0037842,99.4410736 C56.986428,99.4494241 56.9454676,99.4696044 56.9121438,99.4863053 C56.8781258,99.5037021 56.8371653,99.5210989 56.8225862,99.5266658 C56.8114782,99.5294493 56.8031473,99.5266658 56.7989818,99.5183154 C56.7941221,99.5106608 56.7941221,99.4981351 56.7982876,99.4849135 C56.7989818,99.4779548 56.7989818,99.4723879 56.7982876,99.4709961 C56.7982876,99.4682126 56.7955106,99.4682126 56.7955106,99.4682126 C56.7899566,99.4682126 56.7871797,99.4682126 56.7844027,99.4696044 C56.765658,99.4779548 56.7205321,99.5050938 56.6851256,99.5308411 C56.6518018,99.5551966 56.6150068,99.5934695 56.6080644,99.6150415 C56.5969565,99.6421805 56.5768233,99.6623608 56.5608557,99.6623608 C56.5497478,99.6623608 56.5226722,99.6776699 56.5011506,99.7006337 C56.479629,99.7222057 56.43728,99.7646539 56.406039,99.7945763 C56.374798,99.8258905 56.3504994,99.8676428 56.3477224,99.8871272 C56.3435569,99.9128745 56.3289778,99.9518433 56.3123159,99.9755029 C56.2977367,99.9984667 56.2553878,100.038827 56.2199813,100.06875 L56.1915172,100.092409 C56.156805,100.12094 56.111679,100.159909 56.0943229,100.180785 C56.0790495,100.198182 56.0700243,100.239238 56.074884,100.267769 C56.0818265,100.299779 56.083215,100.367974 56.0790495,100.418077 C56.0762725,100.453567 56.0686358,100.514803 56.0533624,100.517587 L56.0519739,100.517587 C56.0373948,100.517587 56.0144847,100.463309 56.0075422,100.446608 C55.9922688,100.409031 55.9749127,100.357536 55.9679702,100.331093 C55.9624163,100.306738 55.9506141,100.293516 55.9436717,100.293516 L55.9395062,100.293516 C55.927704,100.293516 55.9082652,100.283774 55.89924,100.271248 C55.8922975,100.263594 55.862445,100.253851 55.8339809,100.253851 C55.8041284,100.253851 55.7770528,100.267769 55.7701103,100.279599 C55.7603909,100.299083 55.7402578,100.313696 55.7256786,100.313696 C55.7104053,100.313696 55.6888836,100.308129 55.6749987,100.299083 C55.6645851,100.293516 55.6347325,100.286557 55.60488,100.286557 C55.5791929,100.286557 55.5437864,100.297691 55.525736,100.310913 C55.5083799,100.32483 55.4840813,100.343619 55.4701964,100.353361 C55.4583942,100.361016 55.4403438,100.379108 55.4313187,100.39233 C55.4243762,100.404856 55.4104913,100.450783 55.4028546,100.501582 C55.3959121,100.548901 55.3889697,100.626143 55.3889697,100.67555 C55.3889697,100.721477 55.4056316,100.784106 55.4243762,100.812636 C55.4417323,100.839775 55.4785273,100.859956 55.5042144,100.859956 L55.5056029,100.859956 C55.5326785,100.858564 55.565308,100.846734 55.5778044,100.832817 C55.5896066,100.818203 55.6104339,100.781322 55.6208476,100.752791 C55.636121,100.720085 55.6736103,100.694338 55.7076283,100.694338 C55.7270671,100.694338 55.7444233,100.702689 55.7569197,100.717302 C55.7645564,100.728436 55.7687219,100.743049 55.7673334,100.758358 C55.7645564,100.788281 55.7513657,100.846734 55.7347038,100.887095 C55.7201247,100.929543 55.7090168,100.974078 55.7090168,100.989388 C55.7090168,100.998434 55.7305384,101.012351 55.7631679,101.012351 C55.7999629,101.012351 55.8423119,101.024181 55.8610565,101.040882 C55.8798011,101.056887 55.8867435,101.109077 55.8770241,101.160572 C55.8679989,101.203716 55.8693874,101.266344 55.8798011,101.297659 C55.890909,101.326189 55.9165961,101.358895 55.9353407,101.367246 C55.9478371,101.372117 55.9679702,101.376292 55.9860206,101.376292 C55.9936573,101.376292 56.0005998,101.3749 56.0075422,101.373509 C56.0290638,101.368638 56.0672473,101.3749 56.0915459,101.388818 C56.1040423,101.395777 56.117233,101.399952 56.1283409,101.399952 C56.1332006,101.399952 56.1373661,101.39856 56.1373661,101.397168 C56.1443085,101.39021 56.1616647,101.357504 56.179715,101.322014 C56.1970712,101.285133 56.2283122,101.257994 56.2512223,101.260777 C56.2706612,101.263561 56.2949598,101.254515 56.3060677,101.240597 C56.3178699,101.225984 56.3366145,101.209283 56.3477224,101.209283 C56.3602188,101.209283 56.3678555,101.2232 56.3678555,101.240597 C56.3706325,101.243381 56.3831289,101.251731 56.4102045,101.251731 C56.4345031,101.251731 56.4671326,101.260777 56.476852,101.276087 C56.4831002,101.285133 56.4983736,101.293483 56.5080931,101.293483 C56.5226722,101.293483 56.5469708,101.304617 56.5650212,101.319231 C56.5768233,101.330365 56.6011219,101.33454 56.6136183,101.330365 C56.6281975,101.323406 56.660827,101.316447 56.6851256,101.316447 C56.7122012,101.316447 56.7385825,101.333148 56.7462192,101.353328 C56.7517731,101.368638 56.7719063,101.394385 56.7927336,101.41039 C56.8114782,101.427091 56.8538272,101.470235 56.8809028,101.505724 C56.9079783,101.537038 56.95241,101.562786 56.9780971,101.561394 C57.0079496,101.55861 57.0516871,101.577399 57.0787627,101.603842 C57.1030612,101.628198 57.1301368,101.667166 57.1398562,101.690826 C57.1474929,101.711006 57.1641548,101.739537 57.1745685,101.751367 C57.1870649,101.765284 57.1981728,101.804949 57.1967844,101.839743 C57.1953959,101.866882 57.2058095,101.89402 57.2210829,101.898196 C57.2384391,101.903763 57.2696801,101.913505 57.2912017,101.920464 C57.3120291,101.926726 57.3522953,101.953865 57.3821478,101.982396 C57.4120004,102.010231 57.4460184,102.030411 57.4585148,102.030411 C57.4744825,102.030411 57.5140544,102.031803 57.546684,102.034587 C57.5786193,102.03737 57.6320761,102.064509 57.6647057,102.095823 C57.6966409,102.126442 57.7320475,102.152885 57.7445439,102.156364 C57.7619,102.161931 57.7799504,102.17724 57.7848101,102.191853 C57.793141,102.207163 57.795918,102.260049 57.795918,102.301801 C57.795918,102.349816 57.7799504,102.421491 57.759123,102.462547 C57.7417669,102.503604 57.7077489,102.555098 57.6876158,102.578062 C57.6681769,102.598242 57.6480438,102.643474 57.6424898,102.67618 C57.6383243,102.709582 57.6348531,102.779169 57.6348531,102.830663 L57.6348531,102.845973 C57.6348531,102.897467 57.6265222,102.974709 57.6168027,103.018549 C57.6077776,103.061693 57.5841732,103.115971 57.5654286,103.13963 C57.5494609,103.162594 57.501558,103.191125 57.4626803,103.202955 C57.4244968,103.214089 57.3731227,103.244011 57.3460471,103.269758 C57.3210543,103.292722 57.3064751,103.342129 57.3148061,103.376923 C57.3224427,103.417979 57.3161945,103.479216 57.3009211,103.513313 C57.2877305,103.546019 57.2564894,103.60656 57.2328851,103.6504 L57.2308024,103.651792 C57.2224714,103.667797 57.212752,103.685889 57.2023383,103.704678 C58.6283181,103.556457 59.740499,102.349816 59.740499,100.880136 C59.740499,100.786889 59.7363335,100.694338 59.7280026,100.601787 C59.7189774,100.612921 59.7106464,100.623359 59.7050925,100.633101" id="Fill-52" fill="#999999"></path>
                    <g id="Group-56" transform="translate(0.000000, 0.123169)">
                        <mask id="mask-2" fill="white">
                            <use xlink:href="#path-1"></use>
                        </mask>
                        <g id="Clip-55"></g>
                        <path d="M92.4620832,46.9182973 C92.4620832,72.5103615 72.2866217,88.0220319 46.7543637,88.0220319 C7.9266147,88.0220319 -0.000277698105,72.5103615 -0.000277698105,46.9182973 C-0.000277698105,21.3262331 20.6986448,0.57882587 46.2309028,0.57882587 C71.763855,0.57882587 92.4620832,21.3262331 92.4620832,46.9182973" id="Fill-54" fill="#D0D2D3" mask="url(#mask-2)"></path>
                    </g>
                    <path d="M0,47.0416057 C0,72.6336699 7.9268924,88.1460362 46.7546414,88.1460362 L46.7546414,88.1460362 C72.2868994,88.1460362 92.4623609,72.6336699 92.4623609,47.0416057 L92.4623609,47.0416057 C92.4623609,21.4488456 71.7641327,0.70213429 46.2311805,0.70213429 L46.2311805,0.70213429 C20.6982282,0.70213429 0,21.4488456 0,47.0416057" id="Fill-58"></path>
                    <g id="Group-97" transform="translate(1.388491, 0.123169)">
                        <polygon id="Fill-60" fill="#FFFFFF" points="2.63861797 28.9792185 6.62358577 32.1718767 8.70215608 27.5004917 8.69590787 32.6137551 13.6340744 31.3305681 9.63938718 34.5134841 13.7208551 37.5836689 8.74867051 36.4396563 8.89932173 41.5508321 6.6916218 36.9406837 2.79760013 40.2446814 5.01710223 35.6414917 0.0122881411 34.649179 4.98724968 33.5183879"></polygon>
                        <g id="Group-64" transform="translate(41.654716, 0.000000)">
                            <mask id="mask-4" fill="white">
                                <use xlink:href="#path-3"></use>
                            </mask>
                            <g id="Clip-63"></g>
                            <path d="M0.588442284,0.652379482 C0.588442284,0.652379482 6.14795834,11.4439539 6.14795834,21.685094 C6.14795834,21.685094 14.3511603,21.4471059 24.8002458,23.2194905 C24.8002458,23.2194905 26.6469382,12.1600056 20.3091732,3.86243447 C20.3091732,3.86243447 11.6491578,-0.0288786651 0.588442284,0.652379482" id="Fill-62" fill="#C0C0C5" mask="url(#mask-4)"></path>
                        </g>
                        <path d="M17.7751086,22.7421923 C12.9383018,32.7599577 11.8157072,54.6284138 17.816069,69.1185449 C23.8171251,83.6079802 69.7352009,80.2260449 78.4132667,77.3520959 C90.084918,73.48653 94.1858248,38.4988095 85.0842694,25.4797506 C81.2659204,20.0185514 53.0476276,15.738942 38.8183767,15.738942 C29.0267415,15.738942 20.6388703,16.8133676 17.7751086,22.7421923" id="Fill-65" fill="#F1F1F1"></path>
                        <path d="M38.8180296,17.7113897 C27.3032776,17.7113897 21.5403477,19.4726403 19.5457811,23.6019415 C14.8582371,33.3107399 13.8994844,54.5160305 19.6325617,68.3617847 C22.1089346,74.3393204 34.644227,77.9077492 53.1680791,77.9084451 L53.1708561,77.9084451 C63.8518194,77.9084451 74.2682753,76.6468302 77.7950413,75.4791579 C80.7247563,74.5091131 83.4094027,70.7326187 85.3581491,64.8462422 C90.1324738,50.4187394 88.2371842,33.4276463 83.4718848,26.6115855 C80.5268964,22.3994756 54.3406594,17.7113897 38.8180296,17.7113897 M53.1708561,81.8533403 L53.1680791,81.8533403 C26.5465503,81.8526445 18.2607331,75.3385918 15.9974936,69.8746092 C9.69513508,54.6531172 10.9426938,32.3657465 16.004436,21.8824431 C19.4485868,14.7490649 29.0048728,13.7657986 38.8180296,13.7657986 C50.5646594,13.7657986 81.8896998,17.4740975 86.6952655,24.3472198 C91.9874971,31.9169094 94.4076361,50.0276597 89.0938829,66.0883727 C86.7098447,73.291338 83.2309817,77.833291 79.0301036,79.224338 C75.1832906,80.4991745 64.8126549,81.8533403 53.1708561,81.8533403" id="Fill-67" fill="#9EA0A3"></path>
                        <path d="M38.8180296,17.7113897 C27.3032776,17.7113897 21.5403477,19.4726403 19.5457811,23.6019415 C14.8582371,33.3107399 13.8994844,54.5160305 19.6325617,68.3617847 C22.1089346,74.3393204 34.644227,77.9077492 53.1680791,77.9084451 L53.1708561,77.9084451 C63.8518194,77.9084451 74.2682753,76.6468302 77.7950413,75.4791579 C80.7247563,74.5091131 83.4094027,70.7326187 85.3581491,64.8462422 C90.1324738,50.4187394 88.2371842,33.4276463 83.4718848,26.6115855 C80.5268964,22.3994756 54.3406594,17.7113897 38.8180296,17.7113897 M53.1708561,81.8533403 L53.1680791,81.8533403 C26.5465503,81.8526445 18.2607331,75.3385918 15.9974936,69.8746092 C9.69513508,54.6531172 10.9426938,32.3657465 16.004436,21.8824431 C19.4485868,14.7490649 29.0048728,13.7657986 38.8180296,13.7657986 C50.5646594,13.7657986 81.8896998,17.4740975 86.6952655,24.3472198 C91.9874971,31.9169094 94.4076361,50.0276597 89.0938829,66.0883727 C86.7098447,73.291338 83.2309817,77.833291 79.0301036,79.224338 C75.1832906,80.4991745 64.8126549,81.8533403 53.1708561,81.8533403" id="Fill-73" fill="#9EA0A3"></path>
                        <path d="M9.01699631,73.1969779 C8.28595604,73.5323879 7.42092645,73.2199416 7.07102684,72.4913642 C-1.853496,53.800953 5.59575566,35.3318289 5.91719121,34.5559323 C6.22751884,33.8016076 7.0904657,33.4439297 7.84302757,33.7549842 C8.59697792,34.0681264 8.95451423,34.9337905 8.6441866,35.6881151 C8.5705966,35.8662582 1.39140635,53.7438916 9.73415166,71.2123525 C10.0868283,71.9506721 9.77511213,72.8344288 9.0399064,73.1858439 C9.03296395,73.1900192 9.02532725,73.1941944 9.01699631,73.1969779" id="Fill-75" fill="#FFFFFF"></path>
                        <path d="M33.5610656,42.6764737 C33.3805618,42.6764737 33.200058,42.6096701 33.0577378,42.4781503 C32.7599065,42.1991059 32.7432447,41.7321762 33.0202485,41.4329514 L35.1175635,39.172761 C35.3959558,38.8735363 35.8631829,38.8575312 36.1603198,39.134488 C36.4602338,39.4135325 36.4762014,39.8804622 36.1985033,40.179687 L34.1004941,42.4398774 C33.9553969,42.5964485 33.7589255,42.6764737 33.5610656,42.6764737" id="Fill-77" fill="#9B9B9B"></path>
                        <path d="M36.4437802,42.6764737 C36.2632764,42.6764737 36.0834669,42.6096701 35.9418409,42.4781503 C35.6426211,42.1991059 35.6259593,41.7321762 35.9043516,41.4329514 L38.0016665,39.172761 C38.2786704,38.8735363 38.747286,38.8575312 39.0444229,39.134488 C39.3429484,39.4135325 39.358916,39.8804622 39.0826064,40.179687 L36.9845972,42.4398774 C36.8395,42.5964485 36.6416401,42.6764737 36.4437802,42.6764737" id="Fill-79" fill="#9B9B9B"></path>
                        <path d="M39.3278833,42.6764737 C39.1473795,42.6764737 38.9668757,42.6096701 38.8245555,42.4781503 C38.5267242,42.1991059 38.5100624,41.7321762 38.7870662,41.4329514 L40.8843811,39.172761 C41.1627735,38.8735363 41.631389,38.8575312 41.9271375,39.134488 C42.2270515,39.4135325 42.2430191,39.8804622 41.965321,40.179687 L39.8673118,42.4398774 C39.7222146,42.5964485 39.5257432,42.6764737 39.3278833,42.6764737" id="Fill-81" fill="#9B9B9B"></path>
                        <path d="M73.8774153,46.4154606 C73.6969115,46.4154606 73.5164077,46.3500487 73.3754759,46.2171372 C73.0762562,45.9394845 73.0595943,45.471163 73.3379867,45.1719383 L75.4353016,42.9117478 C75.713694,42.6125231 76.180921,42.5965181 76.478058,42.8734749 C76.7765835,43.1525194 76.7925511,43.6194491 76.5162415,43.9200656 L74.4182323,46.180256 C74.2731351,46.3368271 74.0752752,46.4154606 73.8774153,46.4154606" id="Fill-83" fill="#9B9B9B"></path>
                        <path d="M76.7615183,46.4154606 C76.5810146,46.4154606 76.4005108,46.3500487 76.2581905,46.2171372 C75.9603593,45.9394845 75.9436974,45.471163 76.2207013,45.1719383 L78.3180162,42.9117478 C78.5964086,42.6125231 79.0650241,42.5965181 79.3607726,42.8734749 C79.6606866,43.1525194 79.6766542,43.6194491 79.3989561,43.9200656 L77.3009469,46.180256 C77.1558497,46.3368271 76.9593782,46.4154606 76.7615183,46.4154606" id="Fill-85" fill="#9B9B9B"></path>
                        <path d="M79.6443024,46.4154606 C79.4637986,46.4154606 79.2832948,46.3500487 79.142363,46.2171372 C78.8431433,45.9394845 78.8264815,45.471163 79.1048738,45.1719383 L81.2021887,42.9117478 C81.4791926,42.6125231 81.9478081,42.5965181 82.2449451,42.8734749 C82.5434706,43.1525194 82.5594382,43.6194491 82.2831286,43.9200656 L80.1851194,46.180256 C80.0400222,46.3368271 79.8421623,46.4154606 79.6443024,46.4154606" id="Fill-87" fill="#9B9B9B"></path>
                        <path d="M74.7439028,34.8601673 C74.7439028,32.9639176 76.2774905,31.4253458 78.1693089,31.4253458 C80.060433,31.4253458 81.5940208,32.9639176 81.5940208,34.8601673 C81.5940208,36.756417 80.060433,38.293597 78.1693089,38.293597 C76.2774905,38.293597 74.7439028,36.756417 74.7439028,34.8601673" id="Fill-89" fill="#9B9B9B"></path>
                        <path d="M54.1974366,44.9366642 C53.9815263,44.5901202 54.08844,44.1343244 54.4348684,43.9179084 L58.8835921,41.1469483 C59.1300491,40.9938566 59.4431537,40.9994235 59.6833626,41.1601698 L63.3281502,43.6040704 C63.6669419,43.8309244 63.757888,44.2908955 63.5315641,44.6304807 C63.3052401,44.970066 62.8470383,45.0612252 62.5075523,44.8343711 L59.2591788,42.6555976 L55.2131174,45.1753481 C55.0923187,45.2505022 54.9576351,45.2866875 54.8250343,45.2866875 C54.5785772,45.2866875 54.3369799,45.1621265 54.1974366,44.9366642 Z" id="Fill-93" fill="#9B9B9B"></path>
                        <path d="M36.1481705,30.9513182 C36.1481705,28.7941167 37.8935031,27.0453917 40.0449692,27.0453917 C42.198518,27.0453917 43.9438506,28.7941167 43.9438506,30.9513182 C43.9438506,33.1099114 42.198518,34.8586363 40.0449692,34.8586363 C37.8935031,34.8586363 36.1481705,33.1099114 36.1481705,30.9513182" id="Fill-95" fill="#9B9B9B"></path>
                    </g>
                    <g id="Group-104" transform="translate(56.233866, 64.143342)" fill="#DCE1E3">
                        <path d="M0.199317815,45.6420691 C0.577681482,45.2829994 14.3362341,0.0186493548 14.3362341,0.0186493548 L28.1003406,0.494625425 L37.8107491,0.916323522 L47.9245141,1.17936293 L28.1440781,40.2588075 L0.199317815,45.6420691 Z" id="Fill-102"></path>
                    </g>
                    <path d="M84.3778748,104.402289 L104.158311,65.3235404 L94.0445459,65.0598051 L90.9829243,69.6003663 L95.4316479,69.2496471 L86.1037686,78.8596318 L89.3417285,78.0552044 L78.1012034,92.3358782 L83.1421183,82.9061242 L77.0480334,84.1211158 L84.3348316,64.638107 L70.5700308,64.1621309 C70.5700308,64.1621309 56.8114782,109.427177 56.4331146,109.784855 L84.3778748,104.402289 Z" id="Fill-105"></path>
                    <g id="Group-113" transform="translate(24.992829, 94.065815)" fill="#666666">
                        <path d="M32.2566482,8.55838376 C32.2566482,8.55838376 35.3578417,6.21816808 36.7366128,7.81658479 C38.1153839,9.41430564 38.2785316,12.3654964 37.5315237,12.9214977 C36.7831273,13.4754114 32.9890769,14.5533163 32.8599473,13.1059037 C32.7301234,11.6598828 31.5242194,10.7100183 31.5242194,10.7100183 L32.2566482,8.55838376 Z" id="Fill-107"></path>
                        <path d="M64.0128843,5.55472424 C64.0128843,5.55472424 61.3400401,6.99796162 61.1380147,5.19217522 C60.9359893,3.38708468 61.9440335,0.612645222 62.5848218,0.273059956 C63.2263045,-0.0665253104 65.8269472,-0.175081256 65.3618029,1.19717724 C64.8952701,2.56873986 65.24031,3.73223692 65.24031,3.73223692 L64.0128843,5.55472424 Z" id="Fill-109"></path>
                        <path d="M25.6111242,14.8755743 C21.5241024,14.8755743 17.0795442,13.9326685 12.4003312,12.0475528 C5.86609476,9.41576697 1.18757594,5.91066249 0.992493026,5.76313774 C0.124686449,5.10832271 -0.0488748664,3.87315089 0.603021434,3.00261571 C1.25700047,2.13347227 2.4906743,1.95811267 3.35848088,2.61084008 C3.53343068,2.74235979 20.9249687,15.6445123 33.8594522,9.08035693 C34.8300071,8.58698407 36.0123068,8.97667208 36.5045266,9.94950037 C36.995358,10.9216328 36.6065807,12.1080936 35.6367201,12.6000747 C32.6459115,14.1177703 29.2718795,14.8755743 25.6111242,14.8755743" id="Fill-111"></path>
                    </g>
                </g>
            </g>
        </g>
    </g>
</svg>