<svg width="400" height="400" xmlns="http://www.w3.org/2000/svg"><g fill="none" fill-rule="evenodd"><path d="M199.735 399.47c110.31 0 199.735-89.424 199.735-199.735C399.47 89.425 310.046 0 199.735 0 89.425 0 0 89.424 0 199.735 0 310.045 89.424 399.47 199.735 399.47z" fill="#EDF3F8"/><path d="M268.36 239.55c-7.98-1.04-15.324 6.268-16.554 16.118-.562 4.66.286 9.238 2.426 12.91 2.274 3.87 5.705 6.296 9.642 6.8.505.057 1.005.09 1.5.09 7.418 0 13.904-6.985 15.078-16.23.584-4.67-.28-9.242-2.426-12.926-2.275-3.875-5.695-6.295-9.665-6.762zm-8.463-112.2c10.586-.595 23.833-.13 23.833-.13-7.514 12.62-26.888 49.453-28.264 68.3-.084 2.05.062 4.133.78 5.795 0 0-19.51 1.68-67.158 20.352a383.776 383.776 0 0 0-18.128 9.62c-.045.028-.067.022-.107.05-6.35 3.51-7.677-5.464-7.677-5.464h-.016c-.54-4.285-1.08-8.35-1.584-11.95v-.01c-.472-4.696-1.196-9.717-2.005-14.546 19.662-10.384 51.425-23.452 57.765-25.872 9.03-3.443 7.924-15.22 8.777-33.285 0 0 .843-8.34 1.185-11.62 1.095-10.14-4.925-16.245-8.974-16.717-.91-.124-1.898.045-2.998.118-20.987 1.652-77.93 19.64-97.805 26.075-7.75-11.715-15.308-21.014-22.098-27.315v-.017c-5.004-4.846-9.766-9.946-16.325-9.946-6.576 0-11.905 5.33-11.905 11.895 0 6.553 5.453 11.21 10.305 15.965h.005c3.302 3.432 7.525 7.278 12.742 11.66 40.086 36.046 51.997 92.238 55.355 116.38-4.87 3.538-8.475 9.126-9.952 15.567-1.42 6.155-.798 12.433 1.724 17.656 2.623 5.442 6.98 9.092 12.26 10.3 1.212.297 2.498.432 3.767.432 9.597 0 18.458-8.2 21.053-19.453 2.41-10.497-1.1-20.566-8.3-25.39 47.588-31.482 92.497-44.168 114.37-50.35 2.4-.675 4.555-1.3 6.43-1.815 5.308-1.584 9.452-2.7 12.698-3.578 9.963-2.678 13.35-3.6 12.934-8.974-.286-3.667-5.155-3.667-6.728-3.667-5.228 0-14.702 1.49-28.224 4.398 2.055-10.794 8.547-33.937 29.213-69.94.758-1.212 3.027-4.952 1.32-8.02-1.865-3.323-6.605-3.357-12.08-3.39-1.775 0-3.572-.023-5.284-.158-3.526-.27-11.27-.45-19.217-.45-28.33 0-31.128 1.04-32.038 1.663l-.63.41-.313.7c-1.27 7.16-4.65 14.675 3.762 16.876 5.802 1.517 6.694-1.52 17.533-2.156zm-113.164 22.688c19.28-7.553 47.055-17.774 54.956-18.965.06.826.168 1.78.252 2.864 1.87 20.57.668 24.558-1.27 26.57-2.47 2.587-12.865 6.76-23.018 12.33-7.885 4.308-16 8.705-20.896 11.272-.197-.922-.377-1.77-.545-2.568a188.995 188.995 0 0 0-1.415-6.537c-.023-.067-.023-.09-.023-.09-1.864-7.934-4.61-17.953-8.042-24.877" fill="#FFF"/></g></svg>