<?xml version="1.0" encoding="UTF-8"?>
<svg width="16px" height="11px" viewBox="0 0 16 11" version="1.1" xmlns="http://www.w3.org/2000/svg" xmlns:xlink="http://www.w3.org/1999/xlink">
    <!-- Generator: sketchtool 41.2 (35397) - http://www.bohemiancoding.com/sketch -->
    <title>79970CFC-DF57-40B4-9C73-D7A0063A4B4E</title>
    <desc>Created with sketchtool.</desc>
    <defs></defs>
    <g id="Page-1" stroke="none" stroke-width="1" fill="none" fill-rule="evenodd">
        <g id="P6_search_discount" transform="translate(-347.000000, -258.000000)">
            <g id="Group-30" transform="translate(0.000000, 197.000000)">
                <g id="ic_checkin_sort" transform="translate(347.000000, 58.000000)">
                    <rect id="Rectangle-5" x="0" y="0" width="16" height="16"></rect>
                    <path d="M6.64462319,12.3982092 L2.09163286,9.21017109 C1.77239736,8.98663999 1.34512753,9.06687238 1.1252273,9.38092246 C0.903793961,9.69716204 0.981472851,10.1277003 1.29530367,10.347447 L6.31626884,13.8631647 C6.62031606,14.0760609 7.02236223,14.0134103 7.24991356,13.7356427 C7.35604105,13.6909227 7.45260819,13.6191021 7.52868793,13.5217245 L14.8520251,4.14828039 C15.0940765,3.83846864 15.0353843,3.40877744 14.7332733,3.17274246 C14.429056,2.93506189 13.9945106,2.99078238 13.7579844,3.29352212 L6.64462319,12.3982092 Z" id="Combined-Shape" fill="#3E82F7" transform="translate(8.000000, 8.500000) rotate(8.000000) translate(-8.000000, -8.500000) "></path>
                </g>
            </g>
        </g>
    </g>
</svg>