<?xml version="1.0" encoding="UTF-8"?>
<svg width="18px" height="15px" viewBox="0 0 18 15" version="1.1" xmlns="http://www.w3.org/2000/svg" xmlns:xlink="http://www.w3.org/1999/xlink">
    <!-- Generator: sketchtool 41.2 (35397) - http://www.bohemiancoding.com/sketch -->
    <title>909458D1-409A-48B6-9570-22C5607FFF9C</title>
    <desc>Created with sketchtool.</desc>
    <defs></defs>
    <g id="Page-1" stroke="none" stroke-width="1" fill="none" fill-rule="evenodd">
        <g id="P6_search_discount" transform="translate(-341.000000, -213.000000)">
            <g id="Group-30" transform="translate(0.000000, 197.000000)">
                <g id="iconfont-shaixuan" transform="translate(323.000000, 11.000000)">
                    <g id="ic_filter_normal_filter" transform="translate(15.000000, 0.000000)">
                        <g id="Group-6">
                            <rect id="Rectangle-4" x="0" y="0" width="24" height="24"></rect>
                            <path d="M3,19.9934924 L3,18.0584989 L9.8795141,11.6146291 L9.8795141,6.32234273 L14.1126768,5 L14.1126768,11.1735705 L20.9921909,18.0584989 L20.9921909,19.9934924 L3,19.9934924 L3,19.9934924 L3,19.9934924 Z M19.9341501,18.499974 L13.0541362,11.6150456 L13.0541362,6.32275922 L10.9375549,6.76423427 L10.9375549,12.0556876 L4.05854056,18.499974 L4.05854056,19.1113753 L19.9341501,19.1113753 L19.9341501,18.499974 L19.9341501,18.499974 L19.9341501,18.499974 Z" id="Shape" fill="#999999" transform="translate(11.996095, 12.496746) scale(1, -1) translate(-11.996095, -12.496746) "></path>
                        </g>
                    </g>
                </g>
            </g>
        </g>
    </g>
</svg>