<?xml version="1.0" encoding="UTF-8"?>
<svg width="269px" height="121px" viewBox="0 0 269 121" version="1.1" xmlns="http://www.w3.org/2000/svg" xmlns:xlink="http://www.w3.org/1999/xlink">
    <!-- Generator: sketchtool 41.2 (35397) - http://www.bohemiancoding.com/sketch -->
    <title>70AA6051-6BE7-4E1E-87C8-08AD44DB8C6B</title>
    <desc>Created with sketchtool.</desc>
    <defs>
        <polyline id="path-1" points="0 0.161919192 89.6552829 0.161919192 89.6552829 140 0 140"></polyline>
        <linearGradient x1="55.098474%" y1="100%" x2="55.0984735%" y2="0%" id="linearGradient-3">
            <stop stop-color="#F4F7F8" stop-opacity="0.927083333" offset="0%"></stop>
            <stop stop-color="#DEE5E8" offset="100%"></stop>
        </linearGradient>
    </defs>
    <g id="Page-1" stroke="none" stroke-width="1" fill="none" fill-rule="evenodd">
        <g id="P3_search_blank" transform="translate(-53.000000, -334.000000)">
            <g id="pic_default_search" transform="translate(53.000000, 334.000000)">
                <g id="Group-48-Copy" transform="translate(109.211765, 65.504587)">
                    <path d="M4.4106817,0.981920119 C4.4106817,0.981920119 -5.02005988,31.3675767 7.0181214,41.0584521 C20.0790045,51.5730649 44.66056,50.5772737 44.614375,30.6048831 C44.5672426,9.89713897 33.8703213,5.40794705 37.7839677,1.96286288 L4.4106817,0.981920119 Z" id="Fill-39" fill="#BBBDBF"></path>
                    <path d="M1.66428434,14.0498359 C1.66428434,14.0498359 31.6243799,17.6676811 41.3305736,13.1848528 C41.3305736,13.1848528 43.077788,17.5312164 43.3681614,19.38657 C43.4602946,19.9821592 29.3378668,23.4934723 22.548434,22.5396339 C15.7590011,21.5860312 1.12664349,19.3592299 1.19343411,18.3912501 L1.66428434,14.0498359 Z" id="Fill-41" fill="#6D6E70"></path>
                    <path d="M1.08557436,26.9280918 C1.08557436,26.9280918 14.225801,30.9357686 24.4824252,30.6489336 C34.7407074,30.36257 44.4080583,25.8969471 44.4080583,25.8969471 C44.5515871,28.0282939 44.7777752,30.5209538 44.5672189,32.1509875 C44.5672189,32.1509875 35.8910693,36.4688326 24.4824252,36.7551962 C13.0740179,37.0406171 2.35720155,33.7616945 2.35720155,33.7616945 C2.35720155,33.7616945 1.17770753,30.5537147 1.08557436,26.9280918" id="Fill-43" fill="#6D6E70"></path>
                </g>
                <g id="Group-48" transform="translate(96.388235, 0.000000)">
                    <g id="Group-47">
                        <mask id="mask-2" fill="white">
                            <use xlink:href="#path-1"></use>
                        </mask>
                        <g id="Clip-46"></g>
                        <path d="M89.6553066,44.7710101 C89.6553066,69.4077104 80.2373547,84.340101 45.3347528,84.340101 C12.550977,84.340101 2.36846188e-05,69.4077104 2.36846188e-05,44.7710101 C2.36846188e-05,20.1343098 20.0696593,0.161919192 44.8274283,0.161919192 C69.5849605,0.161919192 89.6553066,20.1343098 89.6553066,44.7710101" id="Fill-45" fill="#D0D1D2" mask="url(#mask-2)"></path>
                    </g>
                </g>
                <g id="Group-110" transform="translate(0.179326, 0.000000)">
                    <polygon id="Fill-52" fill="#FFFFFF" points="113.360363 6.43820875 115.586954 10.8328889 119.300702 7.57918519 117.235877 12.0523502 122.107092 12.9121481 117.303378 14.0934276 119.666392 18.4216431 115.743035 15.4229562 113.816765 19.9576364 113.726764 15.034303 108.963313 16.3633603 112.774642 13.2249091 108.759862 10.3464242 113.602183 11.3549428"></polygon>
                    <path d="M134.452392,0.640794613 C134.452392,0.640794613 138.580384,10.7285724 139.64335,20.4875623 C139.64335,20.4875623 146.215121,18.251569 156.346928,19.9577306 C156.346928,19.9577306 158.053404,9.57958249 154.283997,2.14284848 C154.283997,2.14284848 144.750938,-0.939508418 134.452392,0.640794613" id="Fill-54" fill="#F1F1F2"></path>
                    <path d="M101.862688,47.0554141 C101.083701,47.0554141 100.445874,46.433899 100.432137,45.6554141 C100.089184,25.7103636 114.093662,12.5378721 114.689804,11.987064 C115.268182,11.4518114 116.170803,11.4845724 116.710102,12.0601279 C117.248927,12.6361549 117.216005,13.5374343 116.638338,14.0726869 C116.501677,14.1994882 102.972786,26.964 103.294423,45.6070976 C103.307687,46.3933603 102.677676,47.0424512 101.887794,47.0554141 L101.862688,47.0554141 Z" id="Fill-56" fill="#FFFFFF"></path>
                    <path d="M111.821549,26.8606498 C116.534315,18.2631414 128.874238,19.0835791 149.294406,19.9577542 C169.714574,20.8316936 174.921164,24.2176195 177.79245,32.2195387 C182.279975,44.7252626 180.485154,72.4129731 167.918569,78.6660707 C155.005952,85.0912222 125.285071,85.5885286 113.8409,73.3067104 C100.24806,58.7198418 107.782374,34.2295051 111.821549,26.8606498" id="Fill-58" fill="#FFE0BC"></path>
                    <path d="M133.091687,21.3368485 C121.377985,21.3368485 116.066946,23.0804848 113.496691,27.7700135 C110.594852,33.0638519 101.784884,57.5761077 115.239879,72.0154343 C120.612498,77.7811246 131.555976,81.222202 144.514542,81.222202 C153.279509,81.222202 161.710049,79.6327071 167.065141,76.9672862 C178.561655,71.2473199 180.077708,44.2320337 175.99519,32.8580943 C172.902926,24.2389024 165.566142,22.5548956 149.212386,21.8546599 L147.301748,21.772404 C141.902602,21.5393064 137.240522,21.3368485 133.091687,21.3368485 M144.514542,85.0203502 C130.303771,85.0203502 118.613753,81.222202 112.442252,74.5978923 C106.250856,67.9540202 103.441149,58.4905859 104.31677,47.2307205 C104.982544,38.6636162 107.72475,30.3696768 110.146502,25.9511919 C113.973226,18.9698114 122.086629,17.5398788 133.091687,17.5398788 C137.323181,17.5398788 142.024341,17.7425724 147.46754,17.9780269 L149.376521,18.0607542 C169.116229,18.9059394 176.175193,22.0656027 179.589805,31.5811246 C184.114041,44.1874882 182.656015,73.4573872 168.771618,80.3640539 C162.912991,83.2802492 153.844861,85.0203502 144.514542,85.0203502" id="Fill-60" fill="#9D9FA2"></path>
                    <path d="M111.821549,26.8606498 C116.534315,18.2631414 128.874238,19.0835791 149.294406,19.9577542 C169.714574,20.8316936 174.921164,24.2176195 177.79245,32.2195387 C182.279975,44.7252626 180.485154,72.4129731 167.918569,78.6660707 C155.005952,85.0912222 125.285071,85.5885286 113.8409,73.3067104 C100.24806,58.7198418 107.782374,34.2295051 111.821549,26.8606498" id="Fill-62" fill="#F1F1F2"></path>
                    <path d="M133.091687,21.3368485 C121.377985,21.3368485 116.066946,23.0804848 113.496691,27.7700135 C110.594852,33.0638519 101.784884,57.5761077 115.239879,72.0154343 C120.612498,77.7811246 131.555976,81.222202 144.514542,81.222202 C153.279509,81.222202 161.710049,79.6327071 167.065141,76.9672862 C178.561655,71.2473199 180.077708,44.2320337 175.99519,32.8580943 C172.902926,24.2389024 165.566142,22.5548956 149.212386,21.8546599 L147.301748,21.772404 C141.902602,21.5393064 137.240522,21.3368485 133.091687,21.3368485 M144.514542,85.0203502 C130.303771,85.0203502 118.613753,81.222202 112.442252,74.5978923 C106.250856,67.9540202 103.441149,58.4905859 104.31677,47.2307205 C104.982544,38.6636162 107.72475,30.3696768 110.146502,25.9511919 C113.973226,18.9698114 122.086629,17.5398788 133.091687,17.5398788 C137.323181,17.5398788 142.024341,17.7425724 147.46754,17.9780269 L149.376521,18.0607542 C169.116229,18.9059394 176.175193,22.0656027 179.589805,31.5811246 C184.114041,44.1874882 182.656015,73.4573872 168.771618,80.3640539 C162.912991,83.2802492 153.844861,85.0203502 144.514542,85.0203502" id="Fill-64" fill="#9D9FA2"></path>
                    <path d="M133.091687,21.3368485 C121.377985,21.3368485 116.066946,23.0804848 113.496691,27.7700135 C110.594852,33.0638519 101.784884,57.5761077 115.239879,72.0154343 C120.612498,77.7811246 131.555976,81.222202 144.514542,81.222202 C153.279509,81.222202 161.710049,79.6327071 167.065141,76.9672862 C178.561655,71.2473199 180.077708,44.2320337 175.99519,32.8580943 C172.902926,24.2389024 165.566142,22.5548956 149.212386,21.8546599 L147.301748,21.772404 C141.902602,21.5393064 137.240522,21.3368485 133.091687,21.3368485 M144.514542,85.0203502 C130.303771,85.0203502 118.613753,81.222202 112.442252,74.5978923 C106.250856,67.9540202 103.441149,58.4905859 104.31677,47.2307205 C104.982544,38.6636162 107.72475,30.3696768 110.146502,25.9511919 C113.973226,18.9698114 122.086629,17.5398788 133.091687,17.5398788 C137.323181,17.5398788 142.024341,17.7425724 147.46754,17.9780269 L149.376521,18.0607542 C169.116229,18.9059394 176.175193,22.0656027 179.589805,31.5811246 C184.114041,44.1874882 182.656015,73.4573872 168.771618,80.3640539 C162.912991,83.2802492 153.844861,85.0203502 144.514542,85.0203502" id="Fill-66" fill="#9D9FA2"></path>
                    <path d="M160.471486,43.7504478 C160.471486,41.9254983 161.958406,40.4441852 163.792543,40.4441852 C165.626917,40.4441852 167.113837,41.9254983 167.113837,43.7504478 C167.113837,45.575633 165.626917,47.055532 163.792543,47.055532 C161.958406,47.055532 160.471486,45.575633 160.471486,43.7504478" id="Fill-68" fill="#929497"></path>
                    <path d="M119.931234,53.0793266 C119.756204,53.0793266 119.581175,53.0161616 119.443804,52.8893603 C119.154141,52.6213805 119.138273,52.1709764 119.40733,51.8820202 L121.441365,49.7061279 C121.710659,49.4197643 122.163746,49.4025589 122.452461,49.6710101 C122.742124,49.9378114 122.757756,50.3891582 122.488462,50.676936 L120.455138,52.8528283 C120.31374,53.0034343 120.122842,53.0793266 119.931234,53.0793266" id="Fill-70" fill="#C8C7CC"></path>
                    <path d="M122.727132,53.0793266 C122.55234,53.0793266 122.377073,53.0161616 122.239703,52.8893603 C121.949329,52.6213805 121.934171,52.1709764 122.203228,51.8820202 L124.237263,49.7061279 C124.506084,49.4197643 124.960828,49.4025589 125.24836,49.6710101 C125.538023,49.9378114 125.553418,50.3891582 125.285071,50.676936 L123.251036,52.8528283 C123.110349,53.0034343 122.918977,53.0793266 122.727132,53.0793266" id="Fill-72" fill="#C8C7CC"></path>
                    <path d="M125.52303,53.0793266 C125.348238,53.0793266 125.173208,53.0161616 125.035127,52.8893603 C124.746175,52.6213805 124.730069,52.1709764 124.999126,51.8820202 L127.033162,49.7061279 C127.301982,49.4197643 127.756963,49.4025589 128.043547,49.6710101 C128.333921,49.9378114 128.349553,50.3891582 128.080969,50.676936 L126.046934,52.8528283 C125.906247,53.0034343 125.715112,53.0793266 125.52303,53.0793266" id="Fill-74" fill="#C8C7CC"></path>
                    <path d="M163.300921,53.0793266 C163.126129,53.0793266 162.951099,53.0161616 162.813018,52.8893603 C162.523829,52.6213805 162.50796,52.1709764 162.777728,51.8820202 L164.810342,49.7061279 C165.079873,49.4197643 165.534854,49.4025589 165.822623,49.6710101 C166.112049,49.9378114 166.127917,50.3891582 165.859571,50.676936 L163.825535,52.8528283 C163.684849,53.0034343 163.493003,53.0793266 163.300921,53.0793266" id="Fill-76" fill="#C8C7CC"></path>
                    <path d="M166.097506,53.0793266 C165.921293,53.0793266 165.747684,53.0161616 165.609603,52.8893603 C165.320414,52.6213805 165.303361,52.1709764 165.572892,51.8820202 L167.606927,49.7061279 C167.876458,49.4197643 168.331439,49.4025589 168.618023,49.6710101 C168.908397,49.9378114 168.924265,50.3891582 168.654735,50.676936 L166.620699,52.8528283 C166.480013,53.0034343 166.289352,53.0793266 166.097506,53.0793266" id="Fill-78" fill="#C8C7CC"></path>
                    <path d="M168.892694,53.0793266 C168.717901,53.0793266 168.542872,53.0161616 168.406212,52.8893603 C168.115838,52.6213805 168.099733,52.1709764 168.369501,51.8820202 L170.403536,49.7061279 C170.671646,49.4197643 171.126627,49.4025589 171.414395,49.6710101 C171.703821,49.9378114 171.71969,50.3891582 171.451343,50.676936 L169.417308,52.8528283 C169.276622,53.0034343 169.084776,53.0793266 168.892694,53.0793266" id="Fill-80" fill="#C8C7CC"></path>
                    <path d="M123.744126,43.293798 C123.744126,41.217367 125.436392,39.533596 127.52348,39.533596 C129.611516,39.533596 131.303309,41.217367 131.303309,43.293798 C131.303309,45.3714074 129.611516,47.0554141 127.52348,47.0554141 C125.436392,47.0554141 123.744126,45.3714074 123.744126,43.293798" id="Fill-82" fill="#929497"></path>
                    <path d="M136.062899,58.3105657 C137.720822,57.3678047 139.615592,57.3678047 141.510361,58.0748754" id="Fill-84" fill="#929497"></path>
                    <path d="M136.486475,59.0316599 C138.049659,58.2093367 139.656661,58.3123333 141.287347,58.8801111 C142.308864,59.2357677 142.747977,57.6229394 141.733565,57.2696397 C139.670161,56.5512559 137.592073,56.5623333 135.639276,57.5894714 C134.684075,58.091963 135.531274,59.5341515 136.486475,59.0316599" id="Fill-86" fill="#929497"></path>
                    <path d="M124.235392,36.8953973 C125.597021,36.5439832 127.866718,39.2544209 128.774549,39.9570135 C129.884174,40.8604141 132.607905,43.0186296 134.272223,42.316037" id="Fill-88" fill="#929497"></path>
                    <path d="M124.458501,37.7007037 C125.267094,37.5727239 126.426693,38.9149798 126.936386,39.3950808 C127.573502,39.9949125 128.198303,40.5763603 128.892499,41.1111414 C130.381077,42.2584815 132.50393,43.7982458 134.495332,43.1213434 C135.511639,42.7758215 135.075369,41.1620505 134.049114,41.5108721 C132.30261,42.1045758 129.964702,39.953431 128.782602,38.8445084 C127.511212,37.6514444 125.95679,35.7824209 124.012283,36.0902323 C122.948607,36.2585152 123.400036,37.8682795 124.458501,37.7007037" id="Fill-90" fill="#929497"></path>
                    <polygon id="Rectangle-255-Copy" fill="url(#linearGradient-3)" points="66.7665156 97.6146789 205.762129 97.6146789 268.789139 121 0.287331933 121"></polygon>
                    <path d="M112.642434,88.8881212 C112.642434,88.8881212 101.413557,94.3886599 101.779958,99.1078855 C102.145885,103.827818 114.836577,101.153441 117.611231,101.747145 C120.386121,102.340377 125.476182,104.546202 125.476182,104.546202" id="Stroke-92" stroke="#808184" stroke-width="2" stroke-linecap="round"></path>
                    <path id="Fill-98" fill="#A6A8AB"></path>
                    <path id="Fill-100" fill="#A6A8AB"></path>
                    <path id="Fill-104" fill="#A6A8AB"></path>
                    <path d="M151.908477,89.8145488 C151.908477,89.8145488 162.969431,102.384616 168.333997,100.970475 C173.698327,99.5563333 160.127277,82.2022256 168.333997,80.0374108 C176.540481,77.8728316 166.896104,83.1218889 166.896104,83.1218889" id="Stroke-37" stroke="#808184" stroke-width="2" stroke-linecap="round"></path>
                </g>
            </g>
        </g>
    </g>
</svg>