<?xml version="1.0" encoding="UTF-8"?>
<svg width="16px" height="16px" viewBox="0 0 16 16" version="1.1" xmlns="http://www.w3.org/2000/svg" xmlns:xlink="http://www.w3.org/1999/xlink">
    <!-- Generator: sketchtool 41.2 (35397) - http://www.bohemiancoding.com/sketch -->
    <title>04D6BDC6-43D0-46E1-8144-8E35F4DD4EC6</title>
    <desc>Created with sketchtool.</desc>
    <defs></defs>
    <g id="Page-1" stroke="none" stroke-width="1" fill="none" fill-rule="evenodd">
        <g id="P6_search_discount" transform="translate(-24.000000, -168.000000)" fill="#999999">
            <g id="ic_search_home" transform="translate(24.000000, 168.000000)">
                <path d="M6.81617094,15.2983904 C3.05821,15.2983904 0.00103880518,12.3563765 0.00103880518,8.74001236 C0.00103880518,5.12368265 3.05821,2.18163435 6.81617094,2.18163435 C10.5741498,2.18163435 13.631321,5.12366547 13.631321,8.74001236 C13.6313388,12.3563765 10.5741498,15.2983904 6.81617094,15.2983904 L6.81617094,15.2983904 Z M6.81617177,3.48534633 C3.8051242,3.48534633 1.35576039,5.84256069 1.35576039,8.74001394 C1.35576039,11.6374516 3.8051242,13.9947128 6.81617177,13.9947128 C9.82723557,13.9947128 12.2765994,11.6374516 12.2765994,8.74001394 C12.2765994,5.84257632 9.82725179,3.48534633 6.81617177,3.48534633 L6.81617177,3.48534633 Z M11.9431902,4.46376128 L11.0622442,3.60265816 L14.6904359,0.161657773 C14.812349,0.052271435 14.9688691,0.00090243822 15.1233261,0.00629619593 C15.2778908,0.0116937141 15.4303925,0.0738539867 15.5443782,0.191478097 C15.7724027,0.426754098 15.7595599,0.794525583 15.5156797,1.0132964 C15.5156797,1.0132964 12.3722266,4.19046389 11.9431902,4.46376128 Z" id="Shape" transform="translate(7.854187, 7.652151) scale(1, -1) translate(-7.854187, -7.652151) "></path>
            </g>
        </g>
    </g>
</svg>