<?xml version="1.0" encoding="UTF-8"?>
<svg width="26px" height="26px" viewBox="0 0 26 26" version="1.1" xmlns="http://www.w3.org/2000/svg" xmlns:xlink="http://www.w3.org/1999/xlink">
    <!-- Generator: sketchtool 41 (35326) - http://www.bohemiancoding.com/sketch -->
    <title>ED2364BB-652B-4C91-92FC-0DDC642A5F32</title>
    <desc>Created with sketchtool.</desc>
    <defs>
        <rect id="path-1" x="0" y="0" width="26" height="26"></rect>
        <mask id="mask-2" maskContentUnits="userSpaceOnUse" maskUnits="objectBoundingBox" x="0" y="0" width="26" height="26" fill="white">
            <use xlink:href="#path-1"></use>
        </mask>
    </defs>
    <g id="Page-1" stroke="none" stroke-width="1" fill="none" fill-rule="evenodd">
        <g id="P11_productlist_flashdeal_coming-soon" transform="translate(-337.000000, -534.000000)">
            <g id="Imported-Layers" transform="translate(337.000000, 534.000000)">
                <use id="Rectangle-712" stroke="#C8C7CC" mask="url(#mask-2)" stroke-width="0.8" xlink:href="#path-1"></use>
                <path d="M9.18298363,12.46916 L5.74967959,8.3506635 C5.62598424,8.2025483 5.44419198,8.11747782 5.25106763,8.11747782 C5.09991989,8.11747782 4.95276233,8.17062692 4.83672812,8.2673487 C4.56220425,8.4963846 4.52501584,8.90593591 4.75373253,9.18045978 L7.30345277,12.2391664 L0.648643037,12.2318245 C0.291762007,12.2318245 0.000639019352,12.5223091 5.91748372e-07,12.8791901 C-0.000478228954,13.2363903 0.289687117,13.5275133 0.647366182,13.5283114 L7.29850495,13.5356533 L4.75341331,16.5886141 C4.52517544,16.8629783 4.56252346,17.27237 4.83672812,17.5007675 C4.95292194,17.5976489 5.10023911,17.6511172 5.25138684,17.6511172 L5.25154645,17.6511172 C5.44451119,17.6511172 5.62598424,17.5660467 5.74951998,17.4177719 L9.18330285,13.2991159 C9.28002463,13.182922 9.33333333,13.0354453 9.33333333,12.8842975 C9.33317373,12.732671 9.27986502,12.5850346 9.18298363,12.46916" id="Fill-1" fill="#C8C7CC"></path>
                <text id="中" font-family="PingFangSC-Regular, PingFang SC" font-size="14" font-weight="normal" line-spacing="12" fill="#C8C7CC">
                    <tspan x="11.0833333" y="18.6511172">中</tspan>
                </text>
            </g>
        </g>
    </g>
</svg>