<svg width="167" height="156" viewBox="0 0 167 156" xmlns="http://www.w3.org/2000/svg">
    <defs>
        <linearGradient x1="71.845%" y1="65.931%" x2="33.64%" y2="24.225%" id="a">
            <stop stop-color="#F5F5F6" stop-opacity=".602" offset="0%"/>
            <stop stop-color="#E6E7E8" offset="100%"/>
        </linearGradient>
        <linearGradient x1="2.184%" y1="61.046%" x2="101.723%" y2="45.982%" id="b">
            <stop stop-color="#A6A8AB" offset="0%"/>
            <stop stop-color="#FFF" stop-opacity="0" offset="98.27%"/>
        </linearGradient>
        <linearGradient x1="20.647%" y1="71.914%" x2="107.945%" y2="-13.223%" id="c">
            <stop stop-color="#F6921E" offset="0%"/>
            <stop stop-color="#F89E1B" stop-opacity=".888" offset="11.02%"/>
            <stop stop-color="#FAAB17" stop-opacity=".689" offset="30.64%"/>
            <stop stop-color="#FCB415" stop-opacity=".441" offset="55.02%"/>
            <stop stop-color="#FCB614" stop-opacity="0" offset="98.34%"/>
        </linearGradient>
        <linearGradient x1="44.013%" y1="18.475%" x2="51.692%" y2="63.606%" id="d">
            <stop stop-color="#F6921E" offset="0%"/>
            <stop stop-color="#F89E1B" stop-opacity=".888" offset="10.87%"/>
            <stop stop-color="#FAAB17" stop-opacity=".689" offset="30.22%"/>
            <stop stop-color="#FCB415" stop-opacity=".441" offset="54.28%"/>
            <stop stop-color="#FCB614" stop-opacity="0" offset="97.01%"/>
        </linearGradient>
        <linearGradient x1="18.712%" y1="87.77%" x2="110.769%" y2="-11.04%" id="e">
            <stop stop-color="#A6A8AB" offset="0%"/>
            <stop stop-color="#FFF" stop-opacity="0" offset="98.27%"/>
        </linearGradient>
        <linearGradient x1="0%" y1="49.999%" y2="49.999%" id="f">
            <stop stop-color="#FBBB7C" offset="0%"/>
            <stop stop-color="#FFF" stop-opacity="0" offset="98.27%"/>
        </linearGradient>
        <linearGradient x1="170.636%" y1="1.939%" x2="11.474%" y2="60.556%" id="g">
            <stop stop-color="#FFF" offset="0%"/>
            <stop stop-color="#FFF" stop-opacity="0" offset="98.27%"/>
        </linearGradient>
        <linearGradient x1="168.718%" y1="1.437%" x2="11.112%" y2="61.693%" id="h">
            <stop stop-color="#FFF" offset="0%"/>
            <stop stop-color="#FFF" stop-opacity="0" offset="98.27%"/>
        </linearGradient>
        <linearGradient x1="168.719%" y1="1.437%" x2="11.112%" y2="61.692%" id="i">
            <stop stop-color="#FFF" offset="0%"/>
            <stop stop-color="#FFF" stop-opacity="0" offset="98.27%"/>
        </linearGradient>
    </defs>
    <g fill="none" fill-rule="evenodd">
        <path d="M113.805 146.848c32.441 17.514 63.523 2.865 58.81-3.887-4.713-6.751-33.876-10.94-49.257-11.937-15.383-.998-1.986-9.49-26.769-11.767-24.783-2.277-47.884 9.92-47.884 9.92-8.274 4.486-3.903 8.508 0 9.667 3.903 1.159 53.63 1.811 65.1 8.004" fill="url(#a)" transform="translate(-7)"/>
        <g transform="translate(-7)">
            <path d="M99.699 111.307s1.506-.85 3.108-.378v17.452s1.79 1.415 1.79 2.83-5.652 1.792-5.558-.376c.094-2.17 1.319-2.076 1.319-2.076l-.66-17.452z" fill="#603813"/>
            <path fill="#FCB614" d="M106.842 105.373l.564 5.812 2.314-1.937 2.75 8.412 1.033-8.413 2.116 1.689-.682-7.024z"/>
            <path d="M111.267 105.263a6.204 6.204 0 0 1-6.549-4.422 6.208 6.208 0 0 0 6.776 6.77 6.214 6.214 0 0 0 5.576-6.787 6.247 6.247 0 0 0-.229-1.163c-.27 2.908-2.564 5.31-5.574 5.602z" fill="#76B3E1"/>
            <path d="M115.046 80.407c-.33-3.394-3.595-8.484-6.983-8.153-3.388.33-5.615 5.954-5.285 9.347l1.91 19.689 6.666 4.874 5.602-6.077-1.91-19.68z" fill="#5199D3"/>
            <path d="M109.4 86.016a6.206 6.206 0 0 1-6.55-4.422 6.206 6.206 0 0 0 6.776 6.769 6.213 6.213 0 0 0 5.576-6.787 6.257 6.257 0 0 0-.228-1.163c-.27 2.909-2.565 5.31-5.574 5.603z" fill="url(#b)"/>
            <path d="M111.127 103.818a6.207 6.207 0 0 1-6.549-4.422 6.207 6.207 0 0 0 6.776 6.768 6.21 6.21 0 0 0 5.347-7.947 6.208 6.208 0 0 1-5.574 5.601z" fill="#9EA0A3"/>
            <path d="M107.096 101.259a.649.649 0 0 1-.642-.564c-.013-.094-1.258-9.514-1.71-14.167-.462-4.75.586-9.177.63-9.363a.649.649 0 1 1 1.259.304c-.01.043-1.04 4.409-.6 8.934.449 4.63 1.692 14.028 1.705 14.122a.649.649 0 0 1-.642.734z" fill="#FFF"/>
            <path fill="#FFF" d="M104.582 74.28l1.229 1.945 1.569-1.68-.752 2.174 2.291.18-2.168.766 1.288 1.907-1.95-1.219-.685 2.197-.264-2.286-2.14.832 1.618-1.631-1.985-1.158 2.284.251z"/>
            <path d="M82.405 107.571s-1.506-.85-3.109-.377v17.452s-4.274-.316-4.274 2.617c0 1.007 7.287 1.663 7.213-.055-.094-2.17-.49-2.184-.49-2.184l.66-17.453z" fill="#603813"/>
            <path d="M74.57 72.09s-8.539 27.687 2.36 36.518c11.824 9.58 34.014 9.345 34.037-9.526.024-18.852-9.727-22.958-6.182-26.098l-30.214-.893z" fill="#FCB614"/>
            <path d="M74.57 72.09s-8.539 27.687 2.36 36.518c11.824 9.58 33.44 9.335 34.037-9.526.577-18.251-9.727-22.958-6.182-26.098l-30.214-.893z" fill="url(#c)"/>
            <path d="M74.57 72.09s-8.539 27.687 2.36 36.518c11.824 9.58 33.53 9.338 34.037-9.526.496-18.451-9.727-22.958-6.182-26.098l-30.214-.893z" fill="url(#d)"/>
            <path d="M131.018 39.669c0 22.448-17.711 36.054-40.124 36.054-34.084 0-41.043-13.606-41.043-36.054C49.851 17.22 66.47.434 88.883.434c22.413 0 42.135 16.786 42.135 39.235z" fill="#D0D2D3"/>
            <path d="M131.018 39.669c.503 34.277-17.711 36.054-40.124 36.054-34.084 0-41.043-13.606-41.043-36.054C49.851 17.22 66.47.434 88.883.434c22.413 0 41.807 16.789 42.135 39.235z" fill="url(#e)"/>
            <path fill="#FFF" d="M66 4.149l2.016 4.005 3.361-2.965-1.87 4.076 4.41.783-4.348 1.078 2.14 3.942-3.553-2.732-1.743 4.132-.082-4.485-4.313 1.21 3.45-2.86-3.633-2.622 4.383.919z"/>
            <path d="M84.34.504s4.88 9.467 4.88 18.45c0 0 7.202-.21 16.373 1.345 0 0 1.43-10.774-4.132-18.053 0 0-7.413-2.339-17.12-1.742z" fill="#5199D3"/>
            <path d="M64.773 22.611c-4.247 8.788-5.232 27.97.035 40.68 5.269 12.71 45.577 9.743 53.195 7.222 10.248-3.39 12.39-37.082 4.401-48.502-3.352-4.79-26.668-5.543-39.159-5.543-8.594 0-15.959.943-18.472 6.143z" fill="#FFE1BD"/>
            <path d="M95.846 74.46h-.003c-23.37 0-30.643-5.713-32.63-10.506-5.532-13.351-4.437-32.902.005-42.097 3.025-6.257 11.413-7.12 20.027-7.12 16.505 0 36.941 1.09 40.573 6.281 2.87 4.102 4.676 10.94 5.086 19.254.385 7.805-.527 15.699-2.5 21.659-1.856 5.603-4.574 9.138-7.858 10.225-3.377 1.118-12.482 2.305-22.7 2.305zm-12.6-56.262c-10.108 0-15.167 1.546-16.918 5.167-4.115 8.517-4.958 27.117.076 39.262 2.174 5.243 13.178 8.373 29.44 8.374h.002c9.375 0 18.519-1.107 21.616-2.131 2.175-.72 4.185-3.572 5.663-8.03 3.946-11.915 2.887-30.656-2.136-37.836-.412-.59-2.707-2.61-14.91-3.839-8.346-.841-17.888-.967-22.834-.967z" fill="#9EA0A3"/>
            <path d="M64.773 22.611c-4.247 8.788-5.232 27.97.035 40.68 5.269 12.71 45.577 9.743 53.195 7.222 10.248-3.39 12.39-37.082 4.401-48.502-3.352-4.79-26.668-5.543-39.159-5.543-8.594 0-15.959.943-18.472 6.143z" fill="#FFE1BD"/>
            <path d="M64.773 22.611c-4.247 8.788-5.232 27.97.035 40.68 5.269 12.71 45.577 9.743 53.195 7.222 10.248-3.39 12.39-37.082 4.401-48.502-3.352-4.79-26.668-5.543-39.159-5.543-8.594 0-15.959.943-18.472 6.143z" fill="url(#f)" opacity=".4"/>
            <path d="M94.787 73.968h-.002c-12.509 0-28.142-1.738-31.572-10.014-5.533-13.35-4.438-32.901.005-42.096 2.688-5.562 9.48-6.172 17.344-6.879.825-.075 1.665-.15 2.516-.232 2.045-.198 4.615-.303 7.432-.303 7.985 0 29.533 1.181 33.307 6.575 6.002 8.577 7.895 29.063 3.823 41.358-1.626 4.91-4.022 7.919-7.12 8.943-3.848 1.274-14.78 2.648-25.733 2.648zm-4.276-56.065c-2.708 0-5.164.1-7.099.287-.86.084-1.708.16-2.54.235-7.1.637-12.708 1.142-14.543 4.94-4.115 8.517-4.958 27.117.076 39.262 2.076 5.008 12.42 7.88 28.38 7.88 11.209 0 21.52-1.436 24.652-2.473 1.977-.654 3.679-2.987 4.925-6.748 3.725-11.25 2.022-30.57-3.373-38.282-1.901-2.718-16.143-5.1-30.478-5.1z" fill="#9EA0A3"/>
            <path d="M54.97 41.75a1.296 1.296 0 0 1-1.295-1.275c-.31-18.173 12.367-30.177 12.908-30.679a1.293 1.293 0 0 1 1.83.067 1.3 1.3 0 0 1-.066 1.834c-.123.115-12.372 11.746-12.08 28.733a1.297 1.297 0 0 1-1.274 1.32h-.023z" fill="#FFF"/>
            <ellipse fill="#603813" cx="82.178" cy="33.945" rx="3.421" ry="3.427"/>
            <path d="M96.662 48.341a.654.654 0 0 1-.54-.344.673.673 0 0 1 .258-.906l4.082-2.289a.65.65 0 0 1 .71.05l3.122 2.37c.29.22.35.638.133.934a.65.65 0 0 1-.92.136l-2.783-2.114-3.713 2.081a.644.644 0 0 1-.349.082z" fill="#603813"/>
            <ellipse fill="#603813" cx="115.644" cy="37.374" rx="3.007" ry="3.012"/>
            <path d="M77.764 42.556a.648.648 0 0 1-.476-1.09l1.841-1.983a.648.648 0 1 1 .95.883l-1.842 1.983a.642.642 0 0 1-.473.207zm2.53 0a.648.648 0 0 1-.474-1.09l1.841-1.983a.648.648 0 1 1 .949.883l-1.841 1.983a.644.644 0 0 1-.475.207zm2.532 0a.648.648 0 0 1-.476-1.09l1.842-1.983a.648.648 0 1 1 .948.883L83.3 42.35a.64.64 0 0 1-.474.207zm29.366 3.28a.648.648 0 0 1-.474-1.09l1.841-1.983a.648.648 0 1 1 .95.884l-1.842 1.982a.646.646 0 0 1-.475.207zm2.532 0a.65.65 0 0 1-.475-1.09l1.84-1.983a.648.648 0 1 1 .95.884l-1.842 1.982a.643.643 0 0 1-.473.207zm2.53 0a.648.648 0 0 1-.474-1.09l1.841-1.983a.648.648 0 1 1 .95.884l-1.842 1.982a.644.644 0 0 1-.475.207z" fill="#EC6A5F"/>
            <path d="M72.819 79.3s16.576 6.86 33.593.651c0 0 2.243 3.7 2.637 6.606 0 0-18.41 9.9-37.235-.93 0 0 .706-4.882 1.005-6.327zM71.52 95.825s10.42 5.966 20.696 5.652c10.276-.315 18.751-5.28 18.751-5.28s.287 4.806-.666 7.911c0 0-8.633 4.353-18.164 3.968-9.021-.365-19.135-4.915-19.502-6.215-.367-1.3-.99-3.362-1.115-6.036z" fill="#603813"/>
            <path d="M61.623 84.765h-.12c-12.833-.011-15.542-1.796-16.5-3.54a1.729 1.729 0 0 1 3.028-1.668c1.295 1.715 13.478 2.291 26.59 1.24a1.731 1.731 0 0 1 .275 3.449c-.066.005-6.554.52-13.273.52z" fill="#603813"/>
            <path d="M81.524 44.608c0-1.905 3.396-7.04 3.396-7.04s3.397 5.135 3.397 7.04c0 1.906-1.521 3.452-3.397 3.452-1.875 0-3.396-1.546-3.396-3.452z" fill="#76B3E1"/>
            <g transform="scale(-1 1) rotate(-11 158.638 345.218)">
                <ellipse fill="#90C5FF" cx="34.542" cy="17.889" rx="15.937" ry="15.938"/>
                <path fill="#59595A" d="M5.174 51.048l-3.79-3.79 14.492-14.491 3.79 3.79z"/>
                <path fill="#ABCB57" d="M19.665 36.556l-3.79-3.79 1.367-1.366 3.79 3.79zM3.807 52.415l-3.79-3.79 1.367-1.367 3.79 3.79z"/>
                <path d="M32.026 34.357l-3.511-1.365L40.34 2.442l3.512 1.362zm6.854-.022l-3.512-1.366 9.998-25.057 3.51 1.36z" fill="#FFF" opacity=".2"/>
                <path d="M47.11 5.321A17.656 17.656 0 0 0 34.541.115c-4.748 0-9.21 1.849-12.568 5.206A17.658 17.658 0 0 0 16.77 17.89a17.64 17.64 0 0 0 3.963 11.19l-2.905 2.905 2.62 2.621 2.905-2.905a17.638 17.638 0 0 0 11.19 3.963c4.747 0 9.21-1.849 12.567-5.206a17.658 17.658 0 0 0 5.206-12.568c0-4.747-1.849-9.211-5.206-12.568zm-2.597 22.54a14.01 14.01 0 0 1-9.971 4.131 14.01 14.01 0 0 1-9.972-4.13 14.012 14.012 0 0 1-4.13-9.973 14.01 14.01 0 0 1 4.13-9.972 14.01 14.01 0 0 1 9.972-4.13 14.01 14.01 0 0 1 9.971 4.13 14.012 14.012 0 0 1 4.13 9.972 14.01 14.01 0 0 1-4.13 9.972z" fill="#59595A"/>
                <path d="M34.542 35.663c4.747 0 9.21-1.849 12.567-5.206a17.658 17.658 0 0 0 5.206-12.568c0-4.747-1.849-9.211-5.206-12.568l-2.596 2.596a14.012 14.012 0 0 1 4.13 9.972c0 3.767-1.466 7.309-4.13 9.972a14.01 14.01 0 0 1-9.971 4.131 14.01 14.01 0 0 1-9.972-4.13l-2.406 2.406-.19.19-2.837 2.837-.684.683L1.913 50.52l1.894 1.894 1.367-1.367 14.491-14.491 1.367-1.367-.585-.584 2.905-2.905a17.638 17.638 0 0 0 11.19 3.963z" fill="#5B5B5F" opacity=".3"/>
            </g>
            <path d="M112.636 101.522a1.72 1.72 0 0 1-.76-.177c-2.284-1.123-3.324-4.396-3.51-5.04a1.732 1.732 0 0 1 .481-1.744l6.593-6.164-9.148-3.467a1.731 1.731 0 0 1 1.223-3.236l11.746 4.45a1.73 1.73 0 0 1 .567 2.884l-7.787 7.281c.366.838.887 1.7 1.357 1.93a1.733 1.733 0 0 1 .79 2.316c-.3.612-.914.967-1.552.967zM47.264 76.386s-6.312-.6-3.035 5.867c3.276 6.468 6.29 2.37 6.29 2.37l-3.255-8.237z" fill="#603813"/>
            <g transform="translate(89.51 81.792)">
                <path fill="#A6A8AB" d="M.427 2.871L4.726.384l4.3 2.487v4.971l-4.3 2.487L.427 7.842z"/>
                <ellipse fill="#E6E7E8" cx="4.727" cy="5.356" rx="3.27" ry="3.275"/>
                <g fill="#0081C8">
                    <path d="M4.174 2.952c.006.007.01.015.009.024 0 .013-.01.024-.02.033a.357.357 0 0 1-.08.037c-.01.003-.014.007-.016.008l.004.002a.2.2 0 0 0 .068.007.082.082 0 0 0 .051-.03.16.16 0 0 1 .049-.042l.046-.02c.002-.003.005-.005.005-.008a.019.019 0 0 0-.004-.01l-.032-.035a1.81 1.81 0 0 0-.09.019l.01.015zm.298-.068c-.012.011-.023.021-.03.03-.01.01-.014.034-.007.052a.18.18 0 0 0 .045.061c.015.011.034.008.04-.006.008-.014.011-.025.008-.03v-.002c-.011-.007-.018-.031-.02-.05 0-.016.01-.04.023-.06l-.06.005zm-.169 4.618a2.24 2.24 0 0 0-.006-.163l-.01-.116a.206.206 0 0 0-.06-.121l-.115-.093c-.021-.017-.046-.043-.048-.062 0-.007.002-.011.004-.014.002-.004-.004-.036-.026-.073l-.064-.11a1.177 1.177 0 0 0-.068-.109.2.2 0 0 1-.034-.101v-.177c0-.028.015-.085.034-.125l.043-.094a.435.435 0 0 0 .032-.141c0-.04-.007-.09-.013-.11a.054.054 0 0 0-.014-.025.082.082 0 0 0-.03.027c-.009.013-.031.013-.049.002a.667.667 0 0 1-.066-.048c-.022-.016-.05-.037-.067-.047a.104.104 0 0 1-.037-.055.297.297 0 0 0-.031-.077.131.131 0 0 0-.073-.059.259.259 0 0 1-.091-.046l-.058-.051a.076.076 0 0 0-.052-.01.174.174 0 0 1-.087-.014 1.282 1.282 0 0 1-.11-.06.55.55 0 0 1-.093-.078.12.12 0 0 1-.028-.09.27.27 0 0 0-.01-.104.266.266 0 0 0-.046-.094.256.256 0 0 1-.036-.05.733.733 0 0 0-.036-.077.42.42 0 0 1-.052-.16.063.063 0 0 0-.02-.034c-.002 0-.01.009-.012.027a.12.12 0 0 0 .009.064.33.33 0 0 1 .028.087c.006.03.018.07.028.09l.041.09h.026l-.004.013c-.015.027-.042.043-.059.034a.167.167 0 0 1-.05-.05c-.01-.017-.018-.043-.013-.06a.09.09 0 0 0-.014-.042.17.17 0 0 0-.045-.048c-.013-.008-.022-.018-.024-.027 0-.005 0-.01.004-.012a.034.034 0 0 1 .026-.012.201.201 0 0 0-.01-.064.627.627 0 0 1-.027-.129c-.002-.03-.012-.053-.019-.057a.168.168 0 0 1-.043-.053.371.371 0 0 1-.027-.125L2.7 4.453a1.08 1.08 0 0 1-.001-.124.179.179 0 0 1 .023-.074.545.545 0 0 0 .035-.073.89.89 0 0 1 .059-.113l.003-.007a.264.264 0 0 0 .038-.107 8.165 8.165 0 0 1-.005-.113.63.63 0 0 0-.01-.106 2.481 2.481 0 0 0-.6 1.623c0 1.232.89 2.253 2.061 2.455v-.312zM7.04 4.486c.002.013.01.036.016.049.008.014.016.043.023.065a.18.18 0 0 0 .036.07h.003a2.808 2.808 0 0 0-.1-.28.038.038 0 0 0-.013-.004h-.004c-.005.004-.003.02.01.039.012.02.024.046.028.06zm-.547-.763a.072.072 0 0 0 .04.005c.012-.002.024-.016.025-.032l.002-.005h.013l-.025-.027-.004.005a.113.113 0 0 1-.026.022.353.353 0 0 1-.026.02c-.003 0-.004.002-.003.004a.01.01 0 0 0 .004.008z"/>
                    <path d="M7.181 5.143l-.02.031a.172.172 0 0 0-.024.078l-.001.033c0 .023.006.054.014.067.01.015.012.048.006.072l-.005.022a.969.969 0 0 1-.015.06.095.095 0 0 1-.039.038.249.249 0 0 0-.055.04.06.06 0 0 0-.014.053.117.117 0 0 1-.001.068c-.006.02-.023.038-.037.038-.01.001-.023.016-.027.037a.117.117 0 0 1-.028.06.167.167 0 0 0-.034.041.184.184 0 0 1-.047.048.15.15 0 0 1-.061.024.386.386 0 0 0-.062.008.403.403 0 0 1-.066.01c-.016 0-.03-.012-.03-.026a.207.207 0 0 0-.012-.055c-.009-.018-.023-.05-.034-.069a.255.255 0 0 1-.022-.08l-.004-.031a.224.224 0 0 0-.029-.079l-.015-.024a.172.172 0 0 1-.025-.07c0-.017.003-.042.006-.058a.173.173 0 0 1 .02-.047.145.145 0 0 0 .017-.04.093.093 0 0 0-.003-.048c-.002-.012-.006-.034.002-.04a.139.139 0 0 0-.009-.035.316.316 0 0 0-.03-.057l-.04-.057a.098.098 0 0 1-.012-.078.178.178 0 0 0 .012-.06c-.002-.012-.008-.023-.013-.026a.094.094 0 0 0-.038-.007.07.07 0 0 1-.05-.022.084.084 0 0 0-.037-.027.045.045 0 0 0-.011-.001.107.107 0 0 0-.044.011.488.488 0 0 0-.046.03c-.005.004-.014.006-.027.006-.007 0-.014 0-.02-.002a.147.147 0 0 0-.066.002.077.077 0 0 1-.066-.012.726.726 0 0 1-.05-.039.17.17 0 0 1-.04-.046.301.301 0 0 0-.05-.07.022.022 0 0 0-.012-.007c-.011 0-.017-.028-.018-.031a.29.29 0 0 0-.013-.04c-.006-.01-.002-.024.005-.036a.12.12 0 0 0 .016-.056.168.168 0 0 0-.003-.058c-.005-.012-.012-.018-.013-.02 0 0-.005 0-.006-.002-.004-.006.005-.02.01-.027a1.17 1.17 0 0 0 .033-.054l.042-.067.003-.004a.227.227 0 0 1 .06-.059c.016-.01.03-.032.029-.047-.002-.02.012-.047.03-.063l.012-.01c.016-.013.026-.038.021-.052-.005-.016-.016-.027-.023-.027a.017.017 0 0 1-.012-.006.034.034 0 0 1-.008-.025V4.04c0-.022.006-.05.014-.057a.12.12 0 0 1 .054-.01.288.288 0 0 1 .069.008c.012 0 .02-.005.022-.012a.096.096 0 0 0-.002-.046c-.005-.012-.015-.022-.025-.022-.013 0-.024-.011-.026-.024-.001-.007 0-.014.005-.019.002-.004.008-.007.014-.007a.046.046 0 0 0 .027-.012.034.034 0 0 1 .035-.009c.007.003.016-.002.02-.01a.072.072 0 0 1 .032-.03.061.061 0 0 0 .026-.018.108.108 0 0 1 .023-.026.073.073 0 0 1 .043-.014.024.024 0 0 0 .016-.006.02.02 0 0 0 .004-.011l-.004-.043c0-.007.003-.014.006-.018.004-.005.009-.007.009-.007.015 0 .027.008.033.019.004.008.01.01.013.009.003-.001.005-.01.003-.018l-.013-.033c-.003-.006-.012-.009-.02-.005a.096.096 0 0 1-.047.01c-.017 0-.038-.015-.048-.035-.01-.02-.005-.048.01-.061a.192.192 0 0 1 .04-.027 2.516 2.516 0 0 0-.562-.379.26.26 0 0 1-.06.025.27.27 0 0 0-.09.054.443.443 0 0 0-.072.092.631.631 0 0 1-.062.09c-.013.012-.024.019-.038.019a.026.026 0 0 1-.023-.014c-.01-.013-.024-.02-.034-.015-.014.008-.035 0-.041-.016a.293.293 0 0 0-.034-.045.079.079 0 0 1-.019-.058.132.132 0 0 1 .024-.051c.009-.01.011-.02.009-.024a.091.091 0 0 0-.033-.029.072.072 0 0 1-.032-.056c0-.022.014-.047.032-.058a.045.045 0 0 1 .056.013.032.032 0 0 0 .008.007c0-.015.003-.036.01-.047l.007-.04a2.441 2.441 0 0 0-.532-.094.091.091 0 0 0 .022.014c.022.01.053.027.07.039.02.014.038.04.038.058v.048c0 .005.01.021.033.036.02.013.041.033.045.045.004.013-.004.03-.016.04a.589.589 0 0 1-.044.022c-.014.006-.04-.003-.056-.02-.008-.009-.017-.014-.024-.014l-.005.001c-.005.006-.005.027.006.049.012.026.01.057-.003.071-.013.013-.036.017-.05.01l-.003-.001s-.002.006.003.02c.002.012.002.02-.002.027-.005.01-.016.01-.028 0a.138.138 0 0 0-.061-.024c-.018 0-.042-.015-.054-.033-.008-.014-.026-.027-.036-.028h-.047a.126.126 0 0 1-.048-.005c-.005-.001-.008-.006-.01-.012-.002-.01.003-.02.011-.031a.095.095 0 0 1 .061-.03.088.088 0 0 0 .051-.022l.007-.011-.004-.002a.023.023 0 0 1-.015-.013.06.06 0 0 1-.004-.042.05.05 0 0 0-.004-.028c0-.003-.005-.006-.008-.006-.017-.002-.033-.014-.034-.03 0-.004-.006-.004-.006-.004a.03.03 0 0 0-.012.003.086.086 0 0 0-.034.03.32.32 0 0 0-.023.057c-.006.022-.023.044-.038.044-.01 0-.03.008-.04.016-.003 0-.004.004-.005.008 0 .009.006.023.015.035.014.016.021.034.018.045a.016.016 0 0 1-.012.014.144.144 0 0 1-.052 0c-.012-.003-.03-.002-.037.003a.08.08 0 0 1-.042.01.024.024 0 0 1-.018-.013.042.042 0 0 1-.001-.027.078.078 0 0 0 0-.041l-.002-.001c-.007 0-.02.005-.037.019l-.085.065a.607.607 0 0 1-.096.057.305.305 0 0 0-.094.077c-.017.02-.024.041-.023.052a.01.01 0 0 0 .003.007.228.228 0 0 1 .04.04c.007.01.03.026.053.037a.406.406 0 0 1 .067.04.14.14 0 0 0 .055.026c.008 0 .015.007.02.017a.09.09 0 0 1-.004.055.193.193 0 0 0-.016.08.033.033 0 0 0 .024.026c.012.003.03-.01.041-.026a.175.175 0 0 0 .026-.07c.004-.025.02-.051.038-.06a.264.264 0 0 0 .06-.041.095.095 0 0 0 .025-.074c-.006-.033.005-.068.023-.081a.119.119 0 0 0 .034-.038.339.339 0 0 0 .016-.06c.007-.026.022-.047.038-.047h.047a.16.16 0 0 1 .061.02c.018.01.04.026.05.035.012.012.018.046.018.07-.001.022.01.04.023.041h.003a.125.125 0 0 0 .066-.031c.008-.006.013-.009.02-.009.02 0 .038.023.042.06l.004.027c.007.042.03.092.05.107.023.017.05.052.06.077.01.027.01.066 0 .09a.152.152 0 0 0-.015.063c0 .01.011.03.025.044.015.014.03.043.035.065.005.024-.002.052-.015.064-.013.01-.033.02-.044.017-.011 0-.029 0-.042.003-.015.003-.033-.008-.041-.022a.057.057 0 0 0-.035-.025.03.03 0 0 1-.02-.018.034.034 0 0 1 .005-.028c.009-.015.026-.05.04-.078.008-.014.008-.021.008-.023l-.008.004a.185.185 0 0 1-.08.021c-.02 0-.036.011-.036.021 0 .015-.007.02-.014.02-.006 0-.012-.005-.022-.014a.095.095 0 0 0-.064-.027c-.018 0-.025.006-.026.009v.002l.032.048a.085.085 0 0 1 .015.061l.001.01c.004.005.011.007.018.007h.057c.01 0 .017.005.022.012a.05.05 0 0 1 .005.036c-.006.023-.023.047-.04.055l-.082.039-.078.035c-.01.003-.017 0-.02-.007-.005-.008-.005-.018-.002-.03.002-.006.002-.01 0-.012 0-.002-.002-.002-.002-.002a.02.02 0 0 0-.01.002.572.572 0 0 0-.087.053.206.206 0 0 0-.068.074c-.01.023-.027.041-.041.041-.01 0-.034.014-.052.034a3.76 3.76 0 0 1-.084.082.194.194 0 0 0-.051.081.208.208 0 0 1-.031.078.481.481 0 0 1-.081.082l-.025.02a.927.927 0 0 0-.086.078.11.11 0 0 0-.017.076c.006.03.008.089.004.133-.002.031-.01.084-.023.087-.014 0-.034-.048-.04-.062a1.472 1.472 0 0 1-.035-.102c-.004-.021-.015-.034-.02-.034h-.005a.053.053 0 0 1-.035-.019c-.007-.007-.033-.015-.058-.015-.026 0-.05.012-.056.023-.008.016-.026.03-.039.03a.09.09 0 0 1-.044-.013.169.169 0 0 0-.062-.011.133.133 0 0 0-.069.021 1.011 1.011 0 0 1-.048.037.16.16 0 0 0-.035.035.406.406 0 0 0-.025.095 1.28 1.28 0 0 0-.012.152c0 .041.014.096.03.12a.096.096 0 0 0 .07.043h.002a.11.11 0 0 0 .063-.025.292.292 0 0 0 .038-.07.091.091 0 0 1 .076-.051c.017 0 .033.008.043.02.007.01.011.022.01.036a.476.476 0 0 1-.029.113.402.402 0 0 0-.022.09c0 .008.018.02.047.02.032 0 .069.01.086.025.016.014.023.06.014.105a.263.263 0 0 0 .002.12c.01.026.033.054.05.06a.12.12 0 0 0 .043.01c.007 0 .013-.002.019-.003a.117.117 0 0 1 .074.013c.01.007.022.01.032.01.005 0 .009-.001.009-.002a.51.51 0 0 0 .037-.066c.015-.032.042-.056.063-.053A.06.06 0 0 0 4.2 5.68c.01-.013.027-.027.037-.027.01 0 .018.011.018.027.002.003.012.01.037.01.021 0 .05.008.058.022a.039.039 0 0 0 .028.014.1.1 0 0 1 .05.023c.01.01.032.013.042.01a.182.182 0 0 1 .064-.011c.023 0 .046.014.053.032a.138.138 0 0 0 .04.05.734.734 0 0 1 .078.083c.024.028.063.05.086.05.026-.003.064.013.088.036a.308.308 0 0 1 .054.076.222.222 0 0 0 .03.054c.012.013.021.047.02.077-.001.025.008.048.021.052l.062.018c.018.007.054.03.08.055.026.024.056.042.067.042.014 0 .048.001.077.004a.207.207 0 0 1 .104.053c.028.028.06.05.07.054a.061.061 0 0 1 .036.031.375.375 0 0 1-.023.238.44.44 0 0 1-.063.1.193.193 0 0 0-.04.087c-.003.03-.007.09-.007.136v.013a.896.896 0 0 1-.015.152.302.302 0 0 1-.045.106.206.206 0 0 1-.09.056.303.303 0 0 0-.103.059.11.11 0 0 0-.027.094.228.228 0 0 1-.012.119 1.677 1.677 0 0 1-.06.12l-.002.002-.025.046A2.488 2.488 0 0 0 7.205 5.12a.054.054 0 0 0-.024.022z"/>
                </g>
            </g>
            <path d="M93.205 20.023l29.69 43.763s-.95 5.313-13.632 5.89L78.546 19.614l14.659.41z" fill="url(#g)"/>
            <path d="M89.84 19.977l30.963 45.663s-2.501 2.96-15.183 3.539L75.18 19.568l14.66.41z" fill="url(#h)"/>
            <path d="M91.493 21.634l30.964 45.662s-2.502 2.96-15.184 3.54L76.834 21.223l14.659.41z" fill="url(#i)"/>
        </g>
    </g>
</svg>
