<svg width="170" height="54" viewBox="0 0 170 54" xmlns="http://www.w3.org/2000/svg"><defs><filter x="-50%" y="-50%" width="200%" height="200%" filterUnits="objectBoundingBox" id="a"><feOffset dy="2" in="SourceAlpha" result="shadowOffsetOuter1"/><feGaussianBlur stdDeviation="1.5" in="shadowOffsetOuter1" result="shadowBlurOuter1"/><feColorMatrix values="0 0 0 0 0.330171131 0 0 0 0 0.314049494 0 0 0 0 0.314049494 0 0 0 0.69885077 0" in="shadowBlurOuter1" result="shadowMatrixOuter1"/><feMerge><feMergeNode in="shadowMatrixOuter1"/><feMergeNode in="SourceGraphic"/></feMerge></filter></defs><path d="M147.01 10.386h-1.054v15.712c0 2.292-.747 4.087-2.238 5.386-1.28 1.111-3.24 1.662-5.873 1.662-2.598 0-4.54-.55-5.823-1.662-1.491-1.299-2.235-3.094-2.235-5.386V10.386h-3.871v15.712c0 3.31 1.14 5.959 3.423 7.944 1.473 1.303 3.248 2.15 5.32 2.537.72.105 1.781.157 3.186.157 1.422 0 2.477-.052 3.161-.157 2.037-.37 3.782-1.17 5.24-2.403v.367h-.028c-.125 2.73-1.104 5.024-2.949 6.891-1.98 1.986-4.37 2.982-7.162 2.982v3.353h1.057c3.775 0 7.003-1.346 9.688-4.041 2.566-2.566 3.907-5.63 4.03-9.185V10.386h-3.871zM38.625 31.738c.104-.168.305-.432.675-.82L52.795 16.79c.576-.594.939-1.356 1.08-2.261a5.223 5.223 0 0 0-.203-2.491c-.277-.844-.719-1.546-1.322-2.09a3.534 3.534 0 0 0-2.402-.917H32.965v4.947H48.51c-.033.033-.065.07-.107.112L34.15 28.975c-.752.796-1.175 1.684-1.257 2.655-.061.878.162 1.737.662 2.555a5.243 5.243 0 0 0 1.947 1.842c.846.485 1.756.73 2.705.73h15.854v-4.95H39.636c-.51 0-.824-.034-1.012-.07zm38.349-21.352c-1.672 0-3.432.387-5.282 1.161l.02 3.79c1.926-1.005 3.68-1.508 5.262-1.508 2.66 0 4.925.938 6.799 2.816 1.89 1.911 2.837 4.189 2.837 6.839 0 2.665-.947 4.945-2.837 6.837-1.874 1.895-4.14 2.841-6.8 2.841-2.642 0-4.916-.946-6.824-2.84-1.888-1.893-2.835-4.173-2.835-6.838V.604h-3.435v22.88c0 3.62 1.277 6.713 3.836 9.277 2.56 2.565 5.646 3.846 9.259 3.846 3.597 0 6.673-1.28 9.234-3.846 2.557-2.564 3.84-5.657 3.84-9.277 0-3.637-1.283-6.73-3.84-9.278-2.561-2.547-5.637-3.82-9.234-3.82zm38.71 16.088c0 2.18-.71 3.891-2.132 5.13-1.223 1.057-3.087 1.585-5.595 1.585-2.475 0-4.325-.528-5.547-1.584-1.42-1.24-2.132-2.95-2.132-5.131V10.386H96.59v16.088c0 3.154 1.09 5.676 3.262 7.568 1.405 1.242 3.093 2.046 5.067 2.415.685.101 1.698.15 3.037.15 1.355 0 2.358-.049 3.01-.15 2.39-.435 4.358-1.483 5.895-3.143 1.675-1.827 2.51-4.106 2.51-6.84V10.386h-3.688v16.088zM9.007 22.896s-.152.727.065 2.193c.132.895 1.45 2.617 2.593 2.594h.548c2.951-.084 5.54-.55 7.701-1.383 2.76-1.068 4.632-2.56 5.553-4.408.58-1.05.873-2.152.871-3.4a8.054 8.054 0 0 0-.429-2.348c-.792-1.984-2.227-3.645-4.276-4.94a15.083 15.083 0 0 0-6.99-2.14c-2.663-.171-4.983.336-7.152 1.384-1.343.553-2.826 1.76-4.595 3.758C1.361 16.392.423 18.765.107 21.258.037 21.826 0 22.4 0 22.985c0 1.956.409 3.905 1.231 5.837 1.194 2.43 2.905 4.367 5.083 5.757a13.439 13.439 0 0 0 6.802 2.155c.253.018.505.027.756.027h.604c2.26 0 4.253-.275 5.921-.814a16.263 16.263 0 0 0 4.918-2.532l.298-.226v-5.921l-1.244 1.087c-2.724 2.378-5.967 3.583-9.643 3.583-.253 0-.507-.008-.804-.025-1.826 0-3.6-.587-5.234-1.727-2.555-1.995-3.8-4.442-3.8-7.478 0-1.547.438-3.067 1.295-4.515.907-1.506 2.227-2.68 3.92-3.477 1.583-.755 3.291-.999 5.331-.668 1.945.311 3.573 1.096 4.84 2.334.724.712 1.078 1.443 1.078 2.215-.012.71-.273 1.276-.737 1.688-3.12 2.222-7.223 2.99-11.608 2.611zM162.893 1.105C162.157.368 161.264 0 160.215 0c-1.05 0-1.942.368-2.679 1.105-.737.74-1.107 1.625-1.107 2.661 0 1.035.37 1.92 1.107 2.661.737.736 1.628 1.105 2.679 1.105 1.05 0 1.942-.369 2.678-1.105.737-.74 1.107-1.626 1.107-2.66 0-1.037-.37-1.922-1.107-2.662zm-.553 4.812c-.595.597-1.303.895-2.125.895a2.883 2.883 0 0 1-2.12-.884 2.957 2.957 0 0 1-.892-2.162c0-.84.296-1.564.891-2.162a2.883 2.883 0 0 1 2.12-.884c.823 0 1.531.298 2.126.895a2.93 2.93 0 0 1 .887 2.151c0 .84-.294 1.559-.887 2.151zm-.719-2.478c.193-.234.29-.516.29-.847 0-.34-.103-.63-.306-.868-.222-.273-.527-.41-.907-.41h-1.05c-.342 0-.63.116-.861.348-.238.238-.358.52-.358.847v3.35h.774V3.876h1.158a.84.84 0 0 1 .61.263.86.86 0 0 1 .256.631v1.09H162V4.77a1.55 1.55 0 0 0-.521-1.178c.054-.05.102-.1.142-.153zm-.614-.431a.379.379 0 0 1-.309.143h-1.495v-.642c0-.134.044-.249.135-.348a.436.436 0 0 1 .31-.126h1.05c.173 0 .3.082.378.248.04.093.063.197.063.309a.64.64 0 0 1-.132.416z" filter="url(#a)" transform="translate(3 1)" fill="#FFF" fill-rule="evenodd"/></svg>