<svg width="297" height="115" viewBox="0 0 297 115" xmlns="http://www.w3.org/2000/svg"><defs><filter x="-50%" y="-50%" width="200%" height="200%" filterUnits="objectBoundingBox" id="a"><feOffset dy="2" in="SourceAlpha" result="shadowOffsetOuter1"/><feGaussianBlur stdDeviation="2" in="shadowOffsetOuter1" result="shadowBlurOuter1"/><feColorMatrix values="0 0 0 0 0.75647096 0 0 0 0 0.868905107 0 0 0 0 1 0 0 0 1 0" in="shadowBlurOuter1" result="shadowMatrixOuter1"/><feMerge><feMergeNode in="shadowMatrixOuter1"/><feMergeNode in="SourceGraphic"/></feMerge></filter></defs><g filter="url(#a)" transform="rotate(-10 281.337 13.096)" fill="none" fill-rule="evenodd"><path d="M72.658 71.13c9.34 1.219 35.06-3.487 35.06-3.487S197.964 48.9 241.825 40.344c43.861-8.556 51.779-24.89 51.262-27.54-.516-2.646-6.232-4.738-6.232-4.738l-1.544-.412c-2.44-2.77-5.561-4.595-8.99-5.742-9.422-3.163-21.158-1.204-27.441.02l-21.181 4.131L72.34 38.737l-5.137 1.076s-37.065 7.947-45.311 13.75c-1.137.81-1.722 1.567-1.586 2.271" fill="#ECF0F4"/><path d="M20.307 55.834c.322 1.658 1.265 3.107 2.672 4.406.06-.045.128-.095.187-.144 8.242-5.807 45.306-13.75 45.306-13.75l5.14-1.076 155.362-32.674s12.403-3.036 20.957-4.705c6.281-1.225 18.162-4.138 27.585-.972 3.43 1.147 4.829.104 7.27 2.872 0 0 7.249.79 7.034 6.653 1.069-1.749 1.386-3.037 1.267-3.64-.516-2.646-6.232-4.738-6.232-4.738l-1.544-.412c-2.44-2.77-5.561-4.595-8.99-5.742-9.422-3.163-21.158-1.204-27.441.02l-21.181 4.131L72.34 38.737l-5.137 1.076s-37.065 7.947-45.311 13.75c-1.137.81-1.722 1.567-1.586 2.271" fill="#FFF"/><path d="M20.32 55.87c.177.935.562 1.815 1.127 2.637l3.939-.771c-1.827-.998-3.324-2.116-4.374-3.397-.545.53-.795 1.037-.692 1.53" fill="#4B757E"/><path d="M270.92 3.882l5.501 5.121 6.63-1.294c-2.016-2.283-4.602-3.793-7.441-4.743l-4.69.916zm-9.065 1.77l4.318 5.35 8.044-1.571-5.486-5.122zM112.02 48.02c.286 1.464 1.79 2.4 3.362 2.092l66.884-13.05c1.582-.303 2.622-1.737 2.332-3.201-.283-1.466-1.782-2.403-3.36-2.093l-66.884 13.05c-1.578.305-2.614 1.736-2.335 3.201" fill="#259AFC"/><path d="M125.806 49.966l2.783 14.317c10.985.94 25.996.007 35.293-5.582l-3.277-16.824c-10.718-1.701-24.98 3.075-34.799 8.09" fill="#259AFC"/><path d="M160.605 41.876l3.277 16.826a20.448 20.448 0 0 0 3.177-2.286l-2.649-13.613a20.46 20.46 0 0 0-3.805-.927m-38.497 10.096l2.309 11.842c.393.054.786.105 1.2.153.462.058.959.126 1.463.173.51.064.994.115 1.51.143l-2.783-14.317a67.09 67.09 0 0 0-3.7 2.006m-14.582-13.613l4.495 9.66c.287 1.465 1.79 2.402 3.363 2.093l43.565-8.5c1.575-.305 2.618-1.74 2.33-3.201-.286-1.465-1.786-2.398-3.36-2.096l-31.555 6.159-10.149-5.808-8.69 1.693zM.158 9.134l21.735 44.428c8.247-5.802 45.31-13.749 45.31-13.749l5.137-1.076 1.245-.37C55.07 39.744 29.408 15.042 17.787 4.722L.158 9.134zm12.149 48.74a2.379 2.379 0 0 0 2.79 1.877l47.656-9.295a2.384 2.384 0 0 0 1.877-2.793 2.387 2.387 0 0 0-2.797-1.88l-47.65 9.297a2.385 2.385 0 0 0-1.876 2.794m228.06-42.377a2.697 2.697 0 0 0 3.162 2.134 2.692 2.692 0 0 0 2.128-3.166 2.688 2.688 0 0 0-3.159-2.132 2.7 2.7 0 0 0-2.131 3.164m-7.495 1.465a2.702 2.702 0 0 0 3.165 2.13 2.704 2.704 0 0 0 2.128-3.165 2.697 2.697 0 0 0-3.16-2.133 2.702 2.702 0 0 0-2.133 3.168m-7.494 1.463a2.69 2.69 0 0 0 3.159 2.128 2.688 2.688 0 0 0 2.127-3.163 2.69 2.69 0 0 0-3.158-2.132 2.695 2.695 0 0 0-2.128 3.167m-7.495 1.46a2.692 2.692 0 0 0 3.16 2.132 2.697 2.697 0 0 0 2.129-3.164 2.69 2.69 0 0 0-3.16-2.13 2.692 2.692 0 0 0-2.129 3.162m-7.498 1.462a2.699 2.699 0 0 0 3.163 2.133 2.696 2.696 0 0 0 2.125-3.164 2.69 2.69 0 0 0-3.16-2.135 2.7 2.7 0 0 0-2.128 3.166m-7.496 1.462a2.7 2.7 0 0 0 3.162 2.134 2.7 2.7 0 0 0 2.131-3.166 2.695 2.695 0 0 0-3.16-2.132 2.695 2.695 0 0 0-2.133 3.164m-7.494 1.463a2.69 2.69 0 0 0 3.16 2.132 2.693 2.693 0 0 0 2.13-3.163 2.694 2.694 0 1 0-5.29 1.03m-37.478 7.31a2.699 2.699 0 0 0 3.158 2.139 2.705 2.705 0 0 0 2.131-3.167 2.698 2.698 0 0 0-3.16-2.134 2.692 2.692 0 0 0-2.13 3.162m-7.496 1.464a2.697 2.697 0 0 0 3.161 2.135 2.697 2.697 0 0 0 2.13-3.165 2.693 2.693 0 0 0-3.16-2.132 2.693 2.693 0 0 0-2.13 3.162" fill="#259AFC"/><path d="M142.928 34.508a2.686 2.686 0 0 0 3.16 2.132 2.699 2.699 0 0 0 2.126-3.164 2.694 2.694 0 0 0-3.16-2.134 2.69 2.69 0 0 0-2.126 3.166m-7.504 1.462a2.702 2.702 0 0 0 3.161 2.135 2.697 2.697 0 0 0 2.129-3.168 2.692 2.692 0 0 0-3.158-2.132 2.7 2.7 0 0 0-2.132 3.165m-7.492 1.461a2.693 2.693 0 1 0 5.288-1.033 2.687 2.687 0 0 0-3.155-2.13 2.697 2.697 0 0 0-2.133 3.163M97.945 43.51a2.697 2.697 0 1 0 5.293-1.034 2.69 2.69 0 0 0-3.16-2.13 2.702 2.702 0 0 0-2.133 3.163m-7.493 1.795a2.697 2.697 0 1 0 2.129-3.167 2.702 2.702 0 0 0-2.129 3.167m-7.318 1.495a2.696 2.696 0 0 0 3.157 2.134 2.693 2.693 0 0 0 2.126-3.166 2.693 2.693 0 0 0-5.283 1.032" fill="#259AFC"/><path d="M292.392 15.474c-2.792 5.638-14.586 17.887-50.556 24.907-19.759 3.85-48.879 9.77-74.956 15.115l.185.915a20.197 20.197 0 0 1-3.187 2.286c-9.291 5.597-24.302 6.53-35.288 5.585-.517-.02-1.003-.08-1.512-.147-.496-.048-.995-.115-1.454-.164-10.975 2.27-17.906 3.715-17.906 3.715s-25.715 4.697-35.056 3.478c-8.359-1.103-41.643-2.122-50.343-11.582a9.673 9.673 0 0 1-.837-1.029c-.012-.011-.025-.033-.037-.044l41.298-8.055c.52-.108.96-.374 1.296-.752L54.021 64.614c7.695.858 14.506 1.276 17.702 1.7 3.967.52 10.877-.044 17.542-.825l18.26-27.135 4.492 9.661c.293 1.47 1.793 2.404 3.355 2.102l66.887-13.047a2.902 2.902 0 0 0 1.413-.702l-8.282 12.32c23.443-4.8 48.106-9.773 65.495-13.168 35.472-6.913 48.466-14.46 51.507-20.046" fill="#62BBFF"/><path d="M18.71 35.18c1.042 5.337 6.204 8.813 11.529 7.776 5.332-1.042 8.81-6.208 7.768-11.54-1.04-5.332-6.203-8.814-11.525-7.773-5.328 1.038-8.806 6.207-7.771 11.537" fill="#FFF"/></g></svg>