<svg width="49" height="50" viewBox="0 0 49 50" xmlns="http://www.w3.org/2000/svg">
    <g fill="none" fill-rule="evenodd">
        <path d="M23.987 49.38c-13.62 0-24.659-10.961-24.659-24.486C-.672 11.372 10.368.41 23.988.41c13.617 0 24.656 10.963 24.656 24.485 0 13.525-11.039 24.486-24.657 24.486z" fill="#FAD66D"/>
        <path fill="#FFF" d="M3.897 27.56H9.43v-2.888H3.897zm15.736 2.566v2.856h-9.264l.002-2.39c2.744-4.457 4.375-7.214 4.893-8.274.516-1.058.776-1.884.776-2.479 0-.455-.08-.794-.234-1.018-.157-.225-.395-.337-.716-.337-.32 0-.558.125-.715.373-.156.248-.234.741-.234 1.48v1.593h-3.772v-.61c0-.939.047-1.678.146-2.22.097-.542.335-1.074.718-1.599a3.598 3.598 0 0 1 1.49-1.19c.612-.269 1.345-.404 2.2-.404 1.673 0 2.94.413 3.798 1.238.858.824 1.287 1.867 1.287 3.13 0 .958-.241 1.973-.725 3.042-.482 1.07-1.905 3.34-4.267 6.81h4.617m7.357-9.635c0-.89-.044-1.447-.13-1.671-.087-.225-.29-.337-.61-.337-.313 0-.52.12-.62.357-.1.238-.152.788-.152 1.651v8.175c0 .972.048 1.559.142 1.759.093.201.297.3.609.3.314 0 .518-.117.616-.351.096-.235.145-.763.145-1.584v-8.299zm4.21 1.407v5.589c0 1.269-.069 2.193-.208 2.772-.14.58-.427 1.122-.866 1.626a3.722 3.722 0 0 1-1.583 1.086c-.62.22-1.31.331-2.074.331-1.007 0-1.845-.115-2.512-.346-.667-.231-1.198-.592-1.594-1.082a4.611 4.611 0 0 1-.844-1.547c-.166-.542-.25-1.403-.25-2.582V21.9c0-1.538.134-2.69.4-3.457.268-.765.8-1.379 1.596-1.84.795-.463 1.76-.695 2.891-.695.925 0 1.751.161 2.481.482.73.32 1.275.712 1.636 1.174.36.463.606.984.735 1.563.128.58.192 1.503.192 2.773zm12.506 4.554c0-.441-.022-.715-.067-.823-.046-.107-.169-.16-.37-.16-.188 0-.308.055-.36.165-.052.11-.078.383-.078.818v4.222c0 .476.024.762.073.859.048.097.173.144.375.144.188 0 .306-.053.354-.16.049-.107.073-.367.073-.781v-4.284zm2.668.724v2.888c0 .744-.071 1.306-.214 1.685-.142.38-.448.71-.916.99-.469.278-1.09.418-1.861.418-.881 0-1.558-.134-2.026-.403-.469-.269-.786-.59-.949-.963-.163-.372-.245-.903-.245-1.594v-3.021c0-.821.085-1.43.256-1.827.17-.396.498-.72.984-.972.487-.252 1.087-.378 1.802-.378.8 0 1.446.138 1.94.414.493.276.822.607.984.994.164.385.245.975.245 1.769zm-2.918-11.27L36.86 33.303h-1.605l6.62-17.396h1.582zM35.88 18.35c0-.442-.023-.714-.068-.818-.044-.103-.168-.155-.37-.155-.188 0-.31.055-.364.166-.056.11-.084.379-.084.807v4.222c0 .483.024.772.073.87.049.096.177.145.385.145.18 0 .298-.056.35-.167.051-.11.078-.368.078-.775V18.35zm2.667.735v2.876c0 .752-.07 1.317-.213 1.693-.143.375-.448.703-.916.982-.47.28-1.09.42-1.861.42-.89 0-1.567-.133-2.032-.399-.466-.266-.78-.584-.943-.957-.163-.373-.245-.907-.245-1.604v-3.011c0-.828.084-1.44.255-1.837.17-.397.499-.72.985-.968s1.087-.373 1.803-.373c.79 0 1.435.136 1.928.41.493.271.822.601.99.988.167.386.25.98.25 1.78z"/>
    </g>
</svg>
