<svg width="58" height="74" viewBox="0 0 58 74" xmlns="http://www.w3.org/2000/svg"><g fill="none" fill-rule="evenodd"><path d="M36.58 15.144a4.069 4.069 0 0 1-2.81-5.038c.629-2.162 2.9-3.409 5.075-2.789 2.178.625 3.435 2.88 2.809 5.04-.626 2.163-2.898 3.41-5.074 2.787zm19.116-.024L44.36 2.792C42.602.882 39.107-.117 36.595.577L20.397 5.042c-2.513.69-5.16 3.294-5.879 5.781L.807 58.17c-.721 2.487.738 5.11 3.245 5.825l33.953 9.696c2.506.717 5.146-.734 5.865-3.224l13.712-47.346c.722-2.487-.13-6.088-1.886-8z" fill="#FFA003"/><path d="M39.734 4.256c-1.091-.312-2.2-.356-3.055-.122L21.446 8.332c-1.831.506-3.901 2.54-4.427 4.355L4.126 57.21a2.85 2.85 0 0 0 1.964 3.527l31.93 9.118c1.521.434 3.114-.441 3.552-1.951l12.895-44.527c.523-1.81-.139-4.628-1.423-6.023L42.385 5.763c-.595-.647-1.563-1.198-2.65-1.507zM37.758 70.76L5.83 61.644c-2.025-.578-3.198-2.683-2.615-4.691L16.11 12.426c.625-2.155 2.904-4.401 5.082-5l15.235-4.201c1.015-.278 2.317-.234 3.568.124 1.254.359 2.378 1.007 3.09 1.78l10.66 11.59c1.525 1.66 2.257 4.764 1.632 6.923L42.481 68.165c-.58 2.01-2.7 3.173-4.723 2.595z" fill="#FFF"/><path d="M19.519 43.935l-3.418-.98.303-1.04c.141-.487.188-.809.139-.967-.049-.16-.176-.267-.378-.325a.581.581 0 0 0-.581.125c-.166.146-.303.402-.41.767-.134.469-.174.84-.115 1.116.052.271.315.657.79 1.156 1.356 1.435 2.158 2.523 2.403 3.264.245.742.167 1.8-.233 3.178-.292 1-.625 1.705-.998 2.112-.374.406-.946.674-1.714.8-.77.128-1.603.062-2.5-.194-.987-.283-1.773-.71-2.36-1.28-.59-.57-.908-1.173-.957-1.806-.05-.635.08-1.48.386-2.532l.268-.921 3.417.98-.497 1.711c-.154.526-.204.878-.152 1.057.052.178.202.301.446.372.244.07.455.027.63-.13s.317-.422.426-.8c.24-.827.285-1.4.132-1.72-.16-.321-.61-.911-1.35-1.769-.74-.865-1.22-1.474-1.438-1.832-.218-.357-.355-.805-.41-1.34-.056-.537.026-1.178.243-1.924.313-1.076.68-1.824 1.1-2.241.424-.42.984-.68 1.683-.783.7-.103 1.485-.03 2.36.22.955.275 1.724.661 2.309 1.162.584.499.917 1.013 1 1.542.082.527-.038 1.351-.364 2.467l-.16.555m4.478 6.467c.276-1.645.661-3.666 1.156-6.063-1.157 2.583-1.966 4.483-2.423 5.7l1.267.363zm4.578-8.475L26.592 56.58l-3.761-1.079.537-2.583-1.316-.377-.956 2.462-3.804-1.091L23.257 40.4l5.318 1.526zm6.409 1.838l-3.271 11.238 2.238.643-.817 2.812-5.918-1.698 4.089-14.05 3.68 1.055m3.128.898l6.135 1.76-.819 2.812-2.456-.704-.775 2.664 2.299.659-.777 2.673-2.299-.66-.9 3.09 2.702.775-.819 2.812-6.379-1.831 4.088-14.05M23.349 22.564l-1.156 3.975c.202.05.36.091.471.123.46.132.784.103.976-.085.19-.188.44-.813.75-1.873.162-.558.223-.965.185-1.22-.038-.254-.133-.435-.282-.542-.15-.107-.464-.233-.944-.378zm-1.966 6.757l-1.456 5.001c.667.167 1.117.186 1.353.054.235-.133.458-.56.667-1.281l.485-1.667c.223-.766.277-1.252.16-1.46-.116-.209-.519-.425-1.209-.647zm-1.825-11.158l4.67 1.34c1.474.422 2.558.857 3.253 1.303.693.446 1.171 1.084 1.437 1.913.265.828.172 2.016-.277 3.56-.304 1.045-.68 1.726-1.13 2.043-.451.318-1.192.447-2.228.39 1.012.553 1.629 1.166 1.85 1.841.22.673.163 1.592-.176 2.756l-.482 1.657c-.352 1.208-.75 2.063-1.199 2.565a2.343 2.343 0 0 1-1.675.812c-.67.04-1.946-.211-3.829-.751l-5.415-1.554 5.201-17.875zm17.256 4.95l-5.2 17.876-4.682-1.343 5.202-17.876 4.68 1.343M47.52 33.314l-4.681-1.342.472-1.624c.297-1.023.44-1.676.426-1.96-.014-.282-.188-.472-.521-.567-.29-.083-.518-.03-.686.161-.168.192-.385.744-.651 1.656l-2.496 8.579c-.233.803-.335 1.346-.304 1.63.029.283.199.47.512.559.339.097.614.021.818-.231.206-.252.431-.794.672-1.626l.617-2.12-.944-.27.79-2.716 5.48 1.572-2.79 9.595-2.942-.844-.06-1.406c-.48.461-1.003.76-1.569.896-.566.137-1.18.11-1.84-.078a4.663 4.663 0 0 1-2.043-1.203c-.576-.577-.961-1.195-1.154-1.857a4.597 4.597 0 0 1-.155-1.952c.09-.64.314-1.574.671-2.804l1.545-5.31c.498-1.709.951-2.922 1.362-3.642.409-.72 1.148-1.275 2.213-1.667 1.066-.392 2.296-.389 3.69.012 1.37.393 2.427 1 3.169 1.817.74.82 1.137 1.653 1.188 2.5.05.848-.137 2.005-.565 3.47l-.224.772" fill="#FFF"/></g></svg>