<svg width="50" height="50" viewBox="0 0 50 50" xmlns="http://www.w3.org/2000/svg">
    <g fill="none" fill-rule="evenodd">
        <path d="M50.003 25.366c0 13.524-11.039 24.485-24.657 24.485C11.726 49.85.687 38.89.687 25.366.687 11.843 11.727.881 25.347.881c13.617 0 24.656 10.962 24.656 24.485" fill="#E13D40"/>
        <path fill="#FFF" d="M4.834 28.03h5.532v-2.886H4.834zm12.556-1.655c0-.593-.065-1-.197-1.221-.132-.22-.347-.33-.646-.33-.293 0-.505.104-.64.315-.137.21-.205.622-.205 1.236v3.033c0 .738.064 1.22.193 1.448.128.228.342.342.641.342.18 0 .369-.088.562-.264.195-.176.293-.65.293-1.423v-3.136zm4.212-5.226H17.39c0-.78-.008-1.27-.026-1.475a.762.762 0 0 0-.25-.512c-.15-.137-.353-.206-.61-.206a.743.743 0 0 0-.771.703c-.021.207-.032.625-.032 1.252v2.67c.216-.448.532-.785.95-1.009.416-.224.93-.336 1.541-.336.772 0 1.453.206 2.043.621.59.414.965.91 1.125 1.49.16.58.24 1.363.24 2.35v1.334c0 1.173-.045 2.046-.136 2.619a3.325 3.325 0 0 1-.724 1.587c-.393.487-.93.864-1.616 1.134-.684.268-1.481.403-2.39.403-1.133 0-2.06-.155-2.783-.465-.723-.31-1.28-.757-1.673-1.34a3.996 3.996 0 0 1-.688-1.837c-.066-.642-.099-1.887-.099-3.735v-2.319c0-1.994.03-3.327.09-4 .058-.673.3-1.308.724-1.908.424-.602 1.001-1.052 1.734-1.352.733-.3 1.58-.45 2.539-.45 1.18 0 2.15.19 2.906.57.757.379 1.299.913 1.627 1.603.326.69.49 1.56.49 2.608zm7.169-.185c0-.892-.044-1.448-.13-1.672-.087-.225-.29-.336-.61-.336-.312 0-.52.119-.62.356-.101.238-.152.789-.152 1.652v8.174c0 .973.048 1.56.143 1.76.092.2.295.3.608.3s.518-.117.616-.353c.096-.233.145-.761.145-1.582v-8.3zm4.21 1.406v5.588c0 1.27-.068 2.194-.208 2.773-.14.58-.428 1.122-.866 1.626a3.726 3.726 0 0 1-1.583 1.087c-.619.22-1.31.33-2.074.33-1.007 0-1.845-.115-2.511-.347-.668-.23-1.199-.59-1.595-1.08A4.623 4.623 0 0 1 23.3 30.8c-.166-.542-.25-1.403-.25-2.582V22.37c0-1.538.135-2.69.402-3.456.268-.766.799-1.38 1.594-1.842.796-.462 1.76-.693 2.893-.693.923 0 1.75.16 2.48.481.73.32 1.275.712 1.636 1.174.36.463.606.984.735 1.563.128.58.193 1.504.193 2.773zm12.506 4.554c0-.442-.023-.716-.068-.823-.045-.107-.17-.16-.37-.16-.187 0-.308.055-.36.165-.052.111-.077.383-.077.818v4.222c0 .476.023.762.072.859.05.097.174.145.375.145.187 0 .306-.054.355-.16.049-.108.073-.368.073-.782v-4.284zm2.668.724v2.887c0 .745-.071 1.307-.215 1.687-.142.38-.447.71-.916.988-.468.28-1.09.42-1.86.42-.883 0-1.558-.136-2.027-.404-.47-.27-.785-.59-.95-.962-.162-.373-.244-.904-.244-1.595v-3.02c0-.821.087-1.43.256-1.827.17-.397.498-.721.985-.973.486-.252 1.086-.378 1.802-.378.8 0 1.445.139 1.94.414.493.276.82.607.984.994.163.385.245.976.245 1.77zM45.237 16.38L38.64 33.774h-1.605l6.619-17.395h1.583zm-7.577 2.44c0-.44-.022-.713-.067-.817-.045-.103-.169-.155-.37-.155-.188 0-.31.055-.365.166-.056.11-.083.379-.083.806v4.223c0 .483.024.773.072.87.05.096.178.144.386.144.18 0 .297-.054.35-.165.052-.11.077-.37.077-.776V18.82zm2.669.735v2.878c0 .751-.071 1.316-.214 1.691-.143.377-.449.705-.917.984-.47.279-1.09.419-1.86.419-.89 0-1.568-.133-2.033-.399-.466-.265-.78-.585-.943-.957-.163-.373-.245-.907-.245-1.603v-3.013c0-.827.086-1.44.255-1.836.17-.397.5-.72.986-.968.485-.248 1.087-.372 1.802-.372.792 0 1.435.136 1.929.408.493.273.822.602.99.99.166.386.25.978.25 1.778z"/>
    </g>
</svg>
