<svg width="66" height="68" viewBox="0 0 66 68" xmlns="http://www.w3.org/2000/svg"><g fill="none" fill-rule="evenodd"><path d="M46.04 12.555a3.907 3.907 0 0 1 5.46-.646 3.842 3.842 0 0 1 .652 5.421 3.91 3.91 0 0 1-5.46.65 3.845 3.845 0 0 1-.653-5.425zM31.646 2.843L.737 41.773l33.4 26.092 30.91-38.934-.823-13.585L45.139.437 31.647 2.843z" fill="#F68140"/><path d="M61.561 28.312l-.676-11.14L44.138 4.087 33.076 6.06 5.362 40.953 33.85 63.207l27.71-34.895zM32.41 4.962l12.05-2.15 17.6 13.75.735 12.134-28.742 36.197L3.664 41.154 32.41 4.963z" fill="#FFF"/><path d="M20.8 37.248l2.21 1.736-3.38 4.245 2.348 1.843c-.209-1.026.019-1.959.685-2.795.751-.943 1.585-1.448 2.501-1.513.918-.066 2.133.495 3.645 1.683l1.973 1.549c.978.767 1.66 1.377 2.044 1.831.384.452.65.984.795 1.595.148.612.108 1.272-.118 1.98-.227.708-.653 1.455-1.278 2.24-.701.881-1.475 1.536-2.32 1.965-.846.43-1.687.543-2.527.345-.84-.2-1.902-.805-3.188-1.814l-.752-.59 2.727-3.425.861.678c.893.7 1.553 1.168 1.978 1.4.425.233.783.165 1.075-.202a.689.689 0 0 0 .166-.538.695.695 0 0 0-.216-.445 76.411 76.411 0 0 0-1.606-1.308l-2.74-2.151c-.518-.406-.913-.63-1.186-.67-.273-.04-.51.064-.707.313a.732.732 0 0 0-.172.512c.011.184.06.335.146.452.087.118.331.336.735.653l-2.699 3.39-6.85-5.61 5.85-7.349m8.684-3.732c-.734-.576-1.221-.901-1.462-.976-.241-.074-.465.019-.672.278-.203.254-.238.5-.106.736.13.236.55.633 1.262 1.191l6.744 5.293c.801.63 1.316.971 1.542 1.024.225.054.439-.048.641-.302.203-.255.238-.496.108-.727-.13-.231-.533-.612-1.211-1.144l-6.846-5.373zm3.887-2.513l4.61 3.618c1.047.821 1.764 1.477 2.152 1.965.387.488.648 1.073.779 1.754.132.683.09 1.347-.128 1.993-.219.645-.575 1.279-1.07 1.9-.653.82-1.29 1.425-1.91 1.819-.624.393-1.266.591-1.926.597-.66.004-1.267-.1-1.822-.316-.555-.215-1.32-.703-2.292-1.468L26.94 39.08c-1.27-.996-2.132-1.85-2.59-2.564-.459-.714-.621-1.543-.488-2.49.135-.946.568-1.88 1.3-2.8.599-.752 1.266-1.32 2.003-1.707.738-.385 1.414-.575 2.029-.57a4.115 4.115 0 0 1 1.764.415c.561.27 1.365.816 2.412 1.638zm11.852-7.223c-.364-.285-.606-.445-.723-.478-.117-.032-.242.033-.372.198-.122.152-.154.286-.095.4.056.112.264.31.622.592l3.484 2.734c.392.308.644.473.755.497.112.022.231-.048.363-.211.12-.153.153-.285.097-.393-.057-.109-.256-.297-.598-.566l-3.533-2.773zm2.324-1.701l2.382 1.87c.614.482 1.032.904 1.252 1.266.221.361.295.822.221 1.385-.072.562-.359 1.157-.858 1.784-.57.718-1.12 1.18-1.644 1.388-.526.207-.996.256-1.409.147-.412-.108-.904-.385-1.473-.832l-2.492-1.957c-.677-.531-1.124-.994-1.341-1.39-.217-.394-.272-.872-.164-1.43.107-.558.391-1.129.855-1.71.517-.65 1.05-1.087 1.596-1.31.547-.222 1.033-.274 1.456-.157.425.118.965.433 1.62.946zm-11.184-4.922L46.44 33.783l-1.038 1.306-10.063-16.645 1.024-1.287zm-2.89 7.743c-.364-.286-.603-.444-.718-.474-.115-.03-.238.036-.368.2-.122.152-.155.287-.099.404.054.117.259.313.612.59l3.482 2.733c.397.313.653.481.764.504.112.023.234-.05.37-.22.116-.146.146-.277.088-.39-.057-.115-.254-.303-.588-.567l-3.542-2.78zm2.333-1.695l2.373 1.863c.62.487 1.038.91 1.256 1.269.219.36.29.82.217 1.382-.073.563-.359 1.157-.858 1.785-.576.724-1.123 1.188-1.644 1.395-.52.206-.987.255-1.4.147-.413-.108-.907-.388-1.482-.84l-2.483-1.948c-.683-.536-1.133-1.002-1.35-1.397-.217-.395-.27-.872-.16-1.427.11-.558.396-1.126.86-1.708.512-.645 1.04-1.078 1.585-1.304.544-.225 1.029-.28 1.456-.166.426.115.97.432 1.63.95z" fill="#FFF"/></g></svg>