<svg width="50" height="50" viewBox="0 0 50 50" xmlns="http://www.w3.org/2000/svg"><g fill="none" fill-rule="evenodd"><path d="M49.852 24.718c0 13.525-11.038 24.486-24.658 24.486C11.576 49.204.535 38.243.535 24.718.535 11.196 11.576.234 25.195.234s24.657 10.962 24.657 24.484" fill="#C97FFF"/><path fill="#FFF" d="M4.682 27.384h5.533v-2.887H4.682zm12.558-1.656c0-.593-.067-1-.199-1.22-.131-.22-.346-.331-.645-.331-.292 0-.507.104-.641.315-.136.21-.204.622-.204 1.236v3.033c0 .738.064 1.22.193 1.448.128.228.342.342.64.342.182 0 .37-.088.564-.264.194-.176.291-.65.291-1.423v-3.136zm4.21-5.226h-4.21c0-.78-.01-1.27-.027-1.474a.763.763 0 0 0-.25-.513c-.15-.137-.352-.206-.61-.206a.747.747 0 0 0-.531.196.792.792 0 0 0-.24.508c-.02.206-.03.625-.03 1.252v2.67c.214-.45.53-.786.947-1.009.417-.225.931-.337 1.543-.337.771 0 1.452.207 2.042.621.59.414.967.91 1.125 1.49.161.58.24 1.363.24 2.35v1.334c0 1.173-.044 2.046-.135 2.619a3.31 3.31 0 0 1-.725 1.587c-.391.487-.93.864-1.614 1.134-.685.269-1.482.404-2.391.404-1.134 0-2.06-.156-2.784-.467-.723-.31-1.28-.756-1.672-1.34a3.985 3.985 0 0 1-.688-1.836c-.066-.641-.1-1.887-.1-3.735v-2.32c0-1.993.03-3.326.09-3.998.058-.674.3-1.309.724-1.91.423-.6 1.002-1.05 1.735-1.35.733-.3 1.58-.45 2.537-.45 1.182 0 2.15.19 2.909.569.756.38 1.298.913 1.624 1.604.327.69.49 1.559.49 2.607zm7.17-.185c0-.891-.043-1.448-.13-1.672-.087-.224-.29-.336-.61-.336-.313 0-.52.119-.62.357-.1.237-.151.788-.151 1.65v8.176c0 .972.046 1.558.14 1.759.095.2.297.3.61.3.312 0 .517-.117.615-.352.098-.234.146-.762.146-1.583v-8.3zm4.21 1.406v5.589c0 1.27-.07 2.194-.209 2.772-.139.58-.427 1.122-.864 1.626a3.729 3.729 0 0 1-1.585 1.087c-.617.22-1.309.33-2.073.33-1.008 0-1.845-.115-2.511-.346-.668-.23-1.199-.591-1.595-1.081a4.647 4.647 0 0 1-.845-1.547c-.166-.542-.25-1.403-.25-2.582v-5.848c0-1.537.134-2.69.401-3.456.268-.766.8-1.38 1.596-1.842.795-.462 1.758-.693 2.892-.693.923 0 1.75.16 2.48.481.73.32 1.273.712 1.635 1.174.361.463.607.984.735 1.564.128.58.193 1.503.193 2.772zm12.507 4.554c0-.441-.025-.715-.069-.823-.045-.107-.168-.16-.37-.16-.188 0-.308.056-.359.166-.053.11-.078.382-.078.817v4.222c0 .477.024.763.072.859.049.097.174.145.375.145.188 0 .307-.054.355-.16.048-.108.074-.367.074-.782v-4.284zm2.666.725v2.887c0 .744-.07 1.307-.213 1.686-.143.38-.448.71-.917.988-.47.28-1.09.42-1.86.42-.883 0-1.558-.135-2.028-.403-.468-.27-.784-.591-.947-.963-.164-.373-.245-.904-.245-1.594v-3.021c0-.821.085-1.43.255-1.827.17-.396.498-.721.985-.973.486-.252 1.087-.378 1.802-.378.799 0 1.445.139 1.939.414.493.276.822.608.984.994.164.386.245.976.245 1.77zm-2.916-11.27l-6.598 17.396h-1.605l6.62-17.396h1.583zm-7.577 2.442c0-.44-.024-.714-.068-.818-.046-.103-.17-.154-.37-.154-.188 0-.31.055-.365.165-.055.11-.084.379-.084.807v4.222c0 .483.025.773.073.87.048.096.177.145.387.145.18 0 .296-.055.348-.166.053-.11.079-.37.079-.776v-4.295zm2.667.735v2.876c0 .752-.071 1.317-.213 1.693-.143.376-.449.703-.918.983-.47.279-1.09.419-1.86.419-.89 0-1.567-.132-2.033-.399-.464-.265-.779-.584-.942-.957-.164-.373-.245-.907-.245-1.603v-3.012c0-.828.085-1.44.255-1.837.17-.397.498-.72.985-.968.486-.248 1.088-.372 1.804-.372.791 0 1.434.136 1.927.408.493.273.823.602.99.99.167.386.25.978.25 1.779z"/></g></svg>