<svg width="50" height="50" viewBox="0 0 50 50" xmlns="http://www.w3.org/2000/svg">
    <g fill="none" fill-rule="evenodd">
        <path d="M49.906 25.299c0 13.524-11.038 24.485-24.657 24.485S.59 38.823.59 25.299C.59 11.776 11.63.814 25.25.814c13.618 0 24.656 10.962 24.656 24.485" fill="#F96463"/>
        <path fill="#FFF" d="M3.21 28.135h5.75v-3H3.21zm11.466-.399V20.33l-1.933 7.407h1.933zm4.374-11.374v11.374h1.245v2.968H19.05v3.064h-4.374v-3.064H9.479v-2.968l3.779-11.374h5.792zm8.098 4.429c0-.924-.045-1.503-.136-1.735-.09-.234-.3-.35-.633-.35-.325 0-.54.123-.644.37-.104.248-.156.82-.156 1.715v8.494c0 1.011.048 1.62.146 1.828.097.208.308.311.633.311s.538-.122.639-.365c.1-.243.151-.792.151-1.645v-8.623zm4.374 1.463v5.805c0 1.32-.072 2.28-.216 2.882-.145.602-.445 1.164-.899 1.687-.455.524-1.004.9-1.646 1.13-.643.229-1.36.343-2.154.343-1.047 0-1.917-.12-2.61-.36-.692-.24-1.244-.615-1.657-1.123a4.8 4.8 0 0 1-.876-1.607c-.174-.563-.26-1.458-.26-2.682v-6.075c0-1.598.138-2.796.417-3.59.277-.796.829-1.434 1.657-1.914.825-.48 1.828-.72 3.004-.72.96 0 1.82.166 2.577.499.757.333 1.324.74 1.7 1.22.375.48.63 1.022.762 1.624.134.602.201 1.562.201 2.88zm12.993 4.73c0-.458-.024-.743-.071-.854-.048-.112-.175-.167-.384-.167-.196 0-.32.058-.374.172-.054.115-.082.398-.082.85v4.386c0 .495.026.791.076.892.051.1.181.15.39.15.196 0 .318-.055.369-.166.05-.112.076-.381.076-.811v-4.452zm2.771.752v3c0 .775-.074 1.358-.222 1.752-.148.394-.465.738-.953 1.028-.487.29-1.131.435-1.933.435-.916 0-1.618-.14-2.105-.42-.487-.278-.817-.612-.985-.999-.17-.387-.255-.94-.255-1.656v-3.14c0-.852.089-1.484.265-1.896.177-.413.518-.75 1.023-1.012.505-.26 1.13-.392 1.873-.392.83 0 1.502.144 2.015.43.512.287.854.632 1.022 1.032.17.402.255 1.015.255 1.838zM44.254 16.03l-6.853 18.072h-1.667l6.877-18.072h1.643zm-7.87 2.537c0-.459-.024-.741-.07-.85-.048-.107-.177-.16-.386-.16-.194 0-.321.057-.378.172-.058.115-.087.394-.087.838v4.387c0 .502.026.803.076.903.05.1.184.15.401.15.188 0 .308-.057.362-.172.054-.115.082-.383.082-.806v-4.462zm2.772.764v2.989c0 .78-.074 1.366-.223 1.757-.148.39-.465.731-.953 1.022-.486.29-1.131.435-1.932.435-.923 0-1.628-.137-2.11-.414-.485-.276-.812-.608-.98-.994-.172-.387-.256-.943-.256-1.667V19.33c0-.86.088-1.497.265-1.909.178-.412.519-.747 1.024-1.005.505-.258 1.13-.387 1.873-.387.822 0 1.49.141 2.003.424.512.285.855.626 1.029 1.027.172.402.26 1.018.26 1.85z"/>
    </g>
</svg>
