<svg width="58" height="57" viewBox="0 0 58 57" xmlns="http://www.w3.org/2000/svg"><g fill="none" fill-rule="evenodd"><path d="M33.677 14.48a3.69 3.69 0 0 1-2.325-4.69c.662-1.931 2.777-2.967 4.722-2.308A3.687 3.687 0 0 1 38.4 12.17c-.663 1.935-2.776 2.968-4.723 2.31zm4.36-12.734C23.091-3.3 6.853 4.642 1.77 19.483c-5.082 14.843 2.914 30.968 17.861 36.013 14.948 5.05 31.184-2.893 36.267-17.736 5.083-14.84-2.913-30.966-17.86-36.014z" fill="#2299FC"/><path fill="#FFF" d="M7.65 33.955h5.532v-2.887H7.649zm15.735 2.567v2.856h-9.264l.003-2.39c2.743-4.457 4.374-7.214 4.892-8.274.517-1.059.777-1.885.777-2.479 0-.455-.08-.794-.234-1.018-.158-.225-.396-.337-.717-.337-.32 0-.557.124-.715.373-.155.248-.234.74-.234 1.48v1.593h-3.772v-.61c0-.94.048-1.679.146-2.22.097-.542.336-1.075.719-1.6a3.598 3.598 0 0 1 1.49-1.19c.611-.268 1.344-.403 2.199-.403 1.674 0 2.94.413 3.799 1.237.857.825 1.286 1.868 1.286 3.13 0 .959-.241 1.974-.724 3.043-.483 1.069-1.905 3.339-4.268 6.809h4.617m7.357-9.634c0-.89-.044-1.447-.13-1.671-.087-.225-.29-.337-.61-.337-.312 0-.519.12-.62.356-.1.239-.151.789-.151 1.652v8.175c0 .972.047 1.559.141 1.759.094.2.297.3.61.3s.517-.117.615-.352c.097-.234.145-.762.145-1.583v-8.3zm4.21 1.407v5.588c0 1.27-.069 2.193-.208 2.773-.139.58-.427 1.121-.865 1.625a3.722 3.722 0 0 1-1.584 1.087c-.619.22-1.31.331-2.073.331-1.008 0-1.846-.116-2.512-.347-.667-.23-1.198-.591-1.594-1.08a4.611 4.611 0 0 1-.845-1.548c-.166-.542-.25-1.403-.25-2.582v-5.847c0-1.538.134-2.69.401-3.457.268-.765.8-1.38 1.595-1.841.795-.462 1.76-.694 2.892-.694.924 0 1.75.16 2.48.482.73.32 1.275.712 1.637 1.174.36.462.605.984.735 1.562.128.58.192 1.504.192 2.774zm12.507 4.554c0-.442-.023-.716-.068-.823-.046-.107-.169-.16-.37-.16-.188 0-.308.054-.36.164-.052.111-.078.384-.078.819v4.222c0 .475.025.761.073.858.048.097.174.145.375.145.188 0 .306-.054.354-.16.05-.107.074-.368.074-.782V32.85zm2.667.723v2.888c0 .745-.07 1.307-.213 1.686-.143.38-.448.71-.917.989-.469.279-1.089.419-1.86.419-.882 0-1.558-.135-2.027-.404-.469-.268-.786-.59-.949-.962-.163-.372-.244-.904-.244-1.594v-3.022c0-.82.084-1.43.256-1.826.17-.397.498-.72.984-.972.487-.253 1.087-.379 1.802-.379.799 0 1.446.139 1.939.415.493.276.822.607.985.993.164.386.244.976.244 1.77zM47.21 22.303L40.612 39.7h-1.605l6.62-17.396h1.582zm-7.576 2.442c0-.441-.024-.713-.069-.817-.044-.103-.167-.156-.369-.156-.188 0-.31.056-.365.167-.056.11-.084.379-.084.806v4.222c0 .484.024.773.073.87.05.096.177.145.386.145.18 0 .297-.056.349-.166.052-.11.079-.369.079-.776v-4.295zm2.666.735v2.877c0 .752-.07 1.316-.212 1.692-.144.375-.449.703-.917.983-.47.28-1.09.42-1.86.42-.89 0-1.568-.134-2.033-.399-.465-.266-.78-.585-.943-.957-.163-.373-.244-.907-.244-1.604V25.48c0-.828.084-1.44.255-1.837.17-.396.498-.72.984-.967.487-.248 1.088-.373 1.803-.373.791 0 1.435.136 1.928.409.493.272.823.602.99.988.167.387.25.98.25 1.78z"/><path d="M37.114 4.444C23.688-.089 9.05 7.07 4.484 20.4-.078 33.731 7.13 48.266 20.555 52.8c13.427 4.533 28.064-2.626 32.63-15.956 4.564-13.333-2.645-27.867-16.07-32.4zM20.27 53.63C6.384 48.94-1.07 33.907 3.65 20.119 8.373 6.329 23.512-1.073 37.398 3.614c13.886 4.69 21.343 19.722 16.62 33.512-4.72 13.79-19.86 21.192-33.748 16.503z" fill="#FFF"/></g></svg>