<svg width="58" height="58" viewBox="0 0 58 58" xmlns="http://www.w3.org/2000/svg"><g fill="none" fill-rule="evenodd"><path d="M57.948 29.45c0 15.73-12.841 28.48-28.682 28.48C13.426 57.93.584 45.18.584 29.45S13.425.97 29.266.97c15.84 0 28.682 12.75 28.682 28.48" fill="#F96463"/><path fill="#FFF" d="M4.858 33.559h6.27v-3.272h-6.27zm16.508-4.614c.724.242 1.264.64 1.617 1.19.354.552.531 1.845.531 3.878 0 1.51-.173 2.68-.519 3.514-.346.832-.945 1.466-1.795 1.9-.85.434-1.94.65-3.271.65-1.51 0-2.697-.251-3.56-.755-.862-.505-1.428-1.122-1.7-1.854-.271-.73-.407-1.999-.407-3.803v-1.501h4.77v3.083c0 .821.05 1.343.147 1.565.099.223.317.334.656.334.37 0 .614-.14.733-.422.117-.28.177-1.015.177-2.203v-1.314c0-.727-.083-1.258-.249-1.595-.165-.336-.409-.556-.731-.662-.324-.105-.95-.166-1.878-.182v-2.755c1.133 0 1.834-.043 2.101-.13.269-.085.461-.273.58-.562.117-.289.177-.742.177-1.36v-1.056c0-.664-.07-1.102-.208-1.313-.137-.211-.351-.317-.644-.317-.33 0-.556.112-.678.335-.122.223-.183.697-.183 1.425v1.558h-4.77v-1.617c0-1.814.417-3.04 1.251-3.676.835-.637 2.161-.955 3.98-.955 2.274 0 3.817.441 4.628 1.324.81.882 1.216 2.109 1.216 3.678 0 1.063-.145 1.83-.436 2.303-.292.473-.803.905-1.535 1.295M31.71 25.55c0-1.007-.05-1.64-.148-1.893-.1-.255-.33-.382-.69-.382-.355 0-.59.135-.703.406-.115.268-.173.893-.173 1.869v9.263c0 1.103.055 1.767.161 1.993.106.228.337.34.691.34.354 0 .585-.133.695-.398.111-.265.166-.864.166-1.794V25.55zm4.77 1.595v6.331c0 1.44-.079 2.486-.236 3.143-.158.657-.485 1.271-.98 1.841-.496.57-1.094.98-1.795 1.23-.701.25-1.485.376-2.35.376-1.14 0-2.09-.131-2.845-.392-.757-.262-1.358-.671-1.808-1.226a5.226 5.226 0 0 1-.955-1.753c-.19-.613-.284-1.589-.284-2.925v-6.625c0-1.743.15-3.049.454-3.917.304-.866.906-1.563 1.808-2.086.9-.524 1.993-.785 3.276-.785 1.046 0 1.983.18 2.81.544.826.363 1.445.808 1.854 1.331a4.37 4.37 0 0 1 .831 1.77c.147.657.22 1.705.22 3.143zm14.169 5.159c0-.5-.025-.811-.076-.932s-.19-.181-.42-.181c-.211 0-.348.061-.408.187-.058.125-.087.433-.087.926v4.784c0 .54.027.864.082.973.055.11.196.164.426.164.212 0 .345-.06.4-.182.056-.12.083-.416.083-.885v-4.854zm3.023.821v3.271c0 .845-.081 1.482-.241 1.911-.163.43-.509.803-1.04 1.12-.53.317-1.234.475-2.108.475-1 0-1.766-.152-2.296-.458-.532-.304-.89-.668-1.075-1.09-.185-.422-.277-1.024-.277-1.805v-3.424c0-.93.096-1.62.29-2.07.191-.45.564-.817 1.115-1.103.55-.285 1.231-.427 2.043-.427.905 0 1.636.157 2.196.469.559.313.93.688 1.116 1.126.185.438.277 1.106.277 2.005zm-3.306-12.768l-7.475 19.709h-1.818l7.5-19.71h1.793zm-8.584 2.766c0-.5-.026-.809-.078-.926-.05-.118-.19-.176-.419-.176-.212 0-.349.062-.413.188-.063.124-.094.43-.094.914v4.785c0 .546.028.875.083.984.054.11.2.164.437.164.204 0 .335-.063.395-.187.059-.126.089-.418.089-.88v-4.866zm3.022.832v3.26c0 .853-.08 1.491-.242 1.917-.16.426-.508.798-1.039 1.114-.531.317-1.234.475-2.108.475-1.008 0-1.774-.15-2.302-.45-.527-.302-.884-.664-1.069-1.085-.185-.423-.276-1.028-.276-1.818v-3.413c0-.937.096-1.63.289-2.081.192-.448.563-.814 1.116-1.096.55-.28 1.23-.421 2.042-.421.897 0 1.625.153 2.184.463.56.308.933.681 1.122 1.118.189.44.283 1.11.283 2.017z"/></g></svg>