<svg width="53" height="52" viewBox="0 0 53 52" xmlns="http://www.w3.org/2000/svg">
    <g fill="none" fill-rule="evenodd">
        <path d="M52.823 25.749c0 14.285-11.665 25.866-26.05 25.866-14.386 0-26.05-11.58-26.05-25.866 0-14.285 11.664-25.866 26.05-25.866 14.385 0 26.05 11.58 26.05 25.866" fill="#93CCF8"/>
        <path fill="#FFF" d="M5.33 28.76h5.95v-3.104H5.33zm14.137-12.181v18.01h-4.524v-9.655c0-1.395-.034-2.233-.102-2.515-.067-.281-.251-.495-.555-.64-.302-.144-.976-.216-2.022-.216h-.448v-2.1c2.19-.467 3.85-1.429 4.986-2.884h2.665m7.91 4.583c0-.956-.048-1.555-.14-1.797-.094-.24-.313-.361-.656-.361-.336 0-.559.128-.668.384-.108.256-.161.847-.161 1.774v8.787c0 1.046.05 1.677.152 1.892.1.215.32.323.655.323.336 0 .556-.126.66-.379.105-.251.158-.82.158-1.702v-8.92zm4.525 1.513v6.007c0 1.364-.075 2.358-.224 2.981-.149.623-.46 1.205-.93 1.747a4 4 0 0 1-1.703 1.168c-.664.237-1.406.355-2.23.355-1.082 0-1.982-.124-2.698-.372-.718-.248-1.289-.636-1.714-1.162a4.964 4.964 0 0 1-.907-1.664c-.18-.582-.27-1.507-.27-2.775v-6.285c0-1.653.144-2.892.431-3.715.288-.824.859-1.484 1.715-1.98.854-.497 1.89-.746 3.108-.746.993 0 1.882.173 2.667.517.783.346 1.37.766 1.758 1.263.388.497.652 1.057.79 1.68.139.623.207 1.617.207 2.981zm13.443 4.894c0-.474-.024-.769-.073-.884-.049-.115-.181-.172-.398-.172-.2 0-.33.059-.386.178-.057.118-.084.41-.084.878v4.539c0 .512.025.82.078.923.053.104.187.156.404.156.2 0 .329-.057.38-.172.052-.115.08-.395.08-.84v-4.606zm2.868.779v3.104c0 .8-.077 1.405-.23 1.813-.153.407-.481.762-.986 1.062-.504.3-1.17.451-2 .451-.947 0-1.674-.145-2.179-.434-.503-.29-.843-.635-1.02-1.035-.174-.4-.261-.97-.261-1.713v-3.248c0-.882.09-1.537.273-1.963.183-.427.536-.775 1.06-1.046.522-.27 1.168-.405 1.937-.405.859 0 1.553.147 2.083.444.53.297.884.652 1.06 1.068.175.415.263 1.05.263 1.902zm-3.136-12.114l-7.093 18.699H36.26l7.115-18.699h1.702zm-8.144 2.625c0-.474-.026-.767-.074-.878-.048-.112-.181-.167-.397-.167-.202 0-.333.06-.392.178-.06.118-.09.407-.09.867v4.54c0 .518.025.829.078.934.052.104.19.155.415.155.194 0 .319-.06.375-.178.055-.12.085-.396.085-.834v-4.617zm2.867.79v3.092c0 .808-.077 1.415-.23 1.82-.153.404-.481.756-.985 1.056-.505.3-1.171.451-2 .451-.956 0-1.684-.143-2.184-.428-.502-.286-.84-.629-1.014-1.03-.176-.4-.264-.975-.264-1.723v-3.238c0-.89.092-1.548.275-1.974.182-.427.535-.773 1.058-1.04.523-.268 1.17-.4 1.938-.4.852 0 1.542.146 2.072.438.53.293.885.648 1.065 1.063.179.415.27 1.053.27 1.913z"/>
    </g>
</svg>
