<?xml version="1.0" encoding="UTF-8"?>
<svg width="20px" height="20px" viewBox="0 0 20 20" version="1.1" xmlns="http://www.w3.org/2000/svg" xmlns:xlink="http://www.w3.org/1999/xlink">
    <!-- Generator: sketchtool 41 (35326) - http://www.bohemiancoding.com/sketch -->
    <title>3475899E-0F53-4904-86A3-F95719ED5789</title>
    <desc>Created with sketchtool.</desc>
    <defs></defs>
    <g id="Page-1" stroke="none" stroke-width="1" fill="none" fill-rule="evenodd">
        <g id="P11_productlist_flashdeal_coming-soon" transform="translate(-64.000000, -489.000000)" fill="#FFFFFF">
            <path d="M74.0002683,489 C68.4862426,489 64,493.486139 64,498.99996 C64,504.513781 68.4861353,509 74.0002683,509 C79.5140525,509 84,504.513781 84,498.99996 C84,493.486139 79.5140525,489 74.0002683,489 L74.0002683,489 Z M74.0002683,507.095139 C69.5362125,507.095139 65.9048999,503.463715 65.9048999,499.000067 C65.9048999,494.536312 69.5362125,490.904781 74.0002683,490.904781 C78.4641899,490.904781 82.0951001,494.536312 82.0951001,499.000067 C82.0951001,503.463715 78.4641899,507.095139 74.0002683,507.095139 L74.0002683,507.095139 Z M79.2528008,499.461812 L74.4908194,499.461812 L74.4908194,493.747603 C74.4908194,493.221637 74.0641727,492.795066 73.5384232,492.795066 C73.0125394,492.795066 72.5860269,493.221637 72.5860269,493.747603 L72.5860269,500.414136 C72.5860269,500.940129 73.0125394,501.366567 73.5384232,501.366567 L79.2528008,501.366567 C79.779087,501.366567 80.2051971,500.940129 80.2051971,500.414136 C80.2053044,499.888277 79.779087,499.461812 79.2528008,499.461812 L79.2528008,499.461812 Z" id="iconfont-shijian"></path>
        </g>
    </g>
</svg>