<svg xmlns="http://www.w3.org/2000/svg" viewBox="0 0 100 100"><defs><style>.cls-1{fill:#d81f07;}.cls-2{fill:#fff;}</style></defs><title>icon</title><g id="图层_2" data-name="图层 2"><g id="图层_6" data-name="图层 6"><rect class="cls-1" width="100" height="100"/><polygon class="cls-2" points="45.26 70.31 53.45 70.31 34.71 28.78 27.54 28.78 11.91 70.31 19.98 70.31 22.88 62.48 34.84 62.48 34.84 62.04 31.62 55.03 25.64 55.03 31.4 39.45 45.26 70.31"/><path class="cls-2" d="M69.8,63A11.15,11.15,0,1,1,79,45.6h9.09a19.33,19.33,0,0,0-36.9,1L61.46,69.31A19.29,19.29,0,0,0,88.09,58.13H79A11.14,11.14,0,0,1,69.8,63Z"/></g></g></svg>