<svg version="1.1"
	 xmlns="http://www.w3.org/2000/svg" xmlns:xlink="http://www.w3.org/1999/xlink" xmlns:a="http://ns.adobe.com/AdobeSVGViewerExtensions/3.0/"
	 x="0px" y="0px" width="121px" height="25.5px" viewBox="0 0 121 25.5" style="enable-background:new 0 0 121 25.5;"
	 xml:space="preserve">
<style type="text/css">
	.st0{fill:#4285F4;}
	.st1{fill:#34A853;}
	.st2{fill:#EA4335;}
	.st3{fill:#FBBC05;}
	.st4{fill:#FF1D25;}
	.st5{fill:#FF5C5C;}
	.st6{fill:#DE2A6C;}
	.st7{fill:#FF2B99;}
	.st8{fill:#A933D4;}
</style>
<defs>
</defs>
<g>
	<path class="st0" d="M9,20v-7.7c0-1.4-0.1-2.5-0.5-3.1c-0.4-0.6-1-0.9-1.9-0.9c-1,0-1.5,0.4-2.1,1.2C4,10.2,4,11.3,4,12.7V20H0V9.3
		C0,8.2,0.4,7,0.3,6h3c0.1,1,0.2,2,0.2,3h0.1c0.5-1,1.1-2,1.8-2.4C6,6.1,6.9,6,8,6c2.2,0,3.6,1,4.2,3h0.1c0.5-1,1.1-1.9,1.8-2.4
		c0.7-0.5,1.6-0.8,2.7-0.8c1.5,0,2.5,0.4,3.2,1.3c0.7,0.9,1,2.3,1,4.3V20h-3v-7.7c0-1.4-0.1-2.4-0.6-3.1c-0.4-0.6-1-0.9-1.9-0.9
		c-1,0-1.9,0.4-2.5,1.2c-0.6,0.8-1,1.8-1,3.2V20H9z"/>
	<path class="st1" d="M26,25.5c-0.6,0-1-0.1-2-0.2v-2.4c1,0.1,1.1,0.2,1.4,0.2c0.5,0,1-0.1,1.4-0.3c0.4-0.2,0.7-0.5,1-0.9
		c0.3-0.4,0.5-0.8,0.7-1.1l0.2-0.5L23.1,6h3.3l2.6,7.5c0.3,0.8,0.7,2.1,1.2,3.9c0.2-0.6,0.5-1.8,1.1-3.5L34.1,6h3.3l-5.7,14.9
		c-0.6,1.4-1.4,2.5-2.2,3.3C28.6,25.1,27.4,25.5,26,25.5z"/>
	<path class="st2" d="M44.4,11.1L47.6,6H51l-4.9,6.8l5.2,7.2h-3.4l-3.5-5.3L40.8,20h-3.3l5.1-7.2L37.7,6h3.4L44.4,11.1z"/>
	<path class="st3" d="M60.3,20h-3.7L51.4,6h3.3l2.7,8.4c0.5,1.8,0.9,2.9,1,3.2c0.1-0.3,0.2-0.7,0.4-1.2c0.2-0.5,0.4-1.2,0.7-2.1
		L62.3,6h3.3L60.3,20z"/>
	<path class="st4" d="M68,3V0h3v3H68z M68,20V6h3v14H68z"/>
	<path class="st5" d="M84.2,16.1c0,1.3-0.5,2.4-1.4,3.2s-2.2,1.1-3.8,1.1c-1.7,0-3-0.3-3.8-0.8c-0.8-0.5-1.3-1.4-1.6-2.6l2.7-0.4
		c0.1,0.6,0.4,1.1,0.8,1.4c0.4,0.3,1,0.4,1.8,0.4c0.7,0,1.3-0.2,1.7-0.5c0.4-0.3,0.6-0.8,0.6-1.5c0-0.4-0.1-0.7-0.3-1
		c-0.2-0.3-0.5-0.5-0.9-0.7c-0.4-0.2-1.1-0.4-2.2-0.7c-1-0.3-1.7-0.6-2.2-0.9c-0.5-0.3-0.9-0.8-1.1-1.3c-0.3-0.5-0.4-1.1-0.4-1.9
		c0-1.3,0.4-2.3,1.2-3c0.8-0.7,2-1.1,3.6-1.1c1.4,0,2.6,0.3,3.3,0.8s1.3,1.4,1.5,2.5L81,9.3c-0.1-0.5-0.3-0.9-0.7-1.1
		S79.5,7.9,79,7.9c-1.3,0-1.9,0.6-1.9,1.7c0,0.4,0.1,0.7,0.2,0.9c0.2,0.2,0.4,0.4,0.7,0.6c0.3,0.2,1,0.4,2.1,0.7
		c1.2,0.3,2,0.7,2.5,1c0.5,0.3,0.9,0.8,1.2,1.3S84.2,15.3,84.2,16.1z"/>
	<path class="st6" d="M90,6v7.9c0,1.4,0.3,2.4,0.7,3.1c0.4,0.6,1.2,0.9,2.1,0.9c1,0,1.8-0.4,2.4-1.2s0.8-1.9,0.8-3.3V6h3v10.8
		c0,1.1,0.3,2.2,0.4,3.2h-3c-0.1-1-0.2-2-0.2-3h-0.1c-0.5,1-1.2,2-1.9,2.5c-0.7,0.5-1.6,0.8-2.8,0.8c-1.5,0-2.7-0.4-3.4-1.3
		S87,16.6,87,14.7V6H90z"/>
	<path class="st7" d="M114,20h-2.9l-0.1-2.2c-0.5,0.9-1,1.6-1.7,1.9c-0.7,0.4-1.5,0.6-2.4,0.6c-1.4,0-2.5-0.4-3.3-1.1
		c-0.8-0.7-1.1-1.8-1.1-3.1c0-1.5,0.5-2.6,1.6-3.3c1-0.8,2.6-1.2,4.6-1.3l2.4-0.1V11c0-1.1-0.2-1.9-0.6-2.4c-0.4-0.5-1-0.7-1.8-0.7
		c-0.7,0-1.3,0.1-1.6,0.4c-0.4,0.3-0.6,0.7-0.7,1.3l-3-0.5c0.3-1.2,0.8-2.1,1.7-2.6c0.9-0.5,2.1-0.8,3.7-0.8c1.9,0,3.2,0.4,4.1,1.3
		c0.9,0.9,1.3,2.3,1.3,4.1V20z M107.8,18.1c1,0,1.8-0.3,2.3-1c0.6-0.7,0.9-1.6,0.9-2.6v-1.3l-1.5,0.1c-1.3,0.1-2.3,0.3-2.9,0.7
		s-0.9,1.1-0.9,1.9C105.7,17.4,106.4,18.1,107.8,18.1z"/>
	<path class="st8" d="M118,20V0h3v20H118z"/>
</g>
</svg>
