<?xml version="1.0" encoding="utf-8"?>
<!-- Generator: Adobe Illustrator 19.2.1, SVG Export Plug-In . SVG Version: 6.00 Build 0)  -->
<svg version="1.1" id="shake_hand" xmlns="http://www.w3.org/2000/svg" xmlns:xlink="http://www.w3.org/1999/xlink" x="0px" y="0px"
	 viewBox="0 0 750 750" style="fill: white;" xml:space="preserve">
<g>
	<path d="M116,533.6c-1.2-18.7,9-31.1,23.7-41c19.7-13.3,39.3-26.7,56.6-43.2c11.6-11,16.2-22.8,9-38c-2.4-5-3.2-10.8-5.5-15.8
		c-13.9-29.9-11.3-59.6-1.3-90.2c7.9-24.1,20.4-43.9,41.5-58.1c7.5-5,10.2-11,8.5-20.6c-5.4-30.6,7.6-52.1,37.3-60.2
		c54.2-14.8,108.6-29.3,163.1-42.7c32.8-8.1,52.6,4.3,62.5,36.3c2.1,6.8,4.2,13.6,5.6,20.5c1.9,9.8,6.9,15.5,16.3,19.8
		c23.2,10.6,33.7,32.6,27.9,57.5c-2.1,9-0.2,15,5.9,21.7c13.8,15.2,20.1,32.9,12.1,53.2c-2.7,6.8-1,11.4,4.1,16.1
		c17.7,16.1,22.3,35.5,13.7,57.9c-2.9,7.5-0.6,13.5,4.2,19.6c13.4,17.1,16.3,35.7,5.5,55.3c-3.6,6.6-3.8,13.3-3.3,20.6
		c2,30.1-9.6,47.2-38.4,55.2c-54.2,15-108.4,29.7-162.8,44.1c-17.7,4.7-34.4,1.9-48.1-11.3c-8.1-7.9-13.3-6-18.9,3
		c-9.6,15.5-19.5,30.8-30.1,45.7c-17.2,24.2-42.5,30.1-69.4,16.7c-21.1-10.5-37.3-27.8-55.5-42.2c-13.9-11-27.1-22.8-40.5-34.4
		C126.1,567.2,114.9,553.8,116,533.6z M335.5,347.7c12.6,2.6,24.7-3.7,35.6-12.4c11.5-9.2,12.5-22.4,1.9-29.2
		c-26-16.6-52.1-33.2-80.1-46.5c-7.1-3.4-15.5-5.1-22-0.9c-19.2,12.2-36.5,25.7-45.2,49.1c-11.6,31.3-8.6,61.1,4.7,89.9
		c12.7,27.5,4.5,48.8-14.7,68.5c-3.5,3.6-7.4,6.9-11.3,10.1c-16.8,13.8-33.9,27.3-50.4,41.5c-12,10.4-12.2,25.2-0.1,35.5
		c29.3,24.9,59,49.5,88.9,73.6c13.6,11,25.7,8.8,36.7-4.1c17.1-20.1,31.4-42.2,47-63.4c7-9.4,7.4-17.4,4.2-28
		c-12.6-41.7-24.7-83.5-36.7-125.3c-6-20.9-11.3-42-16.8-63.1c-0.9-3.3-1.9-7.3,1.7-9.8c3.7-2.5,6.7,0.4,9.6,2.4
		C302.1,344.7,317.3,347.7,335.5,347.7z M394.9,572.6c2.7-0.5,7.7-1.3,12.6-2.6c20.1-5.2,40.2-10.4,60.2-15.9
		c29.3-7.9,58.6-15.9,87.9-24.2c7.4-2.1,14.1-5.8,17.1-13.8c2-5.3,2-10.1-5.3-7.9c-23.4,6.8-46.7,13.6-71,16.3
		c-2.5,0.3-4.6,3.6-6.9,5.6c-9.8,8.7-20.4,11.6-31.3,2.4c-10.5-8.8-12.1-19.4-3.9-30.9c1.7-2.4,4.6-4.9,2.2-7.9
		c-2.7-3.4-6.5-1.5-9.9-0.6c-14.2,3.7-28.3,7.7-42.6,11.1c-24.6,5.8-35.7-1.7-41.9-26c-7.5-29.4-15.8-58.7-23.9-88
		c-2-7.2-3.4-17.1-13.9-13.8c-9.8,3-3.1,11.5-1.7,16.9c6.7,27,14.2,53.9,21.6,80.7c6.7,24.4,13.1,49,20.5,73.1
		C368.8,560.5,375.4,572.8,394.9,572.6z M278.1,216.3c0.2,12.2,21.2,23.6,33.4,19.3c44.1-15.3,89.9-24.8,134.8-37.5
		c10.9-3.1,21.6-5,32.5,0.8c6,3.2,12.3,3,14.2-5.4c5.4-23.9-18.9-47.6-42.6-41.3c-50.4,13.4-100.8,27.1-151,41
		C287.1,196.6,279.5,205,278.1,216.3z M447.6,366.1c30.3-5.7,63.4-15.2,95.8-26.2c12.3-4.2,18.4-15.5,14.6-29.6
		c-3.9-14.3-14.8-22.7-29.7-19.5c-32.1,6.9-64,14.9-95,25.6c-12.3,4.3-20.6,19.5-16.9,30.5C420.6,359.4,430,366.6,447.6,366.1z
		 M418,263.9c-0.6,17.6,12.9,30.2,30.5,26.4c23.7-5.2,47.2-11.8,70.5-18.7c16.4-4.8,23.2-17,19.9-32.4c-3-13.8-15-21.8-31.7-18.6
		c-24.8,4.7-49.2,11.6-73.1,20C423,244.5,418.3,252.7,418,263.9z M483.6,431.4c25.3-4.6,52.1-12.1,78.4-20.8
		c13.1-4.3,19.1-19.1,15.6-30.8c-4-13.2-16.5-21.4-30.7-18.2c-24.6,5.6-49,11.8-73.2,18.7c-13,3.7-20.2,17.2-17.7,29.7
		C458.4,422.6,469.4,431.8,483.6,431.4z M512,499.8c20.2-7.1,44.6-8.3,66-19.3c11.2-5.7,15.1-16.4,11.6-28.5
		c-3.7-12.8-13.6-20.3-26.3-18.3c-22.4,3.4-45,7.8-66.1,16.5c-12.3,5.1-17,15.8-14,28.7C486.2,492.6,495.7,499,512,499.8z"/>
	<path d="M251.2,87.2c7,0.2,11.9,2.5,13.9,8.6c2.2,6.8-0.7,12.2-6.3,15.6c-7.7,4.7-16.3,8.2-23.8,13.2c-22.3,14.7-37.1,35.5-47,60.1
		c-3.3,8.3-5.5,19.7-18.2,15c-13.5-5-9.4-15.4-5.4-25.4c15.5-38.4,41.7-66.5,79.2-84.1C246.4,89,249.2,88,251.2,87.2z"/>
	<path d="M691,524.3c-7.2,46-30.6,81.8-69.6,107.2c-6.2,4-12.9,3.1-17.7-3.1c-5.1-6.6-2.3-12.5,3.1-17.3c8-7,16.6-13.2,24.4-20.5
		c18-16.8,27.6-38.3,32.9-62c0.7-3,1.4-5.9,2.3-8.8c2.3-6.8,6.5-12.2,14.3-10.7C688.2,510.6,690.8,516.9,691,524.3z"/>
	<path d="M203.8,199.5c1.9-11.7,8.2-22.1,14.9-32.3c10.9-16.6,26.4-27.6,44-36.1c7.1-3.4,13-1.6,16.7,5.2c3.4,6.3,1.8,13-4.3,15.8
		c-24.1,11.1-38.7,30-47.7,54.2c-2.4,6.4-8.5,8.5-15.2,6.8C205.7,211.4,204.2,206,203.8,199.5z"/>
	<path d="M646,518.6c-5.1,33.2-21.6,58-49.7,75.1c-5.1,3.1-9.8,5.4-14.4-0.9c-4.4-6.1-6.2-13.4,0.1-17.6
		c22.2-15,34.9-35.8,41.2-61.4c1.7-6.9,8.1-8.7,14.7-7.2C644.5,508.1,646.3,513.1,646,518.6z"/>
	<path d="M411.4,179.1c7.8-0.3,12.2-0.1,13.6,4.7c1.6,5.4-1.6,9.1-6.4,10.4c-23.4,6.6-46.8,13-70.3,19c-4.5,1.2-9.6,0-10.9-5.6
		c-1.3-5.6,2.6-8.7,7.2-10C368,190.9,391.4,184.6,411.4,179.1z"/>
</g>
</svg>
