<svg id="π" data-name="π" xmlns="http://www.w3.org/2000/svg" viewBox="0 0 72.95 68.44"><defs><style>.cls-1{fill:#fff;}</style></defs><title>π</title><path class="cls-1" d="M310.91,403.5h56.48v11.77H350.92q-5.89,27.07-4.71,40,1.17,5.89,9.41,4.71,4.7-1.17,11.77-9.41l-4.71,14.12q-15.3,15.29-25.88-2.35-1.19-12.93,7.06-47.06H327.38A178.92,178.92,0,0,1,315.62,467q-3.53,5.87-10.59,4.71Q298,467,301.5,460q16.46-11.76,18.83-44.71H308.56A21.62,21.62,0,0,0,296.79,427h-2.35Q295.61,412.91,310.91,403.5Z" transform="translate(-294.44 -403.5)"/></svg>